<svg width="227" height="93" viewBox="0 0 227 93" fill="none" xmlns="http://www.w3.org/2000/svg">
<path d="M3.90213 15.5737L4.0357 15.2824C4.59436 14.064 5.49108 13.0316 6.61928 12.308C7.74743 11.5843 9.05961 11.1998 10.3999 11.2L3.90213 15.5737ZM3.90213 15.5737L4.11103 15.8167M3.90213 15.5737L4.11103 15.8167M4.11103 15.8167C4.88951 16.7224 5.85465 17.449 6.94027 17.9466C8.02572 18.4442 9.20593 18.7012 10.4 18.7M4.11103 15.8167L16.8979 15.5737M16.8979 15.5737L16.689 15.8167C15.9105 16.7224 14.9454 17.449 13.8597 17.9466C12.7743 18.4442 11.5941 18.7012 10.4 18.7M16.8979 15.5737L16.7643 15.2824M16.8979 15.5737L16.7643 15.2824M10.4 18.7C10.3998 18.7 10.3996 18.7 10.3995 18.7L10.4 18.2L10.4005 18.7C10.4004 18.7 10.4002 18.7 10.4 18.7ZM16.7643 15.2824C16.2056 14.064 15.3089 13.0316 14.1807 12.308M16.7643 15.2824L14.1807 12.308M14.1807 12.308C13.0526 11.5843 11.7404 11.1998 10.4001 11.2L14.1807 12.308ZM20.3 10.4C20.3 13.0256 19.257 15.5437 17.4004 17.4004C15.5437 19.257 13.0256 20.3 10.4 20.3C7.77436 20.3 5.25625 19.257 3.39964 17.4004C1.54303 15.5437 0.5 13.0256 0.5 10.4C0.5 7.77436 1.54303 5.25625 3.39964 3.39964C5.25625 1.54303 7.77436 0.5 10.4 0.5C13.0256 0.5 15.5437 1.54303 17.4004 3.39964C19.257 5.25625 20.3 7.77436 20.3 10.4ZM12.592 8.69203C13.1734 8.11067 13.5 7.32217 13.5 6.5C13.5 5.67783 13.1734 4.88933 12.592 4.30797C12.0107 3.72661 11.2222 3.4 10.4 3.4C9.57783 3.4 8.78933 3.72661 8.20797 4.30797C7.62661 4.88933 7.3 5.67783 7.3 6.5C7.3 7.32217 7.62661 8.11067 8.20797 8.69203C8.78933 9.27339 9.57783 9.6 10.4 9.6C11.2222 9.6 12.0107 9.27339 12.592 8.69203Z" fill="#6B7280" stroke="#6B7280"/>
<path d="M30.8 0H192.8C197.218 0 200.8 3.58172 200.8 8V85C200.8 89.4183 197.218 93 192.8 93H38.8C34.3818 93 30.8 89.4183 30.8 85V0Z" fill="#374151"/>
<rect x="38.8" y="14" width="54" height="8" rx="2" fill="#6B7280"/>
<rect x="38.8" y="28" width="76" height="4" rx="2" fill="#4B5563"/>
<rect x="38.8" y="28" width="76" height="4" rx="2" fill="#4B5563"/>
<rect x="38.8" y="44" width="154" height="6" rx="2" fill="#6B7280"/>
<rect x="38.8" y="55" width="96" height="6" rx="2" fill="#6B7280"/>
<rect x="38.8" y="73" width="27" height="4" rx="2" fill="#4B5563"/>
<path d="M218.8 43.3001C218.376 43.3001 217.969 43.1315 217.669 42.8315C217.369 42.5314 217.2 42.1244 217.2 41.7001C217.2 41.2758 217.369 40.8688 217.669 40.5687C217.969 40.2687 218.376 40.1001 218.8 40.1001C219.224 40.1001 219.631 40.2687 219.931 40.5687C220.231 40.8688 220.4 41.2758 220.4 41.7001C220.4 42.1244 220.231 42.5314 219.931 42.8315C219.631 43.1315 219.224 43.3001 218.8 43.3001ZM218.8 48.1001C218.376 48.1001 217.969 47.9315 217.669 47.6315C217.369 47.3314 217.2 46.9244 217.2 46.5001C217.2 46.0758 217.369 45.6688 217.669 45.3687C217.969 45.0687 218.376 44.9001 218.8 44.9001C219.224 44.9001 219.631 45.0687 219.931 45.3687C220.231 45.6688 220.4 46.0758 220.4 46.5001C220.4 46.9244 220.231 47.3314 219.931 47.6315C219.631 47.9315 219.224 48.1001 218.8 48.1001ZM218.8 52.9001C218.376 52.9001 217.969 52.7315 217.669 52.4315C217.369 52.1314 217.2 51.7244 217.2 51.3001C217.2 50.8758 217.369 50.4688 217.669 50.1687C217.969 49.8687 218.376 49.7001 218.8 49.7001C219.224 49.7001 219.631 49.8687 219.931 50.1687C220.231 50.4688 220.4 50.8758 220.4 51.3001C220.4 51.7244 220.231 52.1314 219.931 52.4315C219.631 52.7315 219.224 52.9001 218.8 52.9001Z" fill="#6B7280"/>
</svg>
