<svg width="398" height="232" viewBox="0 0 398 232" fill="none" xmlns="http://www.w3.org/2000/svg">
<g filter="url(#filter0_dd_5594_5068)">
<g clip-path="url(#clip0_5594_5068)">
<rect x="6" y="2" width="386" height="220" rx="8" fill="#374151"/>
<rect width="386" height="52" transform="translate(6 2)" fill="#4B5563"/>
<rect x="27.5" y="16.5" width="143" height="23" rx="7.5" fill="#6B7280"/>
<rect x="27.5" y="16.5" width="143" height="23" rx="7.5" stroke="#9CA3AF"/>
<g clip-path="url(#clip1_5594_5068)">
<mask id="path-4-inside-1_5594_5068" fill="white">
<path d="M41 31C40.2089 31 39.4355 30.7654 38.7777 30.3259C38.1199 29.8864 37.6072 29.2616 37.3045 28.5307C37.0017 27.7998 36.9225 26.9956 37.0769 26.2196C37.2312 25.4437 37.6122 24.731 38.1716 24.1716C38.731 23.6122 39.4437 23.2312 40.2197 23.0769C40.9956 22.9225 41.7999 23.0017 42.5308 23.3045C43.2617 23.6072 43.8864 24.1199 44.326 24.7777C44.7655 25.4355 45.0001 26.2089 45.0001 27C44.9989 28.0605 44.5771 29.0772 43.8272 29.8271C43.0773 30.577 42.0606 30.9988 41 31ZM41 24C40.4067 24 39.8267 24.1759 39.3333 24.5056C38.84 24.8352 38.4554 25.3038 38.2284 25.8519C38.0013 26.4001 37.9419 27.0033 38.0577 27.5853C38.1734 28.1672 38.4591 28.7018 38.8787 29.1213C39.2983 29.5409 39.8328 29.8266 40.4148 29.9424C40.9967 30.0581 41.5999 29.9987 42.1481 29.7716C42.6963 29.5446 43.1648 29.1601 43.4945 28.6667C43.8241 28.1734 44.0001 27.5933 44.0001 27C43.9993 26.2046 43.683 25.442 43.1205 24.8796C42.5581 24.3171 41.7955 24.0008 41 24Z"/>
<path d="M46.5001 33C46.3675 33 46.2403 32.9473 46.1466 32.8535L44.1466 30.8535C44.0555 30.7592 44.0051 30.6329 44.0062 30.5018C44.0074 30.3707 44.06 30.2453 44.1527 30.1526C44.2454 30.0599 44.3708 30.0073 44.5019 30.0062C44.633 30.005 44.7593 30.0554 44.8536 30.1465L46.8536 32.1465C46.9235 32.2164 46.9711 32.3055 46.9904 32.4025C47.0097 32.4995 46.9998 32.6 46.9619 32.6913C46.9241 32.7827 46.86 32.8608 46.7778 32.9157C46.6956 32.9706 46.599 33 46.5001 33Z"/>
</mask>
<path d="M41 31C40.2089 31 39.4355 30.7654 38.7777 30.3259C38.1199 29.8864 37.6072 29.2616 37.3045 28.5307C37.0017 27.7998 36.9225 26.9956 37.0769 26.2196C37.2312 25.4437 37.6122 24.731 38.1716 24.1716C38.731 23.6122 39.4437 23.2312 40.2197 23.0769C40.9956 22.9225 41.7999 23.0017 42.5308 23.3045C43.2617 23.6072 43.8864 24.1199 44.326 24.7777C44.7655 25.4355 45.0001 26.2089 45.0001 27C44.9989 28.0605 44.5771 29.0772 43.8272 29.8271C43.0773 30.577 42.0606 30.9988 41 31ZM41 24C40.4067 24 39.8267 24.1759 39.3333 24.5056C38.84 24.8352 38.4554 25.3038 38.2284 25.8519C38.0013 26.4001 37.9419 27.0033 38.0577 27.5853C38.1734 28.1672 38.4591 28.7018 38.8787 29.1213C39.2983 29.5409 39.8328 29.8266 40.4148 29.9424C40.9967 30.0581 41.5999 29.9987 42.1481 29.7716C42.6963 29.5446 43.1648 29.1601 43.4945 28.6667C43.8241 28.1734 44.0001 27.5933 44.0001 27C43.9993 26.2046 43.683 25.442 43.1205 24.8796C42.5581 24.3171 41.7955 24.0008 41 24Z" fill="#9CA3AF"/>
<path d="M46.5001 33C46.3675 33 46.2403 32.9473 46.1466 32.8535L44.1466 30.8535C44.0555 30.7592 44.0051 30.6329 44.0062 30.5018C44.0074 30.3707 44.06 30.2453 44.1527 30.1526C44.2454 30.0599 44.3708 30.0073 44.5019 30.0062C44.633 30.005 44.7593 30.0554 44.8536 30.1465L46.8536 32.1465C46.9235 32.2164 46.9711 32.3055 46.9904 32.4025C47.0097 32.4995 46.9998 32.6 46.9619 32.6913C46.9241 32.7827 46.86 32.8608 46.7778 32.9157C46.6956 32.9706 46.599 33 46.5001 33Z" fill="#9CA3AF"/>
<path d="M41 31V32L41.0012 32L41 31ZM45.0001 27L46.0001 27.0011V27H45.0001ZM41 24L41.001 23H41V24ZM44.0001 27H45.0001L45.0001 26.999L44.0001 27ZM46.5001 33L46.4999 34H46.5003L46.5001 33ZM46.1466 32.8535L46.8538 32.1465L46.8537 32.1464L46.1466 32.8535ZM44.1466 30.8535L43.4273 31.5482L43.4333 31.5545L43.4395 31.5606L44.1466 30.8535ZM44.8536 30.1465L45.5607 29.4394L45.5545 29.4332L45.5483 29.4272L44.8536 30.1465ZM46.8536 32.1465L47.5608 31.4395L47.5607 31.4394L46.8536 32.1465ZM41 30C40.4067 30 39.8267 29.824 39.3333 29.4944L38.2222 31.1573C39.0444 31.7068 40.0111 32 41 32V30ZM39.3333 29.4944C38.84 29.1648 38.4554 28.6962 38.2284 28.148L36.3806 28.9134C36.7591 29.8271 37.3999 30.6079 38.2222 31.1573L39.3333 29.4944ZM38.2284 28.148C38.0013 27.5999 37.9419 26.9967 38.0576 26.4147L36.0961 26.0245C35.9031 26.9945 36.0022 27.9998 36.3806 28.9134L38.2284 28.148ZM38.0576 26.4147C38.1734 25.8328 38.4591 25.2982 38.8787 24.8787L37.4645 23.4645C36.7652 24.1637 36.289 25.0546 36.0961 26.0245L38.0576 26.4147ZM38.8787 24.8787C39.2983 24.4591 39.8328 24.1734 40.4148 24.0576L40.0246 22.0961C39.0547 22.289 38.1638 22.7652 37.4645 23.4645L38.8787 24.8787ZM40.4148 24.0576C40.9967 23.9419 41.5999 24.0013 42.1481 24.2284L42.9135 22.3806C41.9998 22.0022 40.9945 21.9031 40.0246 22.0961L40.4148 24.0576ZM42.1481 24.2284C42.6963 24.4554 43.1649 24.8399 43.4945 25.3333L45.1574 24.2221C44.608 23.3999 43.8271 22.759 42.9135 22.3806L42.1481 24.2284ZM43.4945 25.3333C43.8241 25.8266 44.0001 26.4067 44.0001 27H46.0001C46.0001 26.0111 45.7068 25.0444 45.1574 24.2221L43.4945 25.3333ZM44.0001 26.9989C43.9992 27.7945 43.6827 28.5574 43.1201 29.12L44.5343 30.5342C45.4715 29.5971 45.9986 28.3265 46.0001 27.0011L44.0001 26.9989ZM43.1201 29.12C42.5575 29.6826 41.7946 29.9991 40.9989 30L41.0012 32C42.3265 31.9985 43.5971 31.4714 44.5343 30.5342L43.1201 29.12ZM41 23C40.2089 23 39.4356 23.2346 38.7778 23.6741L39.8889 25.3371C40.2178 25.1173 40.6045 25 41 25V23ZM38.7778 23.6741C38.12 24.1136 37.6073 24.7384 37.3045 25.4693L39.1523 26.2346C39.3036 25.8692 39.56 25.5568 39.8889 25.3371L38.7778 23.6741ZM37.3045 25.4693C37.0017 26.2002 36.9225 27.0044 37.0769 27.7804L39.0384 27.3902C38.9613 27.0022 39.0009 26.6001 39.1523 26.2346L37.3045 25.4693ZM37.0769 27.7804C37.2312 28.5563 37.6122 29.269 38.1716 29.8284L39.5858 28.4142C39.3061 28.1345 39.1156 27.7781 39.0384 27.3902L37.0769 27.7804ZM38.1716 29.8284C38.731 30.3878 39.4438 30.7688 40.2197 30.9231L40.6099 28.9616C40.2219 28.8844 39.8655 28.6939 39.5858 28.4142L38.1716 29.8284ZM40.2197 30.9231C40.9956 31.0775 41.7999 30.9983 42.5308 30.6955L41.7654 28.8478C41.4 28.9991 40.9978 29.0387 40.6099 28.9616L40.2197 30.9231ZM42.5308 30.6955C43.2617 30.3928 43.8864 29.8801 44.326 29.2223L42.663 28.1111C42.4433 28.44 42.1309 28.6964 41.7654 28.8478L42.5308 30.6955ZM44.326 29.2223C44.7655 28.5645 45.0001 27.7911 45.0001 27H43.0001C43.0001 27.3956 42.8828 27.7822 42.663 28.1111L44.326 29.2223ZM45.0001 26.999C44.999 25.9387 44.5774 24.9222 43.8276 24.1724L42.4134 25.5867C42.7886 25.9618 42.9996 26.4705 43.0001 27.001L45.0001 26.999ZM43.8276 24.1724C43.0779 23.4227 42.0613 23.0011 41.001 23L40.9991 25C41.5296 25.0005 42.0383 25.2115 42.4134 25.5867L43.8276 24.1724ZM46.5003 32C46.6329 32 46.7601 32.0527 46.8538 32.1465L45.4394 33.5605C45.7206 33.8418 46.1021 33.9999 46.4999 34L46.5003 32ZM46.8537 32.1464L44.8537 30.1464L43.4395 31.5606L45.4395 33.5606L46.8537 32.1464ZM44.8659 30.1588C44.9569 30.2531 45.0073 30.3794 45.0062 30.5105L43.0063 30.4931C43.0029 30.8864 43.154 31.2653 43.4273 31.5482L44.8659 30.1588ZM45.0062 30.5105C45.0051 30.6416 44.9525 30.767 44.8598 30.8597L43.4456 29.4455C43.1674 29.7236 43.0097 30.0998 43.0063 30.4931L45.0062 30.5105ZM44.8598 30.8597C44.7671 30.9524 44.6417 31.005 44.5106 31.0061L44.4932 29.0062C44.0999 29.0096 43.7237 29.1674 43.4456 29.4455L44.8598 30.8597ZM44.5106 31.0061C44.3795 31.0073 44.2532 30.9569 44.1589 30.8658L45.5483 29.4272C45.2654 29.154 44.8865 29.0028 44.4932 29.0062L44.5106 31.0061ZM44.1465 30.8536L46.1465 32.8536L47.5607 31.4394L45.5607 29.4394L44.1465 30.8536ZM46.1464 32.8535C46.0765 32.7836 46.0289 32.6945 46.0096 32.5975L47.9712 32.2074C47.9133 31.9165 47.7705 31.6493 47.5608 31.4395L46.1464 32.8535ZM46.0096 32.5975C45.9903 32.5005 46.0002 32.4 46.0381 32.3087L47.8858 33.074C47.9993 32.7999 48.029 32.4984 47.9712 32.2074L46.0096 32.5975ZM46.0381 32.3087C46.0759 32.2173 46.14 32.1392 46.2222 32.0843L47.3335 33.7471C47.5801 33.5823 47.7723 33.348 47.8858 33.074L46.0381 32.3087ZM46.2222 32.0843C46.3044 32.0294 46.401 32 46.4999 32L46.5003 34C46.7969 33.9999 47.0869 33.9119 47.3335 33.7471L46.2222 32.0843Z" fill="#9CA3AF" mask="url(#path-4-inside-1_5594_5068)"/>
</g>
<rect x="57" y="25" width="66" height="6" rx="2" fill="#9CA3AF"/>
<path d="M223.5 24C223.5 19.8579 226.858 16.5 231 16.5H283C287.142 16.5 290.5 19.8579 290.5 24V32C290.5 36.1421 287.142 39.5 283 39.5H231C226.858 39.5 223.5 36.1421 223.5 32V24Z" fill="#6B7280"/>
<path d="M223.5 24C223.5 19.8579 226.858 16.5 231 16.5H283C287.142 16.5 290.5 19.8579 290.5 24V32C290.5 36.1421 287.142 39.5 283 39.5H231C226.858 39.5 223.5 36.1421 223.5 32V24Z" stroke="#9CA3AF"/>
<g clip-path="url(#clip2_5594_5068)">
<path d="M239 27.9998H235.8H239Z" fill="#9CA3AF"/>
<path d="M239 24.7998V27.9998M239 27.9998V31.1998M239 27.9998H242.2M239 27.9998H235.8" stroke="#9CA3AF" stroke-width="2" stroke-linecap="round" stroke-linejoin="round"/>
</g>
<rect x="251" y="25" width="28" height="6" rx="2" fill="#9CA3AF"/>
<path d="M299.5 24C299.5 19.8579 302.858 16.5 307 16.5H360C364.142 16.5 367.5 19.8579 367.5 24V32C367.5 36.1421 364.142 39.5 360 39.5H307C302.858 39.5 299.5 36.1421 299.5 32V24Z" fill="#6B7280"/>
<path d="M299.5 24C299.5 19.8579 302.858 16.5 307 16.5H360C364.142 16.5 367.5 19.8579 367.5 24V32C367.5 36.1421 364.142 39.5 360 39.5H307C302.858 39.5 299.5 36.1421 299.5 32V24Z" stroke="#9CA3AF"/>
<g clip-path="url(#clip3_5594_5068)">
<path d="M317.226 24.3106L316.587 24.9851L318.057 26.5378L318.695 25.8633C318.792 25.7614 318.869 25.6403 318.921 25.5071C318.973 25.3739 319 25.2312 319 25.087C319 24.9428 318.973 24.8 318.921 24.6668C318.869 24.5336 318.792 24.4125 318.695 24.3106C318.497 24.1112 318.234 24 317.961 24C317.687 24 317.424 24.1112 317.226 24.3106Z" fill="#9CA3AF"/>
<path d="M317.469 27.1587L315.999 25.606L314.035 27.6791C313.977 27.7403 313.937 27.8184 313.921 27.9035L313.702 29.068C313.689 29.1389 313.692 29.2122 313.712 29.2815C313.732 29.3507 313.768 29.4137 313.816 29.4648C313.864 29.5159 313.924 29.5536 313.99 29.5746C314.055 29.5955 314.125 29.5991 314.192 29.5848L315.294 29.3521C315.375 29.335 315.448 29.2931 315.506 29.2318L317.469 27.1587Z" fill="#9CA3AF"/>
<path d="M314.035 27.6791C313.977 27.7403 313.937 27.8184 313.921 27.9035L313.702 29.068C313.689 29.1389 313.692 29.2122 313.712 29.2815C313.732 29.3507 313.768 29.4137 313.816 29.4648C313.864 29.5159 313.924 29.5536 313.99 29.5746C314.055 29.5955 314.125 29.5991 314.192 29.5848L315.294 29.3521C315.375 29.335 315.448 29.2931 315.506 29.2318L317.469 27.1587L315.999 25.606L314.035 27.6791Z" fill="#9CA3AF"/>
<path d="M315.903 29.7447C315.787 29.8672 315.639 29.9507 315.478 29.9849L314.008 30.2953C313.874 30.3237 313.735 30.3165 313.604 30.2746C313.473 30.2327 313.354 30.1573 313.257 30.0551C313.16 29.9529 313.089 29.8271 313.049 29.6887C313.01 29.5504 313.003 29.4038 313.03 29.2621L313.324 27.7094C313.356 27.5394 313.435 27.3833 313.551 27.2606L315.596 25.1001C315.585 25.0592 315.579 25.0168 315.579 24.9741H311.901C311.662 24.9743 311.433 25.0747 311.264 25.2531C311.095 25.4315 311 25.6734 311 25.9257V31.0484C311 31.3007 311.095 31.5426 311.264 31.721C311.433 31.8994 311.662 31.9998 311.901 32H316.751C316.99 31.9998 317.219 31.8994 317.388 31.721C317.557 31.5426 317.652 31.3007 317.652 31.0484V27.8973L315.903 29.7447Z" fill="#9CA3AF"/>
</g>
<rect x="327" y="25" width="29" height="6" rx="2" fill="#9CA3AF"/>
<line x1="6" y1="53.5" x2="392" y2="53.5" stroke="#6B7280"/>
<rect x="27" y="70" width="57" height="10" rx="2" fill="#6B7280"/>
<rect x="199" y="70" width="50" height="10" rx="2" fill="#6B7280"/>
<rect x="318" y="70" width="50" height="10" rx="2" fill="#6B7280"/>
<line x1="6" y1="95.5" x2="392" y2="95.5" stroke="#6B7280"/>
<rect x="27" y="112" width="103" height="10" rx="2" fill="#6B7280"/>
<rect x="199" y="112" width="50" height="10" rx="2" fill="#6B7280"/>
<rect x="318" y="112" width="50" height="10" rx="2" fill="#6B7280"/>
<line x1="6" y1="137.5" x2="392" y2="137.5" stroke="#6B7280"/>
<rect x="27" y="154" width="78" height="10" rx="2" fill="#6B7280"/>
<rect x="199" y="154" width="50" height="10" rx="2" fill="#6B7280"/>
<rect x="318" y="154" width="50" height="10" rx="2" fill="#6B7280"/>
<line x1="6" y1="179.5" x2="392" y2="179.5" stroke="#6B7280"/>
<rect x="27" y="196" width="53" height="10" rx="2" fill="#6B7280"/>
<rect x="199" y="196" width="50" height="10" rx="2" fill="#6B7280"/>
<rect x="318" y="196" width="50" height="10" rx="2" fill="#6B7280"/>
</g>
<rect x="6.5" y="2.5" width="385" height="219" rx="7.5" stroke="#4B5563"/>
</g>
<defs>
<filter id="filter0_dd_5594_5068" x="0" y="0" width="398" height="232" filterUnits="userSpaceOnUse" color-interpolation-filters="sRGB">
<feFlood flood-opacity="0" result="BackgroundImageFix"/>
<feColorMatrix in="SourceAlpha" type="matrix" values="0 0 0 0 0 0 0 0 0 0 0 0 0 0 0 0 0 0 127 0" result="hardAlpha"/>
<feOffset dy="4"/>
<feGaussianBlur stdDeviation="3"/>
<feColorMatrix type="matrix" values="0 0 0 0 0 0 0 0 0 0 0 0 0 0 0 0 0 0 0.1 0"/>
<feBlend mode="normal" in2="BackgroundImageFix" result="effect1_dropShadow_5594_5068"/>
<feColorMatrix in="SourceAlpha" type="matrix" values="0 0 0 0 0 0 0 0 0 0 0 0 0 0 0 0 0 0 127 0" result="hardAlpha"/>
<feOffset dy="2"/>
<feGaussianBlur stdDeviation="2"/>
<feColorMatrix type="matrix" values="0 0 0 0 0 0 0 0 0 0 0 0 0 0 0 0 0 0 0.06 0"/>
<feBlend mode="normal" in2="effect1_dropShadow_5594_5068" result="effect2_dropShadow_5594_5068"/>
<feBlend mode="normal" in="SourceGraphic" in2="effect2_dropShadow_5594_5068" result="shape"/>
</filter>
<clipPath id="clip0_5594_5068">
<rect x="6" y="2" width="386" height="220" rx="8" fill="white"/>
</clipPath>
<clipPath id="clip1_5594_5068">
<rect width="10" height="10" fill="white" transform="translate(37 23)"/>
</clipPath>
<clipPath id="clip2_5594_5068">
<rect width="8" height="8" fill="white" transform="translate(235 24)"/>
</clipPath>
<clipPath id="clip3_5594_5068">
<rect width="8" height="8" fill="white" transform="translate(311 24)"/>
</clipPath>
</defs>
</svg>
