<svg width="331" height="164" viewBox="0 0 331 164" fill="none" xmlns="http://www.w3.org/2000/svg">
<rect x="0.75" y="0.75" width="329.5" height="162.5" fill="#1F2A37"/>
<rect x="23.25" y="34.25" width="92.5" height="9.7969" rx="4.89845" fill="#233876"/>
<rect x="27" y="38" width="3.23229" height="2.2969" rx="1" fill="#76A9FA"/>
<rect x="34.2323" y="38" width="70.2557" height="2.2969" rx="1" fill="#76A9FA"/>
<rect x="23.25" y="34.25" width="92.5" height="9.7969" rx="4.89845" stroke="#1E429F" stroke-width="0.5"/>
<rect x="23" y="58.2969" width="160" height="9" rx="4.5" fill="#9CA3AF"/>
<rect x="23" y="76.2969" width="285" height="6" rx="3" fill="#6B7280"/>
<rect x="23" y="88.2969" width="233" height="6" rx="3" fill="#6B7280"/>
<rect x="23" y="114.297" width="65" height="16" rx="2" fill="#1A56DB"/>
<rect x="39" y="120.297" width="33" height="4" rx="1" fill="white"/>
<rect x="111" y="120.297" width="33" height="4" rx="1" fill="#6B7280"/>
<rect x="95" y="114.297" width="65" height="16" rx="2" stroke="#6B7280"/>
<rect x="0.75" y="0.75" width="329.5" height="162.5" stroke="#374151" stroke-width="0.5"/>
</svg>
