<svg width="410" height="240" viewBox="0 0 410 240" fill="none" xmlns="http://www.w3.org/2000/svg">
<g filter="url(#filter0_dd_4814_4876)">
<path d="M52 71C52 66.5817 55.5817 63 60 63H350C354.418 63 358 66.5817 358 71V90C358 94.4183 354.418 98 350 98H60C55.5817 98 52 94.4183 52 90V71Z" fill="#374151"/>
<path d="M52.5 71C52.5 66.8579 55.8579 63.5 60 63.5H350C354.142 63.5 357.5 66.8579 357.5 71V90C357.5 94.1421 354.142 97.5 350 97.5H60C55.8579 97.5 52.5 94.1421 52.5 90V71Z" stroke="#4B5563"/>
<rect x="70" y="77" width="34" height="6" rx="2" fill="#9CA3AF"/>
<rect x="110" y="77" width="34" height="6" rx="2" fill="#9CA3AF"/>
<rect x="150" y="77" width="34" height="6" rx="2" fill="#9CA3AF"/>
<rect x="190" y="77" width="34" height="6" rx="2" fill="#9CA3AF"/>
<path d="M328.02 75.02C325.619 75.02 323.474 76.265 323.474 78.5651C323.474 81.203 327.279 81.3852 327.279 82.7103C327.279 83.2683 326.639 83.7678 325.548 83.7678C323.999 83.7678 322.841 83.0699 322.841 83.0699L322.346 85.391C322.346 85.391 323.68 85.9805 325.45 85.9805C328.075 85.9805 330.14 84.6744 330.14 82.335C330.14 79.5476 326.32 79.3708 326.32 78.1409C326.32 77.7037 326.844 77.2248 327.932 77.2248C329.16 77.2248 330.162 77.7324 330.162 77.7324L330.647 75.4906C330.647 75.4906 329.557 75.02 328.02 75.02ZM306.058 75.1892L306 75.5276C306 75.5276 307.01 75.7125 307.919 76.0815C309.09 76.5045 309.174 76.7507 309.371 77.5156L311.52 85.8061H314.402L318.84 75.1892H315.966L313.114 82.4077L311.95 76.289C311.843 75.5887 311.302 75.1892 310.641 75.1892H306.058ZM319.996 75.1892L317.741 85.806H320.482L322.729 75.1892H319.996V75.1892ZM335.284 75.1892C334.623 75.1892 334.273 75.5433 334.016 76.1621L330 85.806H332.874L333.43 84.1987H336.932L337.271 85.806H339.807L337.594 75.1892H335.284ZM335.658 78.0576L336.51 82.0415H334.227L335.658 78.0576Z" fill="#9CA3AF"/>
</g>
<rect x="52" y="122" width="201" height="35" rx="8" fill="#374151"/>
<g filter="url(#filter1_dd_4814_4876)">
<path d="M52 130C52 125.582 55.5817 122 60 122H245C249.418 122 253 125.582 253 130V149C253 153.418 249.418 157 245 157H60C55.5817 157 52 153.418 52 149V130Z" fill="#374151"/>
<path d="M52.5 130C52.5 125.858 55.8579 122.5 60 122.5H245C249.142 122.5 252.5 125.858 252.5 130V149C252.5 153.142 249.142 156.5 245 156.5H60C55.8579 156.5 52.5 153.142 52.5 149V130Z" stroke="#4B5563"/>
<path d="M80.8 134.7H79.6V134.1C79.6 133.941 79.5368 133.788 79.4243 133.676C79.3117 133.563 79.1591 133.5 79 133.5C78.8409 133.5 78.6883 133.563 78.5757 133.676C78.4632 133.788 78.4 133.941 78.4 134.1V134.7H76.6V134.1C76.6 133.941 76.5368 133.788 76.4243 133.676C76.3117 133.563 76.1591 133.5 76 133.5C75.8409 133.5 75.6883 133.563 75.5757 133.676C75.4632 133.788 75.4 133.941 75.4 134.1V134.7H73.6V134.1C73.6 133.941 73.5368 133.788 73.4243 133.676C73.3117 133.563 73.1591 133.5 73 133.5C72.8409 133.5 72.6883 133.563 72.5757 133.676C72.4632 133.788 72.4 133.941 72.4 134.1V134.7H71.2C70.8817 134.7 70.5765 134.826 70.3515 135.051C70.1264 135.277 70 135.582 70 135.9V144.3C70 144.618 70.1264 144.923 70.3515 145.149C70.5765 145.374 70.8817 145.5 71.2 145.5H80.8C81.1183 145.5 81.4235 145.374 81.6485 145.149C81.8736 144.923 82 144.618 82 144.3V135.9C82 135.582 81.8736 135.277 81.6485 135.051C81.4235 134.826 81.1183 134.7 80.8 134.7ZM72.4 135.9C72.4 136.059 72.4632 136.212 72.5757 136.324C72.6883 136.437 72.8409 136.5 73 136.5C73.1591 136.5 73.3117 136.437 73.4243 136.324C73.5368 136.212 73.6 136.059 73.6 135.9H75.4C75.4 136.059 75.4632 136.212 75.5757 136.324C75.6883 136.437 75.8409 136.5 76 136.5C76.1591 136.5 76.3117 136.437 76.4243 136.324C76.5368 136.212 76.6 136.059 76.6 135.9H78.4C78.4 136.059 78.4632 136.212 78.5757 136.324C78.6883 136.437 78.8409 136.5 79 136.5C79.1591 136.5 79.3117 136.437 79.4243 136.324C79.5368 136.212 79.6 136.059 79.6 135.9H80.8V137.1H71.2V135.9H72.4ZM71.2 144.3V138.3H80.8V144.3H71.2Z" fill="#9CA3AF"/>
<path d="M73.3 139.5H72.7C72.5343 139.5 72.4 139.634 72.4 139.8V140.4C72.4 140.566 72.5343 140.7 72.7 140.7H73.3C73.4657 140.7 73.6 140.566 73.6 140.4V139.8C73.6 139.634 73.4657 139.5 73.3 139.5Z" fill="#9CA3AF"/>
<path d="M73.3 141.9H72.7C72.5343 141.9 72.4 142.034 72.4 142.2V142.8C72.4 142.966 72.5343 143.1 72.7 143.1H73.3C73.4657 143.1 73.6 142.966 73.6 142.8V142.2C73.6 142.034 73.4657 141.9 73.3 141.9Z" fill="#9CA3AF"/>
<path d="M76.3 139.5H75.7C75.5343 139.5 75.4 139.634 75.4 139.8V140.4C75.4 140.566 75.5343 140.7 75.7 140.7H76.3C76.4657 140.7 76.6 140.566 76.6 140.4V139.8C76.6 139.634 76.4657 139.5 76.3 139.5Z" fill="#9CA3AF"/>
<path d="M76.3 141.9H75.7C75.5343 141.9 75.4 142.034 75.4 142.2V142.8C75.4 142.966 75.5343 143.1 75.7 143.1H76.3C76.4657 143.1 76.6 142.966 76.6 142.8V142.2C76.6 142.034 76.4657 141.9 76.3 141.9Z" fill="#9CA3AF"/>
<path d="M79.3 139.5H78.7C78.5343 139.5 78.4 139.634 78.4 139.8V140.4C78.4 140.566 78.5343 140.7 78.7 140.7H79.3C79.4657 140.7 79.6 140.566 79.6 140.4V139.8C79.6 139.634 79.4657 139.5 79.3 139.5Z" fill="#9CA3AF"/>
<path d="M79.3 141.9H78.7C78.5343 141.9 78.4 142.034 78.4 142.2V142.8C78.4 142.966 78.5343 143.1 78.7 143.1H79.3C79.4657 143.1 79.6 142.966 79.6 142.8V142.2C79.6 142.034 79.4657 141.9 79.3 141.9Z" fill="#9CA3AF"/>
<rect x="90" y="136.5" width="40" height="6" rx="2" fill="#9CA3AF"/>
<path d="M142.355 134.864L139.543 145.312H138.192L141.004 134.864H142.355Z" fill="#6B7280"/>
<rect x="151" y="136.5" width="40" height="6" rx="2" fill="#9CA3AF"/>
</g>
<rect x="277" y="122" width="81" height="35" rx="8" fill="#374151"/>
<g filter="url(#filter2_dd_4814_4876)">
<path d="M277 130C277 125.582 280.582 122 285 122H350C354.418 122 358 125.582 358 130V149C358 153.418 354.418 157 350 157H285C280.582 157 277 153.418 277 149V130Z" fill="#374151"/>
<path d="M277.5 130C277.5 125.858 280.858 122.5 285 122.5H350C354.142 122.5 357.5 125.858 357.5 130V149C357.5 153.142 354.142 156.5 350 156.5H285C280.858 156.5 277.5 153.142 277.5 149V130Z" stroke="#4B5563"/>
<path d="M303.331 138.217H301.737C301.692 137.956 301.608 137.724 301.486 137.523C301.364 137.318 301.212 137.145 301.03 137.003C300.848 136.861 300.641 136.754 300.408 136.683C300.178 136.609 299.929 136.572 299.662 136.572C299.188 136.572 298.767 136.692 298.401 136.93C298.034 137.166 297.747 137.513 297.54 137.97C297.332 138.425 297.229 138.98 297.229 139.636C297.229 140.304 297.332 140.866 297.54 141.324C297.75 141.778 298.037 142.122 298.401 142.355C298.767 142.585 299.186 142.7 299.658 142.7C299.919 142.7 300.163 142.666 300.391 142.598C300.621 142.527 300.827 142.423 301.009 142.287C301.193 142.151 301.348 141.983 301.473 141.784C301.601 141.585 301.689 141.358 301.737 141.102L303.331 141.111C303.271 141.526 303.142 141.915 302.943 142.278C302.747 142.642 302.49 142.963 302.172 143.241C301.854 143.517 301.482 143.733 301.055 143.889C300.629 144.043 300.156 144.119 299.636 144.119C298.869 144.119 298.185 143.942 297.582 143.587C296.98 143.232 296.506 142.719 296.159 142.048C295.813 141.378 295.639 140.574 295.639 139.636C295.639 138.696 295.814 137.892 296.163 137.224C296.513 136.554 296.989 136.041 297.591 135.686C298.193 135.331 298.875 135.153 299.636 135.153C300.122 135.153 300.574 135.222 300.991 135.358C301.409 135.494 301.781 135.695 302.108 135.959C302.435 136.22 302.703 136.541 302.913 136.922C303.126 137.3 303.266 137.732 303.331 138.217ZM305.946 135.273L308.218 142.142H308.307L310.574 135.273H312.313L309.236 144H307.284L304.212 135.273H305.946ZM314.63 135.273L316.901 142.142H316.991L319.258 135.273H320.996L317.92 144H315.968L312.896 135.273H314.63Z" fill="#9CA3AF"/>
</g>
<rect x="52" y="171" width="216" height="7" rx="3.5" fill="#6B7280"/>
<defs>
<filter id="filter0_dd_4814_4876" x="46" y="61" width="318" height="47" filterUnits="userSpaceOnUse" color-interpolation-filters="sRGB">
<feFlood flood-opacity="0" result="BackgroundImageFix"/>
<feColorMatrix in="SourceAlpha" type="matrix" values="0 0 0 0 0 0 0 0 0 0 0 0 0 0 0 0 0 0 127 0" result="hardAlpha"/>
<feOffset dy="4"/>
<feGaussianBlur stdDeviation="3"/>
<feColorMatrix type="matrix" values="0 0 0 0 0 0 0 0 0 0 0 0 0 0 0 0 0 0 0.1 0"/>
<feBlend mode="normal" in2="BackgroundImageFix" result="effect1_dropShadow_4814_4876"/>
<feColorMatrix in="SourceAlpha" type="matrix" values="0 0 0 0 0 0 0 0 0 0 0 0 0 0 0 0 0 0 127 0" result="hardAlpha"/>
<feOffset dy="2"/>
<feGaussianBlur stdDeviation="2"/>
<feColorMatrix type="matrix" values="0 0 0 0 0 0 0 0 0 0 0 0 0 0 0 0 0 0 0.06 0"/>
<feBlend mode="normal" in2="effect1_dropShadow_4814_4876" result="effect2_dropShadow_4814_4876"/>
<feBlend mode="normal" in="SourceGraphic" in2="effect2_dropShadow_4814_4876" result="shape"/>
</filter>
<filter id="filter1_dd_4814_4876" x="46" y="120" width="213" height="47" filterUnits="userSpaceOnUse" color-interpolation-filters="sRGB">
<feFlood flood-opacity="0" result="BackgroundImageFix"/>
<feColorMatrix in="SourceAlpha" type="matrix" values="0 0 0 0 0 0 0 0 0 0 0 0 0 0 0 0 0 0 127 0" result="hardAlpha"/>
<feOffset dy="4"/>
<feGaussianBlur stdDeviation="3"/>
<feColorMatrix type="matrix" values="0 0 0 0 0 0 0 0 0 0 0 0 0 0 0 0 0 0 0.1 0"/>
<feBlend mode="normal" in2="BackgroundImageFix" result="effect1_dropShadow_4814_4876"/>
<feColorMatrix in="SourceAlpha" type="matrix" values="0 0 0 0 0 0 0 0 0 0 0 0 0 0 0 0 0 0 127 0" result="hardAlpha"/>
<feOffset dy="2"/>
<feGaussianBlur stdDeviation="2"/>
<feColorMatrix type="matrix" values="0 0 0 0 0 0 0 0 0 0 0 0 0 0 0 0 0 0 0.06 0"/>
<feBlend mode="normal" in2="effect1_dropShadow_4814_4876" result="effect2_dropShadow_4814_4876"/>
<feBlend mode="normal" in="SourceGraphic" in2="effect2_dropShadow_4814_4876" result="shape"/>
</filter>
<filter id="filter2_dd_4814_4876" x="271" y="120" width="93" height="47" filterUnits="userSpaceOnUse" color-interpolation-filters="sRGB">
<feFlood flood-opacity="0" result="BackgroundImageFix"/>
<feColorMatrix in="SourceAlpha" type="matrix" values="0 0 0 0 0 0 0 0 0 0 0 0 0 0 0 0 0 0 127 0" result="hardAlpha"/>
<feOffset dy="4"/>
<feGaussianBlur stdDeviation="3"/>
<feColorMatrix type="matrix" values="0 0 0 0 0 0 0 0 0 0 0 0 0 0 0 0 0 0 0.1 0"/>
<feBlend mode="normal" in2="BackgroundImageFix" result="effect1_dropShadow_4814_4876"/>
<feColorMatrix in="SourceAlpha" type="matrix" values="0 0 0 0 0 0 0 0 0 0 0 0 0 0 0 0 0 0 127 0" result="hardAlpha"/>
<feOffset dy="2"/>
<feGaussianBlur stdDeviation="2"/>
<feColorMatrix type="matrix" values="0 0 0 0 0 0 0 0 0 0 0 0 0 0 0 0 0 0 0.06 0"/>
<feBlend mode="normal" in2="effect1_dropShadow_4814_4876" result="effect2_dropShadow_4814_4876"/>
<feBlend mode="normal" in="SourceGraphic" in2="effect2_dropShadow_4814_4876" result="shape"/>
</filter>
</defs>
</svg>
