<svg width="350" height="230" viewBox="0 0 350 230" fill="none" xmlns="http://www.w3.org/2000/svg">
<rect x="5" y="79" width="48" height="48" rx="24" fill="#1E429F"/>
<path fill-rule="evenodd" clip-rule="evenodd" d="M38.8898 96.4099C39.1522 96.6724 39.2997 97.0285 39.2997 97.3997C39.2997 97.7709 39.1522 98.127 38.8898 98.3895L27.6898 109.59C27.4272 109.852 27.0712 109.999 26.7 109.999C26.3287 109.999 25.9727 109.852 25.7102 109.59L20.1102 103.99C19.8551 103.725 19.714 103.372 19.7172 103.005C19.7204 102.638 19.8676 102.287 20.1272 102.027C20.3868 101.767 20.7379 101.62 21.105 101.617C21.4721 101.614 21.8257 101.755 22.0898 102.01L26.7 106.62L36.9102 96.4099C37.1727 96.1474 37.5287 96 37.9 96C38.2712 96 38.6272 96.1474 38.8898 96.4099Z" fill="#A4CAFE"/>
<path d="M52 100H152V106H52V100Z" fill="#1E429F"/>
<rect x="151" y="79" width="48" height="48" rx="24" fill="#374151"/>
<path fill-rule="evenodd" clip-rule="evenodd" d="M175.5 91.7998C175.129 91.7998 174.773 91.9473 174.51 92.2099C174.247 92.4724 174.1 92.8285 174.1 93.1998V94.5998C174.1 94.9711 174.247 95.3272 174.51 95.5898C174.773 95.8523 175.129 95.9998 175.5 95.9998C175.871 95.9998 176.227 95.8523 176.49 95.5898C176.752 95.3272 176.9 94.9711 176.9 94.5998V93.1998C176.9 92.8285 176.752 92.4724 176.49 92.2099C176.227 91.9473 175.871 91.7998 175.5 91.7998ZM167.1 94.5998H171.3C171.3 95.7137 171.742 96.782 172.53 97.5697C173.318 98.3573 174.386 98.7998 175.5 98.7998C176.614 98.7998 177.682 98.3573 178.47 97.5697C179.257 96.782 179.7 95.7137 179.7 94.5998H183.9C184.643 94.5998 185.355 94.8948 185.88 95.4199C186.405 95.945 186.7 96.6572 186.7 97.3998V110C186.7 110.742 186.405 111.455 185.88 111.98C185.355 112.505 184.643 112.8 183.9 112.8H167.1C166.357 112.8 165.645 112.505 165.12 111.98C164.595 111.455 164.3 110.742 164.3 110V97.3998C164.3 96.6572 164.595 95.945 165.12 95.4199C165.645 94.8948 166.357 94.5998 167.1 94.5998ZM170.6 104.4C171.157 104.4 171.691 104.179 172.085 103.785C172.479 103.391 172.7 102.857 172.7 102.3C172.7 101.743 172.479 101.209 172.085 100.815C171.691 100.421 171.157 100.2 170.6 100.2C170.043 100.2 169.509 100.421 169.115 100.815C168.721 101.209 168.5 101.743 168.5 102.3C168.5 102.857 168.721 103.391 169.115 103.785C169.509 104.179 170.043 104.4 170.6 104.4ZM174.03 110C174.133 109.491 174.122 108.967 173.998 108.463C173.873 107.96 173.638 107.49 173.31 107.088C172.982 106.687 172.568 106.363 172.1 106.141C171.631 105.919 171.119 105.803 170.6 105.803C170.081 105.803 169.569 105.919 169.1 106.141C168.632 106.363 168.218 106.687 167.89 107.088C167.562 107.49 167.327 107.96 167.202 108.463C167.078 108.967 167.067 109.491 167.17 110H174.03ZM178.3 101.6C177.929 101.6 177.573 101.747 177.31 102.01C177.047 102.272 176.9 102.629 176.9 103C176.9 103.371 177.047 103.727 177.31 103.99C177.573 104.252 177.929 104.4 178.3 104.4H182.5C182.871 104.4 183.227 104.252 183.49 103.99C183.752 103.727 183.9 103.371 183.9 103C183.9 102.629 183.752 102.272 183.49 102.01C183.227 101.747 182.871 101.6 182.5 101.6H178.3ZM176.9 107.2C176.9 106.829 177.047 106.472 177.31 106.21C177.573 105.947 177.929 105.8 178.3 105.8H181.1C181.471 105.8 181.827 105.947 182.09 106.21C182.352 106.472 182.5 106.829 182.5 107.2C182.5 107.571 182.352 107.927 182.09 108.19C181.827 108.452 181.471 108.6 181.1 108.6H178.3C177.929 108.6 177.573 108.452 177.31 108.19C177.047 107.927 176.9 107.571 176.9 107.2Z" fill="#9CA3AF"/>
<path d="M198 100H298V106H198V100Z" fill="#374151"/>
<rect x="297" y="79" width="48" height="48" rx="24" fill="#374151"/>
<path fill-rule="evenodd" clip-rule="evenodd" d="M310.532 95.9987C314.586 95.9483 318.483 94.4285 321.5 91.7217C324.517 94.429 328.414 95.9493 332.468 96.0001C332.622 96.9101 332.7 97.8481 332.7 98.8015C332.7 106.116 328.024 112.339 321.5 114.645C314.976 112.338 310.3 106.115 310.3 98.8001C310.3 97.8453 310.38 96.9101 310.532 95.9987ZM326.69 101.19C326.945 100.926 327.086 100.572 327.083 100.205C327.08 99.838 326.932 99.4869 326.673 99.2273C326.413 98.9678 326.062 98.8205 325.695 98.8173C325.328 98.8141 324.974 98.9553 324.71 99.2103L320.1 103.82L318.29 102.01C318.026 101.755 317.672 101.614 317.305 101.617C316.938 101.621 316.587 101.768 316.327 102.027C316.068 102.287 315.92 102.638 315.917 103.005C315.914 103.372 316.055 103.726 316.31 103.99L319.11 106.79C319.373 107.052 319.729 107.2 320.1 107.2C320.471 107.2 320.827 107.052 321.09 106.79L326.69 101.19Z" fill="#9CA3AF"/>
</svg>
