<svg width="350" height="199" viewBox="0 0 350 199" fill="none" xmlns="http://www.w3.org/2000/svg">
<rect x="0.5" y="0.5" width="349" height="198" rx="8.5" fill="#111928"/>
<rect x="0.5" y="0.5" width="349" height="198" rx="8.5" stroke="#374151"/>
<path d="M1 9C1 4.58172 4.58172 1 9 1H341C345.418 1 349 4.58172 349 9V39H1V9Z" fill="#1F2A37"/>
<path d="M23 14.75H26.375C27.0712 14.75 27.7389 15.0266 28.2312 15.5188C28.7234 16.0111 29 16.6788 29 17.375C29 18.0712 28.7234 18.7389 28.2312 19.2312C27.7389 19.7234 27.0712 20 26.375 20H23M23 14.75V20M23 14.75H21.5M23 20H27.875C28.5712 20 29.2389 20.2766 29.7312 20.7688C30.2234 21.2611 30.5 21.9288 30.5 22.625C30.5 23.3212 30.2234 23.9889 29.7312 24.4812C29.2389 24.9734 28.5712 25.25 27.875 25.25H23M23 20V25.25M23 25.25H21.5" stroke="#6B7280" stroke-width="1.6" stroke-linecap="round" stroke-linejoin="round"/>
<path d="M53.6555 25.25L58.2628 14.75M51.5 25.25H56.2475M55.7525 14.75H60.5" stroke="#6B7280" stroke-width="1.6" stroke-linecap="round" stroke-linejoin="round"/>
<path d="M81 25H90M82.5 14.5V21.25C82.5 22.9069 83.8431 24.25 85.5 24.25C87.1569 24.25 88.5 22.9069 88.5 21.25V14.5M81 14.5H84M87 14.5H90" stroke="#6B7280" stroke-width="1.6" stroke-linecap="round"/>
<path d="M113 15.5H119M111.5 18.5H120.5M113 21.5H119M111.5 24.5H120.5" stroke="#6B7280" stroke-width="1.6" stroke-linecap="round" stroke-linejoin="round"/>
<path d="M144.5 19.25V17C144.5 16.5858 144.164 16.25 143.75 16.25H141.5C141.086 16.25 140.75 16.5858 140.75 17V19.25C140.75 19.6642 141.086 20 141.5 20H143.75C144.164 20 144.5 19.6642 144.5 19.25ZM144.5 19.25V20.75C144.5 21.5456 144.184 22.3087 143.621 22.8713C143.059 23.4339 142.296 23.75 141.5 23.75H140.75M151.25 19.25V17C151.25 16.5858 150.914 16.25 150.5 16.25H148.25C147.836 16.25 147.5 16.5858 147.5 17V19.25C147.5 19.6642 147.836 20 148.25 20H150.5C150.914 20 151.25 19.6642 151.25 19.25ZM151.25 19.25V20.75C151.25 21.5456 150.934 22.3087 150.371 22.8713C149.809 23.4339 149.046 23.75 148.25 23.75H147.5" stroke="#6B7280" stroke-width="1.6" stroke-linecap="round" stroke-linejoin="round"/>
<path d="M173.75 17H181.25M173.75 20H181.25M173.75 23H181.25M170.743 17H170.75M170.735 20H170.743M170.743 23H170.75" stroke="#6B7280" stroke-width="1.6" stroke-linecap="round"/>
<path d="M205 15.25H210M205 19H210M205 22.75H210M200 21.5C200 21.291 200.052 21.0853 200.152 20.9017C200.252 20.7181 200.396 20.5625 200.572 20.4491C200.747 20.3357 200.948 20.2681 201.157 20.2525C201.365 20.2369 201.574 20.2738 201.765 20.3598C201.955 20.4458 202.121 20.5782 202.247 20.7449C202.373 20.9116 202.455 21.1072 202.486 21.3139C202.517 21.5206 202.496 21.7317 202.424 21.928C202.352 22.1243 202.233 22.2995 202.076 22.4375L200 24H203.125M200 14.625L201.25 14V17.75M200 17.75H202.5" stroke="#6B7280" stroke-width="1.6" stroke-linecap="round" stroke-linejoin="round"/>
<path d="M232.107 15.5643V14.75H240.25V15.5643M232.107 24.25H236.179M236.314 14.75L235.176 19.1761M233.871 24.25L234.569 21.5357M230.75 14.75L235.176 19.1761M240.25 24.25L235.176 19.1761" stroke="#6B7280" stroke-width="1.6" stroke-linecap="round" stroke-linejoin="round"/>
<rect width="348" height="30" transform="translate(1 39)" fill="#1F2A37"/>
<rect x="17.25" y="39.75" width="75.916" height="18.5" rx="3.75" fill="#374151"/>
<rect x="17.25" y="39.75" width="75.916" height="18.5" rx="3.75" stroke="#4B5563" stroke-width="0.5"/>
<rect x="27" y="46" width="40.416" height="6" rx="2" fill="#9CA3AF"/>
<path d="M79.9161 50.088L79.5626 49.7344L77.4222 47.594C77.4222 47.594 77.4221 47.594 77.4221 47.594C77.394 47.5659 77.3559 47.5501 77.3161 47.5501C77.2764 47.5501 77.2383 47.5659 77.2102 47.5939C77.2101 47.594 77.2101 47.594 77.2101 47.594M79.9161 50.088L76.8566 48.1595C76.7347 48.0376 76.6663 47.8723 76.6663 47.7C76.6663 47.5276 76.7347 47.3623 76.8566 47.2404L77.2101 47.594M79.9161 50.088L80.2697 49.7344L82.4101 47.594L82.4102 47.594L82.4162 47.5878C82.4301 47.5735 82.4466 47.562 82.4649 47.5542L82.2681 47.0961L82.4649 47.5542C82.4832 47.5463 82.5029 47.5422 82.5228 47.542C82.5427 47.5418 82.5625 47.5456 82.5809 47.5532C82.5993 47.5607 82.6161 47.5718 82.6302 47.5859C82.6443 47.6 82.6554 47.6168 82.6629 47.6352C82.6705 47.6536 82.6743 47.6734 82.6741 47.6933C82.6739 47.7132 82.6698 47.7329 82.6619 47.7512C82.6541 47.7695 82.6426 47.786 82.6283 47.7999L82.6283 47.7998L82.6221 47.806L80.0222 50.4059C79.994 50.434 79.9559 50.4498 79.9161 50.4498C79.8763 50.4498 79.8382 50.434 79.8101 50.4059M79.9161 50.088L79.8101 50.4059M77.2101 47.594C77.182 47.6222 77.1663 47.6603 77.1663 47.7C77.1663 47.7397 77.182 47.7779 77.2101 47.806C77.2101 47.806 77.2102 47.806 77.2102 47.806L79.8101 50.4059M77.2101 47.594L79.8101 50.4059" fill="black" stroke="#9CA3AF"/>
<line x1="113.916" y1="39" x2="113.916" y2="59" stroke="#4B5563"/>
<path d="M148.416 44L138.416 44M148.416 47.3333H138.416M148.416 50.6667H138.416M148.416 54H138.416" stroke="#6B7280" stroke-width="2" stroke-linecap="round" stroke-linejoin="round"/>
<path d="M170.416 44H177.083M170.416 47.3333H180.416M170.416 50.6667H177.083M170.416 54H180.416" stroke="#6B7280" stroke-width="2" stroke-linecap="round" stroke-linejoin="round"/>
<path d="M212.416 44H205.749M212.416 47.3333H202.416M212.416 50.6667H205.749M212.416 54H202.416" stroke="#6B7280" stroke-width="2" stroke-linecap="round" stroke-linejoin="round"/>
<path d="M239.57 47.2577C239.056 46.7572 238.358 46.476 237.631 46.476C236.903 46.476 236.205 46.7572 235.691 47.2577L232.919 49.9551C232.405 50.4558 232.116 51.135 232.116 51.8431C232.116 52.5512 232.405 53.2303 232.919 53.731C233.434 54.2315 234.132 54.5127 234.859 54.5127C235.587 54.5127 236.284 54.2315 236.799 53.731L237.059 53.4914M236.799 49.9551C237.313 50.4558 238.011 50.7371 238.739 50.7371C239.466 50.7371 240.164 50.4558 240.679 49.9551L243.449 47.2577C243.964 46.757 244.253 46.0779 244.253 45.3697C244.253 44.6616 243.964 43.9825 243.449 43.4818C242.935 42.9813 242.237 42.7002 241.51 42.7002C240.782 42.7002 240.085 42.9813 239.57 43.4818L238.739 44.2383M244.716 55.3001L243.271 53.8935M243.271 53.8935L241.825 52.4867M243.271 53.8935L244.716 52.4868M243.271 53.8935L241.825 55.3002" stroke="#6B7280" stroke-width="1.6" stroke-linecap="round"/>
<path d="M261.416 48.5356H274.416" stroke="#6B7280" stroke-width="2" stroke-linecap="round"/>
<path d="M262.344 46.2143H273.487M262.344 44.3571H273.487M262.344 42.5H273.487M262.344 54.5714H273.487M262.344 52.7143H273.487M262.344 50.8571H273.487" stroke="#6B7280" stroke-linecap="round"/>
<path d="M295.984 55.8934H293.059C292.829 55.8934 292.642 55.712 292.642 55.4881V53.0562C292.642 52.8324 292.829 52.6509 293.059 52.6509H303.924C304.155 52.6509 304.342 52.8324 304.342 53.0562V55.4881C304.342 55.712 304.155 55.8934 303.924 55.8934H303.506M298.492 55.0828L299.678 56.6176C299.712 56.6608 299.779 56.6608 299.812 56.6176L300.999 55.0828M295.149 50.219L298.414 42.301C298.442 42.233 298.541 42.233 298.569 42.301L301.834 50.219M296.82 47.7872H300.163M294.313 50.219H296.402M300.581 50.219H302.67" stroke="#6B7280" stroke-width="1.5" stroke-linecap="round"/>
<line x1="1" y1="68.5" x2="349" y2="68.5" stroke="#374151"/>
<rect x="21" y="87" width="270" height="6" rx="3" fill="#6B7280"/>
<rect x="21" y="101" width="291" height="6" rx="3" fill="#6B7280"/>
<rect x="21" y="115" width="78" height="6" rx="3" fill="#6B7280"/>
<rect x="111" y="115" width="126" height="6" rx="3" fill="#4B5563"/>
<rect x="249" y="115" width="85" height="6" rx="3" fill="#6B7280"/>
<rect x="21" y="129" width="261" height="6" rx="3" fill="#6B7280"/>
<rect x="21" y="143" width="291" height="6" rx="3" fill="#6B7280"/>
<rect x="21" y="157" width="147" height="6" rx="3" fill="#6B7280"/>
<rect x="180" y="157" width="55" height="6" rx="3" fill="#6B7280"/>
<rect x="247" y="157" width="85" height="6" rx="3" fill="#6B7280"/>
<rect x="21" y="171" width="207" height="6" rx="3" fill="#6B7280"/>
</svg>
