<svg width="536" height="345" viewBox="0 0 536 345" fill="none" xmlns="http://www.w3.org/2000/svg">
<g clip-path="url(#clip0_6219_4913)">
<g filter="url(#filter0_dd_6219_4913)">
<mask id="path-1-inside-1_6219_4913" fill="white">
<path d="M0 0H536V30H0V0Z"/>
</mask>
<path d="M0 0H536V30H0V0Z" fill="#374151"/>
<path d="M536 29.5H0V30.5H536V29.5Z" fill="#4B5563" mask="url(#path-1-inside-1_6219_4913)"/>
<path d="M17.1949 13.8525C17.1671 14.044 17.0409 14.3041 16.8961 14.5302C16.7134 14.8155 16.4234 15.0153 16.0916 15.0847L14.6298 15.3904C14.3948 15.4395 14.1818 15.5625 14.0218 15.7413L13.0634 16.8126C12.8832 17.014 12.7573 16.966 12.7573 16.6959C12.7552 16.7059 12.2816 17.9271 13.5365 18.6509C14.0187 18.929 14.7127 18.8291 15.1949 18.5509L17.7496 17.0774C18.705 16.5263 19.3796 15.594 19.6038 14.5149C19.6127 14.4722 19.6195 14.4293 19.6269 14.3865L17.1949 13.8525Z" fill="url(#paint0_linear_6219_4913)"/>
<path d="M16.5323 12.3806C17.0145 12.6587 17.2115 13.0727 17.2114 13.6289C17.2114 13.7045 17.2055 13.7791 17.1948 13.8525L18.2242 14.2947L19.6268 14.3865C19.8064 13.3471 19.4544 12.2772 18.8235 11.4268C18.3486 10.7868 17.7376 10.2314 17.0031 9.80768C16.4064 9.4635 15.7863 9.23674 15.1633 9.1123L14.4633 10.0188L14.2422 11.0596L16.5323 12.3806Z" fill="url(#paint1_linear_6219_4913)"/>
<path d="M8.29302 13.1439C8.29276 13.1447 8.29349 13.1449 8.29376 13.1441C8.34778 12.9821 8.41551 12.8014 8.50006 12.6083C8.94175 11.5997 9.7929 10.927 10.84 10.584C11.8872 10.241 13.0305 10.3612 13.9848 10.9117L14.2422 11.0602L15.1633 9.11281C12.2337 8.52769 9.2395 10.2489 8.29675 13.1326C8.2963 13.134 8.29466 13.1388 8.29302 13.1439Z" fill="url(#paint2_linear_6219_4913)"/>
<path d="M15.0961 18.5514C14.614 18.8295 14.0199 18.8295 13.5378 18.5514C13.4723 18.5137 13.4106 18.4712 13.3523 18.4253L12.5043 19.0082L11.7734 20.1893C12.5847 20.8644 13.6381 21.0814 14.6907 20.9607C15.4829 20.8699 16.2699 20.6189 17.0044 20.1952C17.6011 19.851 18.1077 19.4279 18.5271 18.9511L18.0913 17.8923L17.3862 17.2305L15.0961 18.5514Z" fill="url(#paint3_linear_6219_4913)"/>
<path d="M13.3521 18.4256C12.9806 18.133 12.7584 17.6842 12.7584 17.2035V17.1555V13.1519C12.7584 12.9255 12.8251 12.887 13.0214 13.0002C12.7191 12.8259 12.0207 12.2273 11.1585 12.7246C10.6763 13.0028 10.2793 13.6166 10.2793 14.1729V17.12C10.2793 18.2222 10.8502 19.3719 11.6735 20.1054C11.7061 20.1345 11.7398 20.1618 11.7732 20.1896L13.3521 18.4256Z" fill="url(#paint4_linear_6219_4913)"/>
<path d="M18.4684 10.9915C18.4679 10.9909 18.4673 10.9914 18.4679 10.992C18.5813 11.1198 18.7041 11.2687 18.8292 11.4384C19.4827 12.3249 19.7268 13.4476 19.5006 14.5251C19.2743 15.6026 18.5985 16.5317 17.6441 17.0821L17.3867 17.2306L18.5276 18.9513C20.4996 16.7091 20.5047 13.2579 18.4764 11.0004C18.4754 10.9993 18.472 10.9955 18.4684 10.9915Z" fill="url(#paint5_linear_6219_4913)"/>
<path d="M10.3791 14.1731C10.3791 13.6169 10.6761 13.1029 11.1582 12.8248C11.2237 12.787 11.2913 12.7549 11.3604 12.7274L11.279 11.7022L10.7073 10.5293C9.71644 10.8936 8.91498 11.6466 8.49328 12.6177C8.17593 13.3485 8 14.1548 8 15.0022C8 15.6906 8.11347 16.3405 8.31711 16.9417L9.45287 17.0941L10.3791 16.815V14.1731Z" fill="url(#paint6_linear_6219_4913)"/>
<path d="M11.3621 12.7273C11.8015 12.5522 12.3016 12.5843 12.7183 12.8247L12.7599 12.8487L16.096 14.7729C16.33 14.9079 16.3087 15.0407 16.0442 15.0961L16.2367 15.0558C16.4899 15.0029 16.7213 14.8735 16.8982 14.6849C17.2024 14.3606 17.3141 13.9694 17.3141 13.6299C17.3141 13.0737 17.0171 12.5597 16.5349 12.2816L13.9802 10.808C13.0248 10.2569 11.8794 10.1394 10.8318 10.485C10.7904 10.4987 10.7498 10.5142 10.709 10.5292L11.3621 12.7273Z" fill="url(#paint7_linear_6219_4913)"/>
<path d="M15.2498 20.8699C15.2506 20.8697 15.2505 20.869 15.2496 20.8692C15.0822 20.9034 14.8916 20.9352 14.682 20.9586C13.5868 21.0807 12.4915 20.7306 11.6706 19.9961C10.8497 19.2617 10.3823 18.2123 10.3823 17.1114L10.3823 16.8145L8.32031 16.9412C9.27792 19.7685 12.267 21.4985 15.2381 20.8723C15.2395 20.872 15.2445 20.871 15.2498 20.8699Z" fill="url(#paint8_linear_6219_4913)"/>
<rect x="27" y="9" width="152" height="12" rx="4" fill="#4B5563"/>
<path d="M479.994 15.3683V14.3183C479.995 13.6086 479.756 12.9196 479.316 12.3626C478.876 11.8055 478.261 11.4131 477.571 11.2488C477.576 11.2284 477.58 11.2078 477.583 11.1869V9.80794C477.583 9.65323 477.522 9.50486 477.413 9.39546C477.303 9.28607 477.155 9.22461 477 9.22461C476.845 9.22461 476.697 9.28607 476.588 9.39546C476.478 9.50486 476.417 9.65323 476.417 9.80794V11.1869C476.42 11.2078 476.424 11.2284 476.429 11.2488C475.739 11.4131 475.124 11.8055 474.684 12.3626C474.244 12.9196 474.005 13.6086 474.006 14.3183V15.3683C474.006 16.7601 472.917 17.1078 472.917 17.8037C472.917 18.1496 472.917 18.4996 473.231 18.4996H480.77C481.083 18.4996 481.083 18.1496 481.083 17.8037C481.083 17.1078 479.994 16.7601 479.994 15.3683Z" fill="#6B7280"/>
<path d="M472.255 14.9016C472.1 14.9016 471.952 14.8402 471.843 14.7308C471.733 14.6214 471.672 14.473 471.672 14.3183C471.675 12.9351 472.199 11.6039 473.14 10.5902C473.245 10.4764 473.391 10.409 473.546 10.4029C473.701 10.3968 473.852 10.4524 473.966 10.5575C474.079 10.6627 474.147 10.8087 474.153 10.9635C474.159 11.1183 474.103 11.2692 473.998 11.3829C473.256 12.1816 472.842 13.2308 472.839 14.3212C472.838 14.4754 472.776 14.623 472.667 14.7318C472.557 14.8406 472.409 14.9016 472.255 14.9016Z" fill="#6B7280"/>
<path d="M481.745 14.9016C481.59 14.9016 481.442 14.8402 481.332 14.7308C481.223 14.6214 481.162 14.473 481.162 14.3183C481.158 13.2289 480.744 12.1809 480.002 11.3829C479.902 11.2684 479.851 11.1194 479.859 10.9676C479.867 10.8158 479.935 10.6732 480.046 10.5703C480.158 10.4673 480.306 10.4121 480.458 10.4164C480.61 10.4206 480.754 10.484 480.86 10.5931C481.801 11.6068 482.325 12.938 482.328 14.3212C482.327 14.4754 482.266 14.623 482.156 14.7318C482.047 14.8406 481.899 14.9016 481.745 14.9016Z" fill="#6B7280"/>
<path d="M475.147 19.0829C475.302 19.4464 475.56 19.7563 475.889 19.9741C476.219 20.192 476.605 20.3081 477 20.3081C477.395 20.3081 477.781 20.192 478.111 19.9741C478.44 19.7563 478.699 19.4464 478.853 19.0829H475.147Z" fill="#6B7280"/>
<path fill-rule="evenodd" clip-rule="evenodd" d="M494.833 9.75C494.235 9.75 493.75 10.235 493.75 10.8332V13.3334C493.75 13.9317 494.235 14.4167 494.833 14.4167H497.333C497.932 14.4167 498.417 13.9317 498.417 13.3334V10.8332C498.417 10.235 497.932 9.75 497.333 9.75H494.833ZM500.667 9.75C500.068 9.75 499.583 10.235 499.583 10.8332V13.3334C499.583 13.9317 500.068 14.4167 500.667 14.4167H503.167C503.765 14.4167 504.25 13.9317 504.25 13.3334V10.8332C504.25 10.235 503.765 9.75 503.167 9.75H500.667ZM494.833 15.5833C494.235 15.5833 493.75 16.0683 493.75 16.6666V19.1667C493.75 19.765 494.235 20.25 494.833 20.25H497.333C497.932 20.25 498.417 19.765 498.417 19.1667V16.6666C498.417 16.0683 497.932 15.5833 497.333 15.5833H494.833ZM500.667 15.5833C500.068 15.5833 499.583 16.0683 499.583 16.6666V19.1667C499.583 19.765 500.068 20.25 500.667 20.25H503.167C503.765 20.25 504.25 19.765 504.25 19.1667V16.6666C504.25 16.0683 503.765 15.5833 503.167 15.5833H500.667Z" fill="#6B7280"/>
<path fill-rule="evenodd" clip-rule="evenodd" d="M520.999 10.3337C518.422 10.3337 516.333 12.423 516.333 15.0003C516.333 16.3391 516.896 17.5462 517.799 18.3972C517.965 18.0534 518.198 17.7428 518.488 17.4851C519.019 17.0131 519.704 16.7517 520.415 16.7503L520.416 16.7503L521.584 16.7503C522.294 16.7517 522.98 17.0131 523.511 17.4851C523.801 17.7428 524.034 18.0534 524.199 18.3972C525.102 17.5462 525.666 16.3391 525.666 15.0003C525.666 12.423 523.577 10.3337 520.999 10.3337ZM521.572 20.8059C524.525 20.5181 526.833 18.0287 526.833 15.0003C526.833 11.7787 524.221 9.16699 520.999 9.16699C517.778 9.16699 515.166 11.7787 515.166 15.0003C515.166 18.0287 517.474 20.5181 520.426 20.8059C520.616 20.8245 520.807 20.8338 520.999 20.8337M520.999 19.667C520.999 19.667 520.999 19.667 520.999 19.667C521 19.667 521 19.667 521 19.667C521.194 19.667 521.385 19.6551 521.573 19.6321C522.153 19.5606 522.714 19.38 523.228 19.0993C523.132 18.8153 522.963 18.559 522.736 18.3571C522.418 18.0745 522.008 17.9179 521.582 17.917H520.417C519.991 17.9179 519.581 18.0745 519.263 18.3571C519.036 18.559 518.867 18.8153 518.771 19.0993C519.284 19.38 519.846 19.5606 520.426 19.6321C520.614 19.6551 520.805 19.667 520.999 19.667ZM520.999 20.8337C521.191 20.8338 521.382 20.8245 521.572 20.8059L520.999 20.8337ZM520.999 12.667C520.355 12.667 519.833 13.1893 519.833 13.8337C519.833 14.478 520.355 15.0003 520.999 15.0003C521.644 15.0003 522.166 14.478 522.166 13.8337C522.166 13.1893 521.644 12.667 520.999 12.667ZM518.666 13.8337C518.666 12.545 519.711 11.5003 520.999 11.5003C522.288 11.5003 523.333 12.545 523.333 13.8337C523.333 15.1223 522.288 16.167 520.999 16.167C519.711 16.167 518.666 15.1223 518.666 13.8337Z" fill="#6B7280"/>
</g>
<rect width="536" height="315" transform="translate(0 30)" fill="#1F2A37"/>
<mask id="path-16-inside-2_6219_4913" fill="white">
<path d="M0 30H103V345H0V30Z"/>
</mask>
<path d="M0 30H103V345H0V30Z" fill="#374151"/>
<path d="M102.5 30V345H103.5V30H102.5Z" fill="#4B5563" mask="url(#path-16-inside-2_6219_4913)"/>
<mask id="path-18-inside-3_6219_4913" fill="white">
<path d="M12 42H91V122H12V42Z"/>
</mask>
<path d="M91 121.5H12V122.5H91V121.5Z" fill="#4B5563" mask="url(#path-18-inside-3_6219_4913)"/>
<rect x="12" y="42" width="5" height="5" rx="2.5" fill="#6B7280"/>
<rect x="21" y="42" width="57" height="5" rx="2.5" fill="#6B7280"/>
<rect x="12" y="57" width="5" height="5" rx="2.5" fill="#6B7280"/>
<rect x="21" y="57" width="48.4961" height="5" rx="2.5" fill="#6B7280"/>
<rect x="12" y="72" width="5" height="5" rx="2.5" fill="#6B7280"/>
<rect x="21" y="72" width="61" height="5" rx="2.5" fill="#6B7280"/>
<rect x="12" y="87" width="5" height="5" rx="2.5" fill="#6B7280"/>
<rect x="21" y="87" width="39" height="5" rx="2.5" fill="#6B7280"/>
<rect x="12" y="102" width="5" height="5" rx="2.5" fill="#6B7280"/>
<rect x="21" y="102" width="61" height="5" rx="2.5" fill="#6B7280"/>
<rect x="12" y="137" width="5" height="5" rx="2.5" fill="#6B7280"/>
<rect x="21" y="137" width="42" height="5" rx="2.5" fill="#6B7280"/>
<rect x="12" y="152" width="5" height="5" rx="2.5" fill="#6B7280"/>
<rect x="21" y="152" width="25" height="5" rx="2.5" fill="#6B7280"/>
<rect x="12" y="167" width="5" height="5" rx="2.5" fill="#6B7280"/>
<rect x="21" y="167" width="41" height="5" rx="2.5" fill="#6B7280"/>
<rect x="32" y="328" width="5" height="5" rx="2.5" fill="#6B7280"/>
<rect x="49" y="328" width="5" height="5" rx="2.5" fill="#6B7280"/>
<rect x="66" y="328" width="5" height="5" rx="2.5" fill="#6B7280"/>
<rect x="113" y="40" width="100" height="6" rx="3" fill="#6B7280"/>
<path d="M113.5 66C113.5 61.8579 116.858 58.5 121 58.5H518C522.142 58.5 525.5 61.8579 525.5 66V105C525.5 109.142 522.142 112.5 518 112.5H121C116.858 112.5 113.5 109.142 113.5 105V66Z" fill="#374151"/>
<path d="M113.5 66C113.5 61.8579 116.858 58.5 121 58.5H518C522.142 58.5 525.5 61.8579 525.5 66V105C525.5 109.142 522.142 112.5 518 112.5H121C116.858 112.5 113.5 109.142 113.5 105V66Z" stroke="#4B5563"/>
<path fill-rule="evenodd" clip-rule="evenodd" d="M133.999 74.3337C131.422 74.3337 129.333 76.423 129.333 79.0003C129.333 80.3391 129.896 81.5462 130.799 82.3972C130.965 82.0534 131.198 81.7428 131.488 81.4851C132.019 81.0131 132.704 80.7517 133.415 80.7503L133.416 80.7503L134.584 80.7503C135.294 80.7517 135.98 81.0131 136.511 81.4851C136.801 81.7428 137.034 82.0534 137.199 82.3972C138.102 81.5462 138.666 80.3391 138.666 79.0003C138.666 76.423 136.577 74.3337 133.999 74.3337ZM134.572 84.8059C137.525 84.5181 139.833 82.0287 139.833 79.0003C139.833 75.7787 137.221 73.167 133.999 73.167C130.778 73.167 128.166 75.7787 128.166 79.0003C128.166 82.0287 130.474 84.5181 133.426 84.8059C133.616 84.8245 133.807 84.8338 133.999 84.8337M133.999 83.667C133.999 83.667 133.999 83.667 133.999 83.667C134 83.667 134 83.667 134 83.667C134.194 83.667 134.385 83.6551 134.573 83.6321C135.153 83.5606 135.714 83.38 136.228 83.0993C136.132 82.8153 135.963 82.559 135.736 82.3571C135.418 82.0745 135.008 81.9179 134.582 81.917H133.417C132.991 81.9179 132.581 82.0745 132.263 82.3571C132.036 82.559 131.867 82.8153 131.771 83.0993C132.284 83.38 132.846 83.5606 133.426 83.6321C133.614 83.6551 133.805 83.667 133.999 83.667ZM133.999 84.8337C134.191 84.8338 134.382 84.8245 134.572 84.8059L133.999 84.8337ZM133.999 76.667C133.355 76.667 132.833 77.1893 132.833 77.8337C132.833 78.478 133.355 79.0003 133.999 79.0003C134.644 79.0003 135.166 78.478 135.166 77.8337C135.166 77.1893 134.644 76.667 133.999 76.667ZM131.666 77.8337C131.666 76.545 132.711 75.5003 133.999 75.5003C135.288 75.5003 136.333 76.545 136.333 77.8337C136.333 79.1223 135.288 80.167 133.999 80.167C132.711 80.167 131.666 79.1223 131.666 77.8337Z" fill="#6B7280"/>
<rect x="149" y="72" width="259" height="5" rx="2.5" fill="#6B7280"/>
<rect x="149" y="83" width="275" height="5" rx="2.5" fill="#6B7280"/>
<rect x="149" y="94" width="209" height="5" rx="2.5" fill="#6B7280"/>
<path fill-rule="evenodd" clip-rule="evenodd" d="M502.5 85.5C502.5 85.2239 502.724 85 503 85H503.005C503.281 85 503.505 85.2239 503.505 85.5C503.505 85.7761 503.281 86 503.005 86H503C502.724 86 502.5 85.7761 502.5 85.5ZM505.505 85.5C505.505 85.2239 505.729 85 506.005 85H506.01C506.286 85 506.51 85.2239 506.51 85.5C506.51 85.7761 506.286 86 506.01 86H506.005C505.729 86 505.505 85.7761 505.505 85.5ZM508.505 85.5C508.505 85.2239 508.729 85 509.005 85H509.01C509.286 85 509.51 85.2239 509.51 85.5C509.51 85.7761 509.286 86 509.01 86H509.005C508.729 86 508.505 85.7761 508.505 85.5Z" fill="#9CA3AF" stroke="#9CA3AF" stroke-width="0.4" stroke-linecap="round" stroke-linejoin="round"/>
<path d="M113.5 129C113.5 124.858 116.858 121.5 121 121.5H518C522.142 121.5 525.5 124.858 525.5 129V157C525.5 161.142 522.142 164.5 518 164.5H121C116.858 164.5 113.5 161.142 113.5 157V129Z" fill="#374151"/>
<path d="M113.5 129C113.5 124.858 116.858 121.5 121 121.5H518C522.142 121.5 525.5 124.858 525.5 129V157C525.5 161.142 522.142 164.5 518 164.5H121C116.858 164.5 113.5 161.142 113.5 157V129Z" stroke="#4B5563"/>
<path fill-rule="evenodd" clip-rule="evenodd" d="M133.999 137.334C131.422 137.334 129.333 139.423 129.333 142C129.333 143.339 129.896 144.546 130.799 145.397C130.965 145.053 131.198 144.743 131.488 144.485C132.019 144.013 132.704 143.752 133.415 143.75L133.416 143.75L134.584 143.75C135.294 143.752 135.98 144.013 136.511 144.485C136.801 144.743 137.034 145.053 137.199 145.397C138.102 144.546 138.666 143.339 138.666 142C138.666 139.423 136.577 137.334 133.999 137.334ZM134.572 147.806C137.525 147.518 139.833 145.029 139.833 142C139.833 138.779 137.221 136.167 133.999 136.167C130.778 136.167 128.166 138.779 128.166 142C128.166 145.029 130.474 147.518 133.426 147.806C133.616 147.825 133.807 147.834 133.999 147.834M133.999 146.667C133.999 146.667 133.999 146.667 133.999 146.667C134 146.667 134 146.667 134 146.667C134.194 146.667 134.385 146.655 134.573 146.632C135.153 146.561 135.714 146.38 136.228 146.099C136.132 145.815 135.963 145.559 135.736 145.357C135.418 145.074 135.008 144.918 134.582 144.917H133.417C132.991 144.918 132.581 145.074 132.263 145.357C132.036 145.559 131.867 145.815 131.771 146.099C132.284 146.38 132.846 146.561 133.426 146.632C133.614 146.655 133.805 146.667 133.999 146.667ZM133.999 147.834C134.191 147.834 134.382 147.825 134.572 147.806L133.999 147.834ZM133.999 139.667C133.355 139.667 132.833 140.189 132.833 140.834C132.833 141.478 133.355 142 133.999 142C134.644 142 135.166 141.478 135.166 140.834C135.166 140.189 134.644 139.667 133.999 139.667ZM131.666 140.834C131.666 139.545 132.711 138.5 133.999 138.5C135.288 138.5 136.333 139.545 136.333 140.834C136.333 142.122 135.288 143.167 133.999 143.167C132.711 143.167 131.666 142.122 131.666 140.834Z" fill="#6B7280"/>
<rect x="149" y="135" width="275" height="5" rx="2.5" fill="#6B7280"/>
<rect x="149" y="146" width="175" height="5" rx="2.5" fill="#6B7280"/>
<path fill-rule="evenodd" clip-rule="evenodd" d="M502.5 143C502.5 142.724 502.724 142.5 503 142.5H503.005C503.281 142.5 503.505 142.724 503.505 143C503.505 143.276 503.281 143.5 503.005 143.5H503C502.724 143.5 502.5 143.276 502.5 143ZM505.505 143C505.505 142.724 505.729 142.5 506.005 142.5H506.01C506.286 142.5 506.51 142.724 506.51 143C506.51 143.276 506.286 143.5 506.01 143.5H506.005C505.729 143.5 505.505 143.276 505.505 143ZM508.505 143C508.505 142.724 508.729 142.5 509.005 142.5H509.01C509.286 142.5 509.51 142.724 509.51 143C509.51 143.276 509.286 143.5 509.01 143.5H509.005C508.729 143.5 508.505 143.276 508.505 143Z" fill="#9CA3AF" stroke="#9CA3AF" stroke-width="0.4" stroke-linecap="round" stroke-linejoin="round"/>
<path d="M113.5 181C113.5 176.858 116.858 173.5 121 173.5H518C522.142 173.5 525.5 176.858 525.5 181V220C525.5 224.142 522.142 227.5 518 227.5H121C116.858 227.5 113.5 224.142 113.5 220V181Z" fill="#374151"/>
<path d="M113.5 181C113.5 176.858 116.858 173.5 121 173.5H518C522.142 173.5 525.5 176.858 525.5 181V220C525.5 224.142 522.142 227.5 518 227.5H121C116.858 227.5 113.5 224.142 113.5 220V181Z" stroke="#4B5563"/>
<path fill-rule="evenodd" clip-rule="evenodd" d="M133.999 189.334C131.422 189.334 129.333 191.423 129.333 194C129.333 195.339 129.896 196.546 130.799 197.397C130.965 197.053 131.198 196.743 131.488 196.485C132.019 196.013 132.704 195.752 133.415 195.75L133.416 195.75L134.584 195.75C135.294 195.752 135.98 196.013 136.511 196.485C136.801 196.743 137.034 197.053 137.199 197.397C138.102 196.546 138.666 195.339 138.666 194C138.666 191.423 136.577 189.334 133.999 189.334ZM134.572 199.806C137.525 199.518 139.833 197.029 139.833 194C139.833 190.779 137.221 188.167 133.999 188.167C130.778 188.167 128.166 190.779 128.166 194C128.166 197.029 130.474 199.518 133.426 199.806C133.616 199.825 133.807 199.834 133.999 199.834M133.999 198.667C133.999 198.667 133.999 198.667 133.999 198.667C134 198.667 134 198.667 134 198.667C134.194 198.667 134.385 198.655 134.573 198.632C135.153 198.561 135.714 198.38 136.228 198.099C136.132 197.815 135.963 197.559 135.736 197.357C135.418 197.074 135.008 196.918 134.582 196.917H133.417C132.991 196.918 132.581 197.074 132.263 197.357C132.036 197.559 131.867 197.815 131.771 198.099C132.284 198.38 132.846 198.561 133.426 198.632C133.614 198.655 133.805 198.667 133.999 198.667ZM133.999 199.834C134.191 199.834 134.382 199.825 134.572 199.806L133.999 199.834ZM133.999 191.667C133.355 191.667 132.833 192.189 132.833 192.834C132.833 193.478 133.355 194 133.999 194C134.644 194 135.166 193.478 135.166 192.834C135.166 192.189 134.644 191.667 133.999 191.667ZM131.666 192.834C131.666 191.545 132.711 190.5 133.999 190.5C135.288 190.5 136.333 191.545 136.333 192.834C136.333 194.122 135.288 195.167 133.999 195.167C132.711 195.167 131.666 194.122 131.666 192.834Z" fill="#6B7280"/>
<rect x="149" y="187" width="259" height="5" rx="2.5" fill="#6B7280"/>
<rect x="149" y="198" width="275" height="5" rx="2.5" fill="#6B7280"/>
<rect x="149" y="209" width="209" height="5" rx="2.5" fill="#6B7280"/>
<path fill-rule="evenodd" clip-rule="evenodd" d="M502.5 200.5C502.5 200.224 502.724 200 503 200H503.005C503.281 200 503.505 200.224 503.505 200.5C503.505 200.776 503.281 201 503.005 201H503C502.724 201 502.5 200.776 502.5 200.5ZM505.505 200.5C505.505 200.224 505.729 200 506.005 200H506.01C506.286 200 506.51 200.224 506.51 200.5C506.51 200.776 506.286 201 506.01 201H506.005C505.729 201 505.505 200.776 505.505 200.5ZM508.505 200.5C508.505 200.224 508.729 200 509.005 200H509.01C509.286 200 509.51 200.224 509.51 200.5C509.51 200.776 509.286 201 509.01 201H509.005C508.729 201 508.505 200.776 508.505 200.5Z" fill="#9CA3AF" stroke="#9CA3AF" stroke-width="0.4" stroke-linecap="round" stroke-linejoin="round"/>
<path d="M113.5 244C113.5 239.858 116.858 236.5 121 236.5H518C522.142 236.5 525.5 239.858 525.5 244V270C525.5 274.142 522.142 277.5 518 277.5H121C116.858 277.5 113.5 274.142 113.5 270V244Z" fill="#374151"/>
<path d="M113.5 244C113.5 239.858 116.858 236.5 121 236.5H518C522.142 236.5 525.5 239.858 525.5 244V270C525.5 274.142 522.142 277.5 518 277.5H121C116.858 277.5 113.5 274.142 113.5 270V244Z" stroke="#4B5563"/>
<path fill-rule="evenodd" clip-rule="evenodd" d="M133.999 252.334C131.422 252.334 129.333 254.423 129.333 257C129.333 258.339 129.896 259.546 130.799 260.397C130.965 260.053 131.198 259.743 131.488 259.485C132.019 259.013 132.704 258.752 133.415 258.75L133.416 258.75L134.584 258.75C135.294 258.752 135.98 259.013 136.511 259.485C136.801 259.743 137.034 260.053 137.199 260.397C138.102 259.546 138.666 258.339 138.666 257C138.666 254.423 136.577 252.334 133.999 252.334ZM134.572 262.806C137.525 262.518 139.833 260.029 139.833 257C139.833 253.779 137.221 251.167 133.999 251.167C130.778 251.167 128.166 253.779 128.166 257C128.166 260.029 130.474 262.518 133.426 262.806C133.616 262.825 133.807 262.834 133.999 262.834M133.999 261.667C133.999 261.667 133.999 261.667 133.999 261.667C134 261.667 134 261.667 134 261.667C134.194 261.667 134.385 261.655 134.573 261.632C135.153 261.561 135.714 261.38 136.228 261.099C136.132 260.815 135.963 260.559 135.736 260.357C135.418 260.074 135.008 259.918 134.582 259.917H133.417C132.991 259.918 132.581 260.074 132.263 260.357C132.036 260.559 131.867 260.815 131.771 261.099C132.284 261.38 132.846 261.561 133.426 261.632C133.614 261.655 133.805 261.667 133.999 261.667ZM133.999 262.834C134.191 262.834 134.382 262.825 134.572 262.806L133.999 262.834ZM133.999 254.667C133.355 254.667 132.833 255.189 132.833 255.834C132.833 256.478 133.355 257 133.999 257C134.644 257 135.166 256.478 135.166 255.834C135.166 255.189 134.644 254.667 133.999 254.667ZM131.666 255.834C131.666 254.545 132.711 253.5 133.999 253.5C135.288 253.5 136.333 254.545 136.333 255.834C136.333 257.122 135.288 258.167 133.999 258.167C132.711 258.167 131.666 257.122 131.666 255.834Z" fill="#6B7280"/>
<rect x="149" y="254.5" width="175" height="5" rx="2.5" fill="#6B7280"/>
<path fill-rule="evenodd" clip-rule="evenodd" d="M502.5 257C502.5 256.724 502.724 256.5 503 256.5H503.005C503.281 256.5 503.505 256.724 503.505 257C503.505 257.276 503.281 257.5 503.005 257.5H503C502.724 257.5 502.5 257.276 502.5 257ZM505.505 257C505.505 256.724 505.729 256.5 506.005 256.5H506.01C506.286 256.5 506.51 256.724 506.51 257C506.51 257.276 506.286 257.5 506.01 257.5H506.005C505.729 257.5 505.505 257.276 505.505 257ZM508.505 257C508.505 256.724 508.729 256.5 509.005 256.5H509.01C509.286 256.5 509.51 256.724 509.51 257C509.51 257.276 509.286 257.5 509.01 257.5H509.005C508.729 257.5 508.505 257.276 508.505 257Z" fill="#9CA3AF" stroke="#9CA3AF" stroke-width="0.4" stroke-linecap="round" stroke-linejoin="round"/>
</g>
<defs>
<filter id="filter0_dd_6219_4913" x="-3" y="-2" width="542" height="36" filterUnits="userSpaceOnUse" color-interpolation-filters="sRGB">
<feFlood flood-opacity="0" result="BackgroundImageFix"/>
<feColorMatrix in="SourceAlpha" type="matrix" values="0 0 0 0 0 0 0 0 0 0 0 0 0 0 0 0 0 0 127 0" result="hardAlpha"/>
<feOffset dy="1"/>
<feGaussianBlur stdDeviation="1.5"/>
<feColorMatrix type="matrix" values="0 0 0 0 0 0 0 0 0 0 0 0 0 0 0 0 0 0 0.1 0"/>
<feBlend mode="normal" in2="BackgroundImageFix" result="effect1_dropShadow_6219_4913"/>
<feColorMatrix in="SourceAlpha" type="matrix" values="0 0 0 0 0 0 0 0 0 0 0 0 0 0 0 0 0 0 127 0" result="hardAlpha"/>
<feOffset dy="1"/>
<feGaussianBlur stdDeviation="1"/>
<feColorMatrix type="matrix" values="0 0 0 0 0 0 0 0 0 0 0 0 0 0 0 0 0 0 0.06 0"/>
<feBlend mode="normal" in2="effect1_dropShadow_6219_4913" result="effect2_dropShadow_6219_4913"/>
<feBlend mode="normal" in="SourceGraphic" in2="effect2_dropShadow_6219_4913" result="shape"/>
</filter>
<linearGradient id="paint0_linear_6219_4913" x1="15.5225" y1="17.9132" x2="16.7029" y2="13.8016" gradientUnits="userSpaceOnUse">
<stop stop-color="#1724C9"/>
<stop offset="1" stop-color="#1C64F2"/>
</linearGradient>
<linearGradient id="paint1_linear_6219_4913" x1="18.2412" y1="12.899" x2="15.136" y2="9.80477" gradientUnits="userSpaceOnUse">
<stop stop-color="#1C64F2"/>
<stop offset="1" stop-color="#0092FF"/>
</linearGradient>
<linearGradient id="paint2_linear_6219_4913" x1="14.0614" y1="10.8821" x2="9.37716" y2="11.1781" gradientUnits="userSpaceOnUse">
<stop stop-color="#0092FF"/>
<stop offset="1" stop-color="#45B2FF"/>
</linearGradient>
<linearGradient id="paint3_linear_6219_4913" x1="13.746" y1="19.7486" x2="17.9527" y2="18.6135" gradientUnits="userSpaceOnUse">
<stop stop-color="#1C64F2"/>
<stop offset="1" stop-color="#0092FF"/>
</linearGradient>
<linearGradient id="paint4_linear_6219_4913" x1="10.7263" y1="14.881" x2="13.713" y2="17.9758" gradientUnits="userSpaceOnUse">
<stop stop-color="#1724C9"/>
<stop offset="1" stop-color="#1C64F2"/>
</linearGradient>
<linearGradient id="paint5_linear_6219_4913" x1="17.5458" y1="17.1134" x2="19.6297" y2="12.9125" gradientUnits="userSpaceOnUse">
<stop stop-color="#0092FF"/>
<stop offset="1" stop-color="#45B2FF"/>
</linearGradient>
<linearGradient id="paint6_linear_6219_4913" x1="10.0117" y1="12.424" x2="8.89654" y2="16.6153" gradientUnits="userSpaceOnUse">
<stop stop-color="#1C64F2"/>
<stop offset="1" stop-color="#0092FF"/>
</linearGradient>
<linearGradient id="paint7_linear_6219_4913" x1="15.7062" y1="12.2246" x2="11.6312" y2="13.2391" gradientUnits="userSpaceOnUse">
<stop stop-color="#1724C9"/>
<stop offset="1" stop-color="#1C64F2"/>
</linearGradient>
<linearGradient id="paint8_linear_6219_4913" x1="10.406" y1="17.0086" x2="13.0034" y2="20.9158" gradientUnits="userSpaceOnUse">
<stop stop-color="#0092FF"/>
<stop offset="1" stop-color="#45B2FF"/>
</linearGradient>
<clipPath id="clip0_6219_4913">
<rect width="536" height="345" fill="white"/>
</clipPath>
</defs>
</svg>
