<svg width="536" height="345" viewBox="0 0 536 345" fill="none" xmlns="http://www.w3.org/2000/svg">
<g clip-path="url(#clip0_6219_5350)">
<g filter="url(#filter0_dd_6219_5350)">
<mask id="path-1-inside-1_6219_5350" fill="white">
<path d="M0 0H536V30H0V0Z"/>
</mask>
<path d="M0 0H536V30H0V0Z" fill="#374151"/>
<path d="M536 29.5H0V30.5H536V29.5Z" fill="#4B5563" mask="url(#path-1-inside-1_6219_5350)"/>
<path d="M17.1949 13.8525C17.1671 14.044 17.0409 14.3041 16.8961 14.5302C16.7134 14.8155 16.4234 15.0153 16.0916 15.0847L14.6298 15.3904C14.3948 15.4395 14.1818 15.5625 14.0218 15.7413L13.0634 16.8126C12.8832 17.014 12.7573 16.966 12.7573 16.6959C12.7552 16.7059 12.2816 17.9271 13.5365 18.6509C14.0187 18.929 14.7127 18.8291 15.1949 18.5509L17.7496 17.0774C18.705 16.5263 19.3796 15.594 19.6038 14.5149C19.6127 14.4722 19.6195 14.4293 19.6269 14.3865L17.1949 13.8525Z" fill="url(#paint0_linear_6219_5350)"/>
<path d="M16.5323 12.3806C17.0145 12.6587 17.2115 13.0727 17.2114 13.6289C17.2114 13.7045 17.2055 13.7791 17.1948 13.8525L18.2242 14.2947L19.6268 14.3865C19.8064 13.3471 19.4544 12.2772 18.8235 11.4268C18.3486 10.7868 17.7376 10.2314 17.0031 9.80768C16.4064 9.4635 15.7863 9.23674 15.1633 9.1123L14.4633 10.0188L14.2422 11.0596L16.5323 12.3806Z" fill="url(#paint1_linear_6219_5350)"/>
<path d="M8.29302 13.1439C8.29276 13.1447 8.29349 13.1449 8.29376 13.1441C8.34778 12.9821 8.41551 12.8014 8.50006 12.6083C8.94175 11.5997 9.7929 10.927 10.84 10.584C11.8872 10.241 13.0305 10.3612 13.9848 10.9117L14.2422 11.0602L15.1633 9.11281C12.2337 8.52769 9.2395 10.2489 8.29675 13.1326C8.2963 13.134 8.29466 13.1388 8.29302 13.1439Z" fill="url(#paint2_linear_6219_5350)"/>
<path d="M15.0961 18.5514C14.614 18.8295 14.0199 18.8295 13.5378 18.5514C13.4723 18.5137 13.4106 18.4712 13.3523 18.4253L12.5043 19.0082L11.7734 20.1893C12.5847 20.8644 13.6381 21.0814 14.6907 20.9607C15.4829 20.8699 16.2699 20.6189 17.0044 20.1952C17.6011 19.851 18.1077 19.4279 18.5271 18.9511L18.0913 17.8923L17.3862 17.2305L15.0961 18.5514Z" fill="url(#paint3_linear_6219_5350)"/>
<path d="M13.3521 18.4256C12.9806 18.133 12.7584 17.6842 12.7584 17.2035V17.1555V13.1519C12.7584 12.9255 12.8251 12.887 13.0214 13.0002C12.7191 12.8259 12.0207 12.2273 11.1585 12.7246C10.6763 13.0028 10.2793 13.6166 10.2793 14.1729V17.12C10.2793 18.2222 10.8502 19.3719 11.6735 20.1054C11.7061 20.1345 11.7398 20.1618 11.7732 20.1896L13.3521 18.4256Z" fill="url(#paint4_linear_6219_5350)"/>
<path d="M18.4684 10.9915C18.4679 10.9909 18.4673 10.9914 18.4679 10.992C18.5813 11.1198 18.7041 11.2687 18.8292 11.4384C19.4827 12.3249 19.7268 13.4476 19.5006 14.5251C19.2743 15.6026 18.5985 16.5317 17.6441 17.0821L17.3867 17.2306L18.5276 18.9513C20.4996 16.7091 20.5047 13.2579 18.4764 11.0004C18.4754 10.9993 18.472 10.9955 18.4684 10.9915Z" fill="url(#paint5_linear_6219_5350)"/>
<path d="M10.3791 14.1731C10.3791 13.6169 10.6761 13.1029 11.1582 12.8248C11.2237 12.787 11.2913 12.7549 11.3604 12.7274L11.279 11.7022L10.7073 10.5293C9.71644 10.8936 8.91498 11.6466 8.49328 12.6177C8.17593 13.3485 8 14.1548 8 15.0022C8 15.6906 8.11347 16.3405 8.31711 16.9417L9.45287 17.0941L10.3791 16.815V14.1731Z" fill="url(#paint6_linear_6219_5350)"/>
<path d="M11.3621 12.7273C11.8015 12.5522 12.3016 12.5843 12.7183 12.8247L12.7599 12.8487L16.096 14.7729C16.33 14.9079 16.3087 15.0407 16.0442 15.0961L16.2367 15.0558C16.4899 15.0029 16.7213 14.8735 16.8982 14.6849C17.2024 14.3606 17.3141 13.9694 17.3141 13.6299C17.3141 13.0737 17.0171 12.5597 16.5349 12.2816L13.9802 10.808C13.0248 10.2569 11.8794 10.1394 10.8318 10.485C10.7904 10.4987 10.7498 10.5142 10.709 10.5292L11.3621 12.7273Z" fill="url(#paint7_linear_6219_5350)"/>
<path d="M15.2498 20.8699C15.2506 20.8697 15.2505 20.869 15.2496 20.8692C15.0822 20.9034 14.8916 20.9352 14.682 20.9586C13.5868 21.0807 12.4915 20.7306 11.6706 19.9961C10.8497 19.2617 10.3823 18.2123 10.3823 17.1114L10.3823 16.8145L8.32031 16.9412C9.27792 19.7685 12.267 21.4985 15.2381 20.8723C15.2395 20.872 15.2445 20.871 15.2498 20.8699Z" fill="url(#paint8_linear_6219_5350)"/>
<rect x="27" y="9" width="152" height="12" rx="4" fill="#4B5563"/>
<path d="M479.994 15.3683V14.3183C479.995 13.6086 479.756 12.9196 479.316 12.3626C478.876 11.8055 478.261 11.4131 477.571 11.2488C477.576 11.2284 477.58 11.2078 477.583 11.1869V9.80794C477.583 9.65323 477.522 9.50486 477.413 9.39546C477.303 9.28607 477.155 9.22461 477 9.22461C476.845 9.22461 476.697 9.28607 476.588 9.39546C476.478 9.50486 476.417 9.65323 476.417 9.80794V11.1869C476.42 11.2078 476.424 11.2284 476.429 11.2488C475.739 11.4131 475.124 11.8055 474.684 12.3626C474.244 12.9196 474.005 13.6086 474.006 14.3183V15.3683C474.006 16.7601 472.917 17.1078 472.917 17.8037C472.917 18.1496 472.917 18.4996 473.231 18.4996H480.77C481.083 18.4996 481.083 18.1496 481.083 17.8037C481.083 17.1078 479.994 16.7601 479.994 15.3683Z" fill="#6B7280"/>
<path d="M472.255 14.9016C472.1 14.9016 471.952 14.8402 471.843 14.7308C471.733 14.6214 471.672 14.473 471.672 14.3183C471.675 12.9351 472.199 11.6039 473.14 10.5902C473.245 10.4764 473.391 10.409 473.546 10.4029C473.701 10.3968 473.852 10.4524 473.966 10.5575C474.079 10.6627 474.147 10.8087 474.153 10.9635C474.159 11.1183 474.103 11.2692 473.998 11.3829C473.256 12.1816 472.842 13.2308 472.839 14.3212C472.838 14.4754 472.776 14.623 472.667 14.7318C472.557 14.8406 472.409 14.9016 472.255 14.9016Z" fill="#6B7280"/>
<path d="M481.745 14.9016C481.59 14.9016 481.442 14.8402 481.332 14.7308C481.223 14.6214 481.162 14.473 481.162 14.3183C481.158 13.2289 480.744 12.1809 480.002 11.3829C479.902 11.2684 479.851 11.1194 479.859 10.9676C479.867 10.8158 479.935 10.6732 480.046 10.5703C480.158 10.4673 480.306 10.4121 480.458 10.4164C480.61 10.4206 480.754 10.484 480.86 10.5931C481.801 11.6068 482.325 12.938 482.328 14.3212C482.327 14.4754 482.266 14.623 482.156 14.7318C482.047 14.8406 481.899 14.9016 481.745 14.9016Z" fill="#6B7280"/>
<path d="M475.147 19.0829C475.302 19.4464 475.56 19.7563 475.889 19.9741C476.219 20.192 476.605 20.3081 477 20.3081C477.395 20.3081 477.781 20.192 478.111 19.9741C478.44 19.7563 478.699 19.4464 478.853 19.0829H475.147Z" fill="#6B7280"/>
<path fill-rule="evenodd" clip-rule="evenodd" d="M494.833 9.75C494.235 9.75 493.75 10.235 493.75 10.8332V13.3334C493.75 13.9317 494.235 14.4167 494.833 14.4167H497.333C497.932 14.4167 498.417 13.9317 498.417 13.3334V10.8332C498.417 10.235 497.932 9.75 497.333 9.75H494.833ZM500.667 9.75C500.068 9.75 499.583 10.235 499.583 10.8332V13.3334C499.583 13.9317 500.068 14.4167 500.667 14.4167H503.167C503.765 14.4167 504.25 13.9317 504.25 13.3334V10.8332C504.25 10.235 503.765 9.75 503.167 9.75H500.667ZM494.833 15.5833C494.235 15.5833 493.75 16.0683 493.75 16.6666V19.1667C493.75 19.765 494.235 20.25 494.833 20.25H497.333C497.932 20.25 498.417 19.765 498.417 19.1667V16.6666C498.417 16.0683 497.932 15.5833 497.333 15.5833H494.833ZM500.667 15.5833C500.068 15.5833 499.583 16.0683 499.583 16.6666V19.1667C499.583 19.765 500.068 20.25 500.667 20.25H503.167C503.765 20.25 504.25 19.765 504.25 19.1667V16.6666C504.25 16.0683 503.765 15.5833 503.167 15.5833H500.667Z" fill="#6B7280"/>
<path fill-rule="evenodd" clip-rule="evenodd" d="M520.999 10.3337C518.422 10.3337 516.333 12.423 516.333 15.0003C516.333 16.3391 516.896 17.5462 517.799 18.3972C517.965 18.0534 518.198 17.7428 518.488 17.4851C519.019 17.0131 519.704 16.7517 520.415 16.7503L520.416 16.7503L521.584 16.7503C522.294 16.7517 522.98 17.0131 523.511 17.4851C523.801 17.7428 524.034 18.0534 524.199 18.3972C525.102 17.5462 525.666 16.3391 525.666 15.0003C525.666 12.423 523.577 10.3337 520.999 10.3337ZM521.572 20.8059C524.525 20.5181 526.833 18.0287 526.833 15.0003C526.833 11.7787 524.221 9.16699 520.999 9.16699C517.778 9.16699 515.166 11.7787 515.166 15.0003C515.166 18.0287 517.474 20.5181 520.426 20.8059C520.616 20.8245 520.807 20.8338 520.999 20.8337M520.999 19.667C520.999 19.667 520.999 19.667 520.999 19.667C521 19.667 521 19.667 521 19.667C521.194 19.667 521.385 19.6551 521.573 19.6321C522.153 19.5606 522.714 19.38 523.228 19.0993C523.132 18.8153 522.963 18.559 522.736 18.3571C522.418 18.0745 522.008 17.9179 521.582 17.917H520.417C519.991 17.9179 519.581 18.0745 519.263 18.3571C519.036 18.559 518.867 18.8153 518.771 19.0993C519.284 19.38 519.846 19.5606 520.426 19.6321C520.614 19.6551 520.805 19.667 520.999 19.667ZM520.999 20.8337C521.191 20.8338 521.382 20.8245 521.572 20.8059L520.999 20.8337ZM520.999 12.667C520.355 12.667 519.833 13.1893 519.833 13.8337C519.833 14.478 520.355 15.0003 520.999 15.0003C521.644 15.0003 522.166 14.478 522.166 13.8337C522.166 13.1893 521.644 12.667 520.999 12.667ZM518.666 13.8337C518.666 12.545 519.711 11.5003 520.999 11.5003C522.288 11.5003 523.333 12.545 523.333 13.8337C523.333 15.1223 522.288 16.167 520.999 16.167C519.711 16.167 518.666 15.1223 518.666 13.8337Z" fill="#6B7280"/>
</g>
<rect width="536" height="315" transform="translate(0 30)" fill="#F4F4F5"/>
<mask id="path-16-inside-2_6219_5350" fill="white">
<path d="M0 30H103V345H0V30Z"/>
</mask>
<path d="M0 30H103V345H0V30Z" fill="#374151"/>
<path d="M102.5 30V345H103.5V30H102.5Z" fill="#4B5563" mask="url(#path-16-inside-2_6219_5350)"/>
<mask id="path-18-inside-3_6219_5350" fill="white">
<path d="M12 42H91V122H12V42Z"/>
</mask>
<path d="M91 121.5H12V122.5H91V121.5Z" fill="#4B5563" mask="url(#path-18-inside-3_6219_5350)"/>
<rect x="12" y="42" width="5" height="5" rx="2.5" fill="#6B7280"/>
<rect x="21" y="42" width="57" height="5" rx="2.5" fill="#6B7280"/>
<rect x="12" y="57" width="5" height="5" rx="2.5" fill="#6B7280"/>
<rect x="21" y="57" width="48.4961" height="5" rx="2.5" fill="#6B7280"/>
<rect x="12" y="72" width="5" height="5" rx="2.5" fill="#6B7280"/>
<rect x="21" y="72" width="61" height="5" rx="2.5" fill="#6B7280"/>
<rect x="12" y="87" width="5" height="5" rx="2.5" fill="#6B7280"/>
<rect x="21" y="87" width="39" height="5" rx="2.5" fill="#6B7280"/>
<rect x="12" y="102" width="5" height="5" rx="2.5" fill="#6B7280"/>
<rect x="21" y="102" width="61" height="5" rx="2.5" fill="#6B7280"/>
<rect x="12" y="137" width="5" height="5" rx="2.5" fill="#6B7280"/>
<rect x="21" y="137" width="42" height="5" rx="2.5" fill="#6B7280"/>
<rect x="12" y="152" width="5" height="5" rx="2.5" fill="#6B7280"/>
<rect x="21" y="152" width="25" height="5" rx="2.5" fill="#6B7280"/>
<rect x="12" y="167" width="5" height="5" rx="2.5" fill="#6B7280"/>
<rect x="21" y="167" width="41" height="5" rx="2.5" fill="#6B7280"/>
<rect x="32" y="328" width="5" height="5" rx="2.5" fill="#6B7280"/>
<rect x="49" y="328" width="5" height="5" rx="2.5" fill="#6B7280"/>
<rect x="66" y="328" width="5" height="5" rx="2.5" fill="#6B7280"/>
<mask id="path-39-inside-4_6219_5350" fill="white">
<path d="M103 30H536V64H103V30Z"/>
</mask>
<path d="M103 30H536V64H103V30Z" fill="#1F2A37"/>
<path d="M536 63.5H103V64.5H536V63.5Z" fill="#374151" mask="url(#path-39-inside-4_6219_5350)"/>
<path fill-rule="evenodd" clip-rule="evenodd" d="M116.646 47.3536C116.451 47.1583 116.451 46.8417 116.646 46.6464L120.146 43.1464C120.342 42.9512 120.658 42.9512 120.854 43.1464C121.049 43.3417 121.049 43.6583 120.854 43.8536L117.707 47L120.854 50.1464C121.049 50.3417 121.049 50.6583 120.854 50.8536C120.658 51.0488 120.342 51.0488 120.146 50.8536L116.646 47.3536Z" fill="#6B7280"/>
<path fill-rule="evenodd" clip-rule="evenodd" d="M138.354 46.6464C138.549 46.8417 138.549 47.1583 138.354 47.3536L134.854 50.8536C134.658 51.0488 134.342 51.0488 134.146 50.8536C133.951 50.6583 133.951 50.3417 134.146 50.1464L137.293 47L134.146 43.8536C133.951 43.6583 133.951 43.3417 134.146 43.1464C134.342 42.9512 134.658 42.9512 134.854 43.1464L138.354 46.6464Z" fill="#6B7280"/>
<rect x="154" y="44" width="58" height="6" rx="3" fill="#6B7280"/>
<rect x="434" y="40" width="36" height="14" rx="2" fill="#374151"/>
<rect x="440" y="45" width="24" height="4" rx="1" fill="#6B7280"/>
<rect x="478" y="40" width="48" height="14" rx="2" fill="#1A56DB"/>
<g clip-path="url(#clip1_6219_5350)">
<path d="M489.133 46.7329H487.266V44.8663C487.266 44.7956 487.238 44.7277 487.188 44.6777C487.138 44.6277 487.07 44.5996 487 44.5996C486.929 44.5996 486.861 44.6277 486.811 44.6777C486.761 44.7277 486.733 44.7956 486.733 44.8663V46.7329H484.866C484.796 46.7329 484.728 46.761 484.678 46.811C484.628 46.8611 484.6 46.9289 484.6 46.9996C484.6 47.0703 484.628 47.1382 484.678 47.1882C484.728 47.2382 484.796 47.2663 484.866 47.2663H486.733V49.1329C486.733 49.2037 486.761 49.2715 486.811 49.3215C486.861 49.3715 486.929 49.3996 487 49.3996C487.07 49.3996 487.138 49.3715 487.188 49.3215C487.238 49.2715 487.266 49.2037 487.266 49.1329V47.2663H489.133C489.204 47.2663 489.271 47.2382 489.322 47.1882C489.372 47.1382 489.4 47.0703 489.4 46.9996C489.4 46.9289 489.372 46.8611 489.322 46.811C489.271 46.761 489.204 46.7329 489.133 46.7329Z" fill="white" stroke="white" stroke-width="0.5"/>
</g>
<rect x="494" y="45" width="26" height="4" rx="1" fill="white"/>
<mask id="path-49-inside-5_6219_5350" fill="white">
<path d="M103 64H164.857V139H103V64Z"/>
</mask>
<path d="M103 64H164.857V139H103V64Z" fill="#1F2A37"/>
<path d="M164.357 64V139H165.357V64H164.357Z" fill="#374151" mask="url(#path-49-inside-5_6219_5350)"/>
<path d="M135.01 76.4545V83H133.824V77.6083H133.786L132.255 78.5863V77.4996L133.881 76.4545H135.01Z" fill="#6B7280"/>
<rect x="112.928" y="102" width="42" height="5" rx="2.5" fill="#4B5563"/>
<mask id="path-53-inside-6_6219_5350" fill="white">
<path d="M164.857 64H226.715V139H164.857V64Z"/>
</mask>
<path d="M164.857 64H226.715V139H164.857V64Z" fill="#1F2A37"/>
<path d="M226.215 64V139H227.215V64H226.215Z" fill="#374151" mask="url(#path-53-inside-6_6219_5350)"/>
<path d="M193.572 83V82.1435L195.844 79.9158C196.062 79.6964 196.243 79.5014 196.388 79.331C196.532 79.1605 196.641 78.9954 196.714 78.8356C196.786 78.6758 196.822 78.5053 196.822 78.3242C196.822 78.1175 196.775 77.9407 196.682 77.7937C196.588 77.6445 196.459 77.5295 196.295 77.4485C196.131 77.3675 195.944 77.3271 195.736 77.3271C195.52 77.3271 195.332 77.3718 195.17 77.4613C195.008 77.5487 194.882 77.6733 194.793 77.8352C194.705 77.9972 194.662 78.19 194.662 78.4137H193.534C193.534 77.9982 193.628 77.6371 193.818 77.3303C194.008 77.0234 194.269 76.7859 194.601 76.6175C194.936 76.4492 195.319 76.3651 195.752 76.3651C196.191 76.3651 196.576 76.4471 196.909 76.6112C197.241 76.7752 197.499 77 197.682 77.2855C197.867 77.571 197.96 77.897 197.96 78.2635C197.96 78.5085 197.913 78.7493 197.819 78.9858C197.726 79.2223 197.561 79.4844 197.324 79.772C197.09 80.0597 196.76 80.408 196.336 80.8171L195.208 81.9645V82.0092H198.059V83H193.572Z" fill="#6B7280"/>
<mask id="path-56-inside-7_6219_5350" fill="white">
<path d="M226.715 64H288.572V139H226.715V64Z"/>
</mask>
<path d="M226.715 64H288.572V139H226.715V64Z" fill="#1F2A37"/>
<path d="M288.072 64V139H289.072V64H288.072Z" fill="#374151" mask="url(#path-56-inside-7_6219_5350)"/>
<path d="M257.642 83.0895C257.182 83.0895 256.773 83.0107 256.415 82.853C256.059 82.6953 255.778 82.4759 255.571 82.1946C255.364 81.9134 255.255 81.5884 255.242 81.2198H256.444C256.454 81.3967 256.513 81.5511 256.619 81.6832C256.726 81.8132 256.868 81.9144 257.045 81.9869C257.221 82.0593 257.42 82.0955 257.639 82.0955C257.873 82.0955 258.081 82.055 258.262 81.9741C258.443 81.891 258.585 81.7759 258.687 81.6289C258.79 81.4819 258.84 81.3125 258.837 81.1207C258.84 80.9226 258.788 80.7479 258.684 80.5966C258.58 80.4453 258.428 80.3271 258.23 80.2418C258.034 80.1566 257.798 80.114 257.521 80.114H256.942V79.1999H257.521C257.749 79.1999 257.948 79.1605 258.118 79.0817C258.291 79.0028 258.426 78.892 258.524 78.7493C258.622 78.6044 258.67 78.4371 258.668 78.2475C258.67 78.0621 258.629 77.9013 258.543 77.7649C258.46 77.6264 258.342 77.5188 258.189 77.4421C258.037 77.3654 257.86 77.3271 257.655 77.3271C257.455 77.3271 257.269 77.3633 257.099 77.4357C256.928 77.5082 256.791 77.6115 256.687 77.7457C256.582 77.8778 256.527 78.0355 256.52 78.2188H255.379C255.388 77.8523 255.493 77.5305 255.696 77.2536C255.9 76.9744 256.173 76.7571 256.514 76.6016C256.855 76.4439 257.237 76.3651 257.661 76.3651C258.098 76.3651 258.477 76.4471 258.799 76.6112C259.123 76.7731 259.373 76.9915 259.55 77.2663C259.727 77.5412 259.815 77.8448 259.815 78.1772C259.818 78.5458 259.709 78.8548 259.489 79.104C259.272 79.3533 258.987 79.5163 258.633 79.593V79.6442C259.093 79.7081 259.446 79.8786 259.691 80.1555C259.938 80.4304 260.061 80.7724 260.058 81.1815C260.058 81.5479 259.954 81.8761 259.745 82.1658C259.538 82.4535 259.253 82.6793 258.889 82.8434C258.526 83.0075 258.111 83.0895 257.642 83.0895Z" fill="#6B7280"/>
<rect x="236.643" y="102" width="42" height="5" rx="2.5" fill="#5521B5"/>
<rect x="234.143" y="112" width="47" height="5" rx="2.5" fill="#05505C"/>
<mask id="path-61-inside-8_6219_5350" fill="white">
<path d="M288.572 64H350.429V139H288.572V64Z"/>
</mask>
<path d="M288.572 64H350.429V139H288.572V64Z" fill="#1F2A37"/>
<path d="M349.929 64V139H350.929V64H349.929Z" fill="#374151" mask="url(#path-61-inside-8_6219_5350)"/>
<path d="M316.966 81.7855V80.8427L319.744 76.4545H320.53V77.7969H320.051L318.181 80.7596V80.8107H322.058V81.7855H316.966ZM320.089 83V81.4979L320.102 81.076V76.4545H321.22V83H320.089Z" fill="#6B7280"/>
<mask id="path-64-inside-9_6219_5350" fill="white">
<path d="M350.428 64H412.285V139H350.428V64Z"/>
</mask>
<path d="M350.428 64H412.285V139H350.428V64Z" fill="#1F2A37"/>
<path d="M411.785 64V139H412.785V64H411.785Z" fill="#374151" mask="url(#path-64-inside-9_6219_5350)"/>
<path d="M381.365 83.0895C380.939 83.0895 380.558 83.0096 380.221 82.8498C379.884 82.6879 379.617 82.4663 379.419 82.185C379.223 81.9038 379.118 81.582 379.105 81.2198H380.256C380.277 81.4883 380.393 81.7077 380.604 81.8782C380.815 82.0465 381.069 82.1307 381.365 82.1307C381.597 82.1307 381.804 82.0774 381.985 81.9709C382.166 81.8643 382.309 81.7163 382.413 81.5266C382.518 81.337 382.569 81.1207 382.567 80.8778C382.569 80.6307 382.517 80.4112 382.41 80.2195C382.304 80.0277 382.158 79.8775 381.972 79.7688C381.787 79.658 381.574 79.6026 381.333 79.6026C381.137 79.6005 380.944 79.6367 380.755 79.7113C380.565 79.7859 380.415 79.8839 380.304 80.0053L379.233 79.8295L379.575 76.4545H383.372V77.4453H380.556L380.368 79.1808H380.406C380.528 79.038 380.699 78.9197 380.921 78.826C381.142 78.7301 381.385 78.6822 381.65 78.6822C382.046 78.6822 382.4 78.7759 382.711 78.9634C383.022 79.1488 383.267 79.4045 383.446 79.7305C383.625 80.0565 383.714 80.4293 383.714 80.8491C383.714 81.2816 383.614 81.6673 383.414 82.006C383.216 82.3427 382.94 82.608 382.586 82.8018C382.234 82.9936 381.827 83.0895 381.365 83.0895Z" fill="#6B7280"/>
<mask id="path-67-inside-10_6219_5350" fill="white">
<path d="M412.285 64H474.142V139H412.285V64Z"/>
</mask>
<path d="M412.285 64H474.142V139H412.285V64Z" fill="#1F2A37"/>
<path d="M473.642 64V139H474.642V64H473.642Z" fill="#374151" mask="url(#path-67-inside-10_6219_5350)"/>
<path d="M443.274 83.0895C442.96 83.0874 442.655 83.033 442.356 82.9265C442.058 82.8178 441.79 82.642 441.551 82.3991C441.312 82.1541 441.123 81.8292 440.982 81.4244C440.841 81.0174 440.772 80.5135 440.774 79.9126C440.774 79.3523 440.834 78.8526 440.953 78.4137C441.073 77.9748 441.244 77.604 441.468 77.3015C441.692 76.9968 441.961 76.7646 442.276 76.6048C442.594 76.445 442.949 76.3651 443.341 76.3651C443.752 76.3651 444.116 76.446 444.434 76.608C444.753 76.7699 445.011 76.9915 445.207 77.2727C445.403 77.5518 445.525 77.8672 445.572 78.2188H444.405C444.345 77.9673 444.223 77.767 444.037 77.6179C443.854 77.4666 443.622 77.391 443.341 77.391C442.887 77.391 442.537 77.5881 442.292 77.9822C442.05 78.3764 441.927 78.9176 441.925 79.6058H441.97C442.074 79.4183 442.209 79.2575 442.376 79.1232C442.542 78.989 442.729 78.8857 442.938 78.8132C443.149 78.7386 443.372 78.7013 443.606 78.7013C443.99 78.7013 444.334 78.793 444.638 78.9762C444.945 79.1594 445.188 79.4119 445.367 79.7337C445.546 80.0533 445.634 80.4197 445.632 80.8331C445.634 81.2635 445.536 81.6502 445.338 81.9933C445.14 82.3342 444.864 82.6026 444.51 82.7987C444.157 82.9947 443.744 83.0916 443.274 83.0895ZM443.267 82.1307C443.499 82.1307 443.707 82.0742 443.89 81.9613C444.074 81.8484 444.219 81.696 444.325 81.5043C444.432 81.3125 444.484 81.0973 444.482 80.8587C444.484 80.6243 444.433 80.4123 444.328 80.2227C444.226 80.033 444.084 79.8828 443.903 79.772C443.722 79.6612 443.515 79.6058 443.283 79.6058C443.111 79.6058 442.95 79.6388 442.801 79.7049C442.651 79.771 442.521 79.8626 442.411 79.9798C442.3 80.0948 442.213 80.229 442.149 80.3825C442.087 80.5337 442.055 80.6957 442.053 80.8683C442.055 81.0962 442.108 81.3061 442.213 81.4979C442.317 81.6896 442.461 81.843 442.644 81.9581C442.827 82.0732 443.035 82.1307 443.267 82.1307Z" fill="#6B7280"/>
<rect x="474.643" y="64.5" width="60.8571" height="74" fill="#1F2A37"/>
<rect x="474.643" y="64.5" width="60.8571" height="74" stroke="#374151"/>
<path d="M503.251 83L506.034 77.4901V77.4453H502.803V76.4545H507.262V77.4677L504.481 83H503.251Z" fill="#6B7280"/>
<mask id="path-72-outside-11_6219_5350" maskUnits="userSpaceOnUse" x="103" y="135" width="433" height="74" fill="black">
<rect fill="white" x="103" y="135" width="433" height="74"/>
<path d="M103 136H536V209H103V136Z"/>
</mask>
<path d="M103 136.5H536V135.5H103V136.5Z" fill="#374151" mask="url(#path-72-outside-11_6219_5350)"/>
<mask id="path-74-inside-12_6219_5350" fill="white">
<path d="M103 136H164.857V211H103V136Z"/>
</mask>
<path d="M103 136H164.857V211H103V136Z" fill="#1F2A37"/>
<path d="M164.357 136V211H165.357V136H164.357Z" fill="#374151" mask="url(#path-74-inside-12_6219_5350)"/>
<path d="M133.931 155.089C133.456 155.089 133.034 155.01 132.666 154.85C132.299 154.69 132.012 154.472 131.803 154.195C131.596 153.915 131.494 153.599 131.496 153.245C131.494 152.971 131.553 152.718 131.675 152.488C131.796 152.258 131.96 152.066 132.167 151.913C132.376 151.757 132.608 151.658 132.864 151.615V151.571C132.527 151.496 132.254 151.325 132.046 151.056C131.839 150.786 131.737 150.473 131.739 150.12C131.737 149.783 131.83 149.483 132.02 149.218C132.21 148.954 132.47 148.746 132.8 148.595C133.13 148.442 133.507 148.365 133.931 148.365C134.351 148.365 134.725 148.442 135.053 148.595C135.383 148.746 135.643 148.954 135.833 149.218C136.025 149.483 136.121 149.783 136.121 150.12C136.121 150.473 136.015 150.786 135.804 151.056C135.595 151.325 135.326 151.496 134.996 151.571V151.615C135.251 151.658 135.481 151.757 135.686 151.913C135.893 152.066 136.057 152.258 136.178 152.488C136.302 152.718 136.364 152.971 136.364 153.245C136.364 153.599 136.259 153.915 136.05 154.195C135.841 154.472 135.554 154.69 135.187 154.85C134.823 155.01 134.404 155.089 133.931 155.089ZM133.931 154.175C134.176 154.175 134.389 154.134 134.571 154.051C134.752 153.966 134.892 153.846 134.992 153.693C135.093 153.539 135.144 153.363 135.146 153.162C135.144 152.953 135.089 152.769 134.983 152.609C134.878 152.447 134.735 152.321 134.551 152.229C134.37 152.137 134.164 152.092 133.931 152.092C133.697 152.092 133.488 152.137 133.305 152.229C133.122 152.321 132.977 152.447 132.87 152.609C132.766 152.769 132.715 152.953 132.717 153.162C132.715 153.363 132.764 153.539 132.864 153.693C132.964 153.844 133.105 153.962 133.286 154.048C133.469 154.133 133.684 154.175 133.931 154.175ZM133.931 151.194C134.132 151.194 134.308 151.153 134.462 151.072C134.617 150.991 134.74 150.878 134.829 150.733C134.919 150.588 134.965 150.421 134.967 150.232C134.965 150.044 134.92 149.88 134.833 149.739C134.745 149.597 134.624 149.487 134.468 149.41C134.313 149.331 134.134 149.292 133.931 149.292C133.725 149.292 133.542 149.331 133.385 149.41C133.229 149.487 133.108 149.597 133.02 149.739C132.935 149.88 132.894 150.044 132.896 150.232C132.894 150.421 132.936 150.588 133.024 150.733C133.113 150.876 133.236 150.989 133.391 151.072C133.549 151.153 133.729 151.194 133.931 151.194Z" fill="#6B7280"/>
<mask id="path-77-inside-13_6219_5350" fill="white">
<path d="M164.857 136H226.715V211H164.857V136Z"/>
</mask>
<path d="M164.857 136H226.715V211H164.857V136Z" fill="#1F2A37"/>
<path d="M226.215 136V211H227.215V136H226.215Z" fill="#374151" mask="url(#path-77-inside-13_6219_5350)"/>
<path d="M195.721 148.365C196.034 148.367 196.339 148.423 196.635 148.531C196.934 148.638 197.202 148.812 197.441 149.055C197.679 149.296 197.869 149.619 198.01 150.024C198.15 150.429 198.221 150.929 198.221 151.526C198.223 152.088 198.163 152.591 198.042 153.034C197.922 153.475 197.751 153.848 197.527 154.153C197.303 154.458 197.034 154.69 196.718 154.85C196.403 155.01 196.048 155.089 195.654 155.089C195.241 155.089 194.874 155.009 194.555 154.847C194.237 154.685 193.98 154.463 193.784 154.182C193.588 153.901 193.468 153.579 193.423 153.217H194.59C194.65 153.477 194.771 153.683 194.954 153.837C195.14 153.988 195.373 154.064 195.654 154.064C196.108 154.064 196.457 153.866 196.702 153.472C196.947 153.078 197.07 152.531 197.07 151.83H197.025C196.921 152.017 196.786 152.179 196.619 152.315C196.453 152.45 196.265 152.553 196.054 152.625C195.845 152.698 195.623 152.734 195.389 152.734C195.005 152.734 194.66 152.642 194.353 152.459C194.049 152.276 193.807 152.025 193.628 151.705C193.451 151.385 193.362 151.02 193.359 150.609C193.359 150.183 193.457 149.8 193.653 149.461C193.852 149.12 194.127 148.852 194.481 148.656C194.835 148.458 195.248 148.361 195.721 148.365ZM195.724 149.324C195.494 149.324 195.287 149.38 195.101 149.493C194.918 149.604 194.773 149.755 194.667 149.947C194.562 150.137 194.51 150.349 194.51 150.583C194.512 150.815 194.564 151.026 194.667 151.216C194.771 151.406 194.913 151.556 195.092 151.667C195.273 151.777 195.479 151.833 195.712 151.833C195.884 151.833 196.045 151.8 196.194 151.734C196.343 151.668 196.473 151.576 196.584 151.459C196.697 151.339 196.784 151.204 196.846 151.053C196.91 150.902 196.941 150.742 196.939 150.574C196.939 150.35 196.886 150.143 196.779 149.953C196.675 149.764 196.531 149.612 196.348 149.496C196.167 149.381 195.959 149.324 195.724 149.324Z" fill="#6B7280"/>
<mask id="path-80-inside-14_6219_5350" fill="white">
<path d="M226.715 136H288.572V211H226.715V136Z"/>
</mask>
<path d="M226.715 136H288.572V211H226.715V136Z" fill="#1F2A37"/>
<path d="M288.072 136V211H289.072V136H288.072Z" fill="#374151" mask="url(#path-80-inside-14_6219_5350)"/>
<path d="M255.723 148.455V155H254.537V149.608H254.499L252.968 150.586V149.5L254.595 148.455H255.723ZM259.804 155.125C259.278 155.125 258.826 154.991 258.449 154.725C258.074 154.457 257.785 154.07 257.583 153.565C257.383 153.058 257.283 152.447 257.283 151.734C257.285 151.02 257.386 150.413 257.586 149.912C257.789 149.409 258.077 149.026 258.452 148.761C258.83 148.497 259.28 148.365 259.804 148.365C260.328 148.365 260.779 148.497 261.156 148.761C261.533 149.026 261.822 149.409 262.022 149.912C262.225 150.415 262.326 151.022 262.326 151.734C262.326 152.45 262.225 153.061 262.022 153.568C261.822 154.073 261.533 154.459 261.156 154.725C260.781 154.991 260.331 155.125 259.804 155.125ZM259.804 154.124C260.213 154.124 260.536 153.923 260.773 153.52C261.011 153.115 261.131 152.52 261.131 151.734C261.131 151.214 261.076 150.777 260.968 150.423C260.859 150.07 260.706 149.803 260.507 149.624C260.309 149.443 260.075 149.353 259.804 149.353C259.397 149.353 259.076 149.555 258.839 149.96C258.603 150.363 258.483 150.954 258.481 151.734C258.479 152.256 258.531 152.695 258.638 153.05C258.746 153.406 258.9 153.675 259.098 153.856C259.296 154.035 259.532 154.124 259.804 154.124Z" fill="#6B7280"/>
<mask id="path-83-inside-15_6219_5350" fill="white">
<path d="M288.572 136H350.429V211H288.572V136Z"/>
</mask>
<path d="M288.572 136H350.429V211H288.572V136Z" fill="#1F2A37"/>
<path d="M349.929 136V211H350.929V136H349.929Z" fill="#374151" mask="url(#path-83-inside-15_6219_5350)"/>
<path d="M318.42 148.455V155H317.234V149.608H317.196L315.665 150.586V149.5L317.292 148.455H318.42ZM322.744 148.455V155H321.558V149.608H321.52L319.989 150.586V149.5L321.616 148.455H322.744Z" fill="#6B7280"/>
<mask id="path-86-inside-16_6219_5350" fill="white">
<path d="M350.428 136H412.285V211H350.428V136Z"/>
</mask>
<path d="M350.428 136H412.285V211H350.428V136Z" fill="#1F2A37"/>
<path d="M411.785 136V211H412.785V136H411.785Z" fill="#374151" mask="url(#path-86-inside-16_6219_5350)"/>
<path d="M379.642 148.455V155H378.457V149.608H378.418L376.887 150.586V149.5L378.514 148.455H379.642ZM381.304 155V154.143L383.577 151.916C383.794 151.696 383.975 151.501 384.12 151.331C384.265 151.161 384.374 150.995 384.446 150.836C384.518 150.676 384.555 150.505 384.555 150.324C384.555 150.118 384.508 149.941 384.414 149.794C384.32 149.645 384.191 149.529 384.027 149.449C383.863 149.368 383.677 149.327 383.468 149.327C383.253 149.327 383.064 149.372 382.902 149.461C382.74 149.549 382.615 149.673 382.525 149.835C382.438 149.997 382.394 150.19 382.394 150.414H381.266C381.266 149.998 381.361 149.637 381.55 149.33C381.74 149.023 382.001 148.786 382.333 148.618C382.668 148.449 383.051 148.365 383.484 148.365C383.923 148.365 384.309 148.447 384.641 148.611C384.973 148.775 385.231 149 385.414 149.286C385.6 149.571 385.692 149.897 385.692 150.263C385.692 150.509 385.646 150.749 385.552 150.986C385.458 151.222 385.293 151.484 385.056 151.772C384.822 152.06 384.493 152.408 384.069 152.817L382.941 153.964V154.009H385.792V155H381.304Z" fill="#6B7280"/>
<rect x="360.355" y="174" width="42" height="5" rx="2.5" fill="#99154B"/>
<rect x="357.855" y="184" width="47" height="5" rx="2.5" fill="#42389D"/>
<mask id="path-91-inside-17_6219_5350" fill="white">
<path d="M412.285 136H474.142V211H412.285V136Z"/>
</mask>
<path d="M412.285 136H474.142V211H412.285V136Z" fill="#1F2A37"/>
<path d="M473.642 136V211H474.642V136H473.642Z" fill="#374151" mask="url(#path-91-inside-17_6219_5350)"/>
<path d="M441.364 148.455V155H440.178V149.608H440.14L438.609 150.586V149.5L440.235 148.455H441.364ZM445.375 155.089C444.914 155.089 444.505 155.011 444.147 154.853C443.792 154.695 443.51 154.476 443.304 154.195C443.097 153.913 442.987 153.588 442.974 153.22H444.176C444.187 153.397 444.245 153.551 444.352 153.683C444.458 153.813 444.6 153.914 444.777 153.987C444.954 154.059 445.152 154.096 445.371 154.096C445.606 154.096 445.814 154.055 445.995 153.974C446.176 153.891 446.317 153.776 446.42 153.629C446.522 153.482 446.572 153.312 446.57 153.121C446.572 152.923 446.521 152.748 446.417 152.597C446.312 152.445 446.161 152.327 445.963 152.242C445.767 152.157 445.53 152.114 445.253 152.114H444.675V151.2H445.253C445.481 151.2 445.68 151.161 445.851 151.082C446.023 151.003 446.159 150.892 446.257 150.749C446.355 150.604 446.403 150.437 446.401 150.248C446.403 150.062 446.361 149.901 446.276 149.765C446.193 149.626 446.075 149.519 445.921 149.442C445.77 149.365 445.592 149.327 445.387 149.327C445.187 149.327 445.002 149.363 444.831 149.436C444.661 149.508 444.523 149.612 444.419 149.746C444.315 149.878 444.259 150.036 444.253 150.219H443.112C443.12 149.852 443.226 149.531 443.428 149.254C443.633 148.974 443.905 148.757 444.246 148.602C444.587 148.444 444.97 148.365 445.394 148.365C445.831 148.365 446.21 148.447 446.532 148.611C446.855 148.773 447.106 148.991 447.283 149.266C447.459 149.541 447.548 149.845 447.548 150.177C447.55 150.546 447.441 150.855 447.222 151.104C447.005 151.353 446.719 151.516 446.365 151.593V151.644C446.826 151.708 447.178 151.879 447.423 152.156C447.67 152.43 447.793 152.772 447.791 153.181C447.791 153.548 447.686 153.876 447.478 154.166C447.271 154.453 446.985 154.679 446.621 154.843C446.259 155.007 445.843 155.089 445.375 155.089Z" fill="#6B7280"/>
<rect x="474.643" y="136.5" width="60.8571" height="74" fill="#1F2A37"/>
<rect x="474.643" y="136.5" width="60.8571" height="74" stroke="#374151"/>
<path d="M503.155 148.455V155H501.969V149.608H501.931L500.4 150.586V149.5L502.027 148.455H503.155ZM504.699 153.786V152.843L507.476 148.455H508.262V149.797H507.783L505.913 152.76V152.811H509.79V153.786H504.699ZM507.821 155V153.498L507.834 153.076V148.455H508.953V155H507.821Z" fill="#6B7280"/>
<mask id="path-96-outside-18_6219_5350" maskUnits="userSpaceOnUse" x="103" y="208" width="433" height="73" fill="black">
<rect fill="white" x="103" y="208" width="433" height="73"/>
<path d="M103 209H536V281H103V209Z"/>
</mask>
<path d="M103 209.5H536V208.5H103V209.5Z" fill="#374151" mask="url(#path-96-outside-18_6219_5350)"/>
<mask id="path-98-inside-19_6219_5350" fill="white">
<path d="M103 209H164.857V284H103V209Z"/>
</mask>
<path d="M103 209H164.857V284H103V209Z" fill="#1F2A37"/>
<path d="M164.357 209V284H165.357V209H164.357Z" fill="#374151" mask="url(#path-98-inside-19_6219_5350)"/>
<path d="M132.162 221.455V228H130.976V222.608H130.938L129.407 223.586V222.5L131.034 221.455H132.162ZM136.099 228.089C135.673 228.089 135.292 228.01 134.955 227.85C134.619 227.688 134.351 227.466 134.153 227.185C133.957 226.904 133.853 226.582 133.84 226.22H134.99C135.012 226.488 135.128 226.708 135.339 226.878C135.55 227.047 135.803 227.131 136.099 227.131C136.332 227.131 136.538 227.077 136.719 226.971C136.901 226.864 137.043 226.716 137.148 226.527C137.252 226.337 137.303 226.121 137.301 225.878C137.303 225.631 137.251 225.411 137.145 225.219C137.038 225.028 136.892 224.877 136.707 224.769C136.521 224.658 136.308 224.603 136.067 224.603C135.871 224.6 135.679 224.637 135.489 224.711C135.299 224.786 135.149 224.884 135.038 225.005L133.968 224.83L134.31 221.455H138.107V222.445H135.291L135.102 224.181H135.141C135.262 224.038 135.434 223.92 135.655 223.826C135.877 223.73 136.12 223.682 136.384 223.682C136.78 223.682 137.134 223.776 137.445 223.963C137.756 224.149 138.001 224.404 138.18 224.73C138.359 225.056 138.449 225.429 138.449 225.849C138.449 226.282 138.348 226.667 138.148 227.006C137.95 227.343 137.674 227.608 137.32 227.802C136.969 227.994 136.562 228.089 136.099 228.089Z" fill="#6B7280"/>
<mask id="path-101-inside-20_6219_5350" fill="white">
<path d="M164.857 209H226.715V284H164.857V209Z"/>
</mask>
<path d="M164.857 209H226.715V284H164.857V209Z" fill="#1F2A37"/>
<path d="M226.215 209V284H227.215V209H226.215Z" fill="#374151" mask="url(#path-101-inside-20_6219_5350)"/>
<path d="M193.949 221.455V228H192.763V222.608H192.725L191.194 223.586V222.5L192.821 221.455H193.949ZM198.008 228.089C197.695 228.087 197.389 228.033 197.091 227.926C196.792 227.818 196.524 227.642 196.285 227.399C196.047 227.154 195.857 226.829 195.716 226.424C195.576 226.017 195.507 225.513 195.509 224.913C195.509 224.352 195.568 223.853 195.688 223.414C195.807 222.975 195.979 222.604 196.202 222.301C196.426 221.997 196.695 221.765 197.011 221.605C197.328 221.445 197.683 221.365 198.075 221.365C198.486 221.365 198.851 221.446 199.168 221.608C199.488 221.77 199.746 221.991 199.942 222.273C200.138 222.552 200.259 222.867 200.306 223.219H199.139C199.08 222.967 198.957 222.767 198.772 222.618C198.589 222.467 198.356 222.391 198.075 222.391C197.621 222.391 197.272 222.588 197.027 222.982C196.784 223.376 196.661 223.918 196.659 224.606H196.704C196.808 224.418 196.944 224.257 197.11 224.123C197.276 223.989 197.464 223.886 197.672 223.813C197.883 223.739 198.106 223.701 198.34 223.701C198.724 223.701 199.068 223.793 199.373 223.976C199.68 224.159 199.922 224.412 200.101 224.734C200.28 225.053 200.369 225.42 200.367 225.833C200.369 226.263 200.271 226.65 200.073 226.993C199.874 227.334 199.599 227.603 199.245 227.799C198.891 227.995 198.479 228.092 198.008 228.089ZM198.002 227.131C198.234 227.131 198.442 227.074 198.625 226.961C198.808 226.848 198.953 226.696 199.059 226.504C199.166 226.312 199.218 226.097 199.216 225.859C199.218 225.624 199.167 225.412 199.063 225.223C198.96 225.033 198.819 224.883 198.638 224.772C198.456 224.661 198.25 224.606 198.018 224.606C197.845 224.606 197.684 224.639 197.535 224.705C197.386 224.771 197.256 224.863 197.145 224.98C197.034 225.095 196.947 225.229 196.883 225.382C196.821 225.534 196.789 225.696 196.787 225.868C196.789 226.096 196.843 226.306 196.947 226.498C197.051 226.69 197.195 226.843 197.378 226.958C197.562 227.073 197.769 227.131 198.002 227.131Z" fill="#6B7280"/>
<mask id="path-104-inside-21_6219_5350" fill="white">
<path d="M226.715 209H288.572V284H226.715V209Z"/>
</mask>
<path d="M226.715 209H288.572V284H226.715V209Z" fill="#1F2A37"/>
<path d="M288.072 209V284H289.072V209H288.072Z" fill="#374151" mask="url(#path-104-inside-21_6219_5350)"/>
<path d="M256.083 221.455V228H254.898V222.608H254.859L253.328 223.586V222.5L254.955 221.455H256.083ZM257.985 228L260.769 222.49V222.445H257.538V221.455H261.996V222.468L259.215 228H257.985Z" fill="#6B7280"/>
<rect x="236.643" y="247" width="42" height="5" rx="2.5" fill="#8A2C0D"/>
<mask id="path-108-inside-22_6219_5350" fill="white">
<path d="M288.572 209H350.429V284H288.572V209Z"/>
</mask>
<path d="M288.572 209H350.429V284H288.572V209Z" fill="#1F2A37"/>
<path d="M349.929 209V284H350.929V209H349.929Z" fill="#374151" mask="url(#path-108-inside-22_6219_5350)"/>
<path d="M317.677 221.455V228H316.491V222.608H316.453L314.922 223.586V222.5L316.549 221.455H317.677ZM321.666 228.089C321.191 228.089 320.769 228.01 320.4 227.85C320.034 227.69 319.746 227.472 319.537 227.195C319.33 226.915 319.228 226.599 319.23 226.245C319.228 225.971 319.288 225.718 319.409 225.488C319.531 225.258 319.695 225.066 319.902 224.913C320.11 224.757 320.343 224.658 320.598 224.615V224.571C320.262 224.496 319.989 224.325 319.78 224.056C319.573 223.786 319.471 223.473 319.473 223.12C319.471 222.783 319.565 222.483 319.754 222.218C319.944 221.954 320.204 221.746 320.534 221.595C320.865 221.442 321.242 221.365 321.666 221.365C322.085 221.365 322.459 221.442 322.788 221.595C323.118 221.746 323.378 221.954 323.567 222.218C323.759 222.483 323.855 222.783 323.855 223.12C323.855 223.473 323.75 223.786 323.539 224.056C323.33 224.325 323.06 224.496 322.73 224.571V224.615C322.986 224.658 323.216 224.757 323.42 224.913C323.627 225.066 323.791 225.258 323.913 225.488C324.036 225.718 324.098 225.971 324.098 226.245C324.098 226.599 323.993 226.915 323.785 227.195C323.576 227.472 323.288 227.69 322.922 227.85C322.557 228.01 322.139 228.089 321.666 228.089ZM321.666 227.175C321.911 227.175 322.124 227.134 322.305 227.051C322.486 226.966 322.627 226.846 322.727 226.693C322.827 226.539 322.878 226.363 322.88 226.162C322.878 225.953 322.824 225.769 322.717 225.609C322.613 225.447 322.469 225.321 322.286 225.229C322.105 225.137 321.898 225.092 321.666 225.092C321.431 225.092 321.223 225.137 321.039 225.229C320.856 225.321 320.711 225.447 320.605 225.609C320.5 225.769 320.449 225.953 320.451 226.162C320.449 226.363 320.498 226.539 320.598 226.693C320.698 226.844 320.839 226.962 321.02 227.048C321.203 227.133 321.419 227.175 321.666 227.175ZM321.666 224.194C321.866 224.194 322.043 224.153 322.196 224.072C322.352 223.991 322.474 223.878 322.564 223.733C322.653 223.588 322.699 223.421 322.701 223.232C322.699 223.044 322.654 222.88 322.567 222.739C322.48 222.597 322.358 222.487 322.203 222.41C322.047 222.331 321.868 222.292 321.666 222.292C321.459 222.292 321.277 222.331 321.119 222.41C320.964 222.487 320.842 222.597 320.755 222.739C320.67 222.88 320.628 223.044 320.63 223.232C320.628 223.421 320.671 223.588 320.758 223.733C320.848 223.876 320.97 223.989 321.126 224.072C321.283 224.153 321.463 224.194 321.666 224.194Z" fill="#6B7280"/>
<mask id="path-111-inside-23_6219_5350" fill="white">
<path d="M350.428 209H412.285V284H350.428V209Z"/>
</mask>
<path d="M350.428 209H412.285V284H350.428V209Z" fill="#1F2A37"/>
<path d="M411.785 209V284H412.785V209H411.785Z" fill="#374151" mask="url(#path-111-inside-23_6219_5350)"/>
<path d="M379.519 221.455V228H378.334V222.608H378.295L376.764 223.586V222.5L378.391 221.455H379.519ZM383.454 221.365C383.767 221.367 384.072 221.423 384.368 221.531C384.666 221.638 384.934 221.812 385.173 222.055C385.412 222.296 385.601 222.619 385.742 223.024C385.883 223.429 385.953 223.929 385.953 224.526C385.955 225.088 385.895 225.591 385.774 226.034C385.655 226.475 385.483 226.848 385.259 227.153C385.036 227.458 384.766 227.69 384.451 227.85C384.135 228.01 383.781 228.089 383.387 228.089C382.973 228.089 382.607 228.009 382.287 227.847C381.97 227.685 381.713 227.463 381.517 227.182C381.321 226.901 381.2 226.579 381.156 226.217H382.322C382.382 226.477 382.503 226.683 382.687 226.837C382.872 226.988 383.105 227.064 383.387 227.064C383.84 227.064 384.19 226.866 384.435 226.472C384.68 226.078 384.802 225.531 384.802 224.83H384.758C384.653 225.017 384.518 225.179 384.352 225.315C384.186 225.45 383.997 225.553 383.786 225.625C383.577 225.698 383.356 225.734 383.121 225.734C382.738 225.734 382.393 225.642 382.086 225.459C381.781 225.276 381.539 225.025 381.36 224.705C381.183 224.385 381.094 224.02 381.092 223.609C381.092 223.183 381.19 222.8 381.386 222.461C381.584 222.12 381.86 221.852 382.214 221.656C382.567 221.458 382.981 221.361 383.454 221.365ZM383.457 222.324C383.227 222.324 383.019 222.38 382.834 222.493C382.65 222.604 382.506 222.755 382.399 222.947C382.295 223.137 382.242 223.349 382.242 223.583C382.244 223.815 382.297 224.026 382.399 224.216C382.503 224.406 382.645 224.556 382.824 224.667C383.005 224.777 383.212 224.833 383.444 224.833C383.617 224.833 383.778 224.8 383.927 224.734C384.076 224.668 384.206 224.576 384.317 224.459C384.43 224.339 384.517 224.204 384.579 224.053C384.643 223.902 384.673 223.742 384.671 223.574C384.671 223.35 384.618 223.143 384.512 222.953C384.407 222.764 384.263 222.612 384.08 222.496C383.899 222.381 383.691 222.324 383.457 222.324Z" fill="#6B7280"/>
<mask id="path-114-inside-24_6219_5350" fill="white">
<path d="M412.285 209H474.142V284H412.285V209Z"/>
</mask>
<path d="M412.285 209H474.142V284H412.285V209Z" fill="#1F2A37"/>
<path d="M473.642 209V284H474.642V209H473.642Z" fill="#374151" mask="url(#path-114-inside-24_6219_5350)"/>
<path d="M437.998 228V227.143L440.271 224.916C440.488 224.696 440.669 224.501 440.814 224.331C440.959 224.161 441.067 223.995 441.14 223.836C441.212 223.676 441.249 223.505 441.249 223.324C441.249 223.118 441.202 222.941 441.108 222.794C441.014 222.645 440.885 222.529 440.721 222.449C440.557 222.368 440.371 222.327 440.162 222.327C439.947 222.327 439.758 222.372 439.596 222.461C439.434 222.549 439.309 222.673 439.219 222.835C439.132 222.997 439.088 223.19 439.088 223.414H437.96C437.96 222.998 438.055 222.637 438.244 222.33C438.434 222.023 438.695 221.786 439.027 221.618C439.362 221.449 439.745 221.365 440.178 221.365C440.617 221.365 441.002 221.447 441.335 221.611C441.667 221.775 441.925 222 442.108 222.286C442.294 222.571 442.386 222.897 442.386 223.263C442.386 223.509 442.339 223.749 442.246 223.986C442.152 224.222 441.987 224.484 441.75 224.772C441.516 225.06 441.187 225.408 440.763 225.817L439.635 226.964V227.009H442.485V228H437.998ZM446.007 228.125C445.481 228.125 445.029 227.991 444.652 227.725C444.277 227.457 443.989 227.07 443.786 226.565C443.586 226.058 443.486 225.447 443.486 224.734C443.488 224.02 443.589 223.413 443.789 222.912C443.992 222.409 444.28 222.026 444.655 221.761C445.033 221.497 445.483 221.365 446.007 221.365C446.532 221.365 446.982 221.497 447.359 221.761C447.736 222.026 448.025 222.409 448.225 222.912C448.428 223.415 448.529 224.022 448.529 224.734C448.529 225.45 448.428 226.061 448.225 226.568C448.025 227.073 447.736 227.459 447.359 227.725C446.984 227.991 446.534 228.125 446.007 228.125ZM446.007 227.124C446.417 227.124 446.739 226.923 446.976 226.52C447.214 226.115 447.334 225.52 447.334 224.734C447.334 224.214 447.279 223.777 447.171 223.423C447.062 223.07 446.909 222.803 446.711 222.624C446.512 222.443 446.278 222.353 446.007 222.353C445.6 222.353 445.279 222.555 445.042 222.96C444.806 223.363 444.686 223.954 444.684 224.734C444.682 225.256 444.734 225.695 444.841 226.05C444.95 226.406 445.103 226.675 445.301 226.856C445.499 227.035 445.735 227.124 446.007 227.124Z" fill="#6B7280"/>
<rect x="422.213" y="247" width="42" height="5" rx="2.5" fill="#4B5563"/>
<rect x="474.643" y="209.5" width="60.8571" height="74" fill="#1F2A37"/>
<rect x="474.643" y="209.5" width="60.8571" height="74" stroke="#374151"/>
<path d="M500.695 228V227.143L502.967 224.916C503.185 224.696 503.366 224.501 503.511 224.331C503.656 224.161 503.764 223.995 503.837 223.836C503.909 223.676 503.945 223.505 503.945 223.324C503.945 223.118 503.898 222.941 503.805 222.794C503.711 222.645 503.582 222.529 503.418 222.449C503.254 222.368 503.067 222.327 502.859 222.327C502.643 222.327 502.455 222.372 502.293 222.461C502.131 222.549 502.005 222.673 501.916 222.835C501.828 222.997 501.785 223.19 501.785 223.414H500.657C500.657 222.998 500.751 222.637 500.941 222.33C501.131 222.023 501.392 221.786 501.724 221.618C502.059 221.449 502.442 221.365 502.875 221.365C503.314 221.365 503.699 221.447 504.032 221.611C504.364 221.775 504.622 222 504.805 222.286C504.99 222.571 505.083 222.897 505.083 223.263C505.083 223.509 505.036 223.749 504.942 223.986C504.849 224.222 504.684 224.484 504.447 224.772C504.213 225.06 503.884 225.408 503.46 225.817L502.331 226.964V227.009H505.182V228H500.695ZM508.947 221.455V228H507.761V222.608H507.723L506.192 223.586V222.5L507.819 221.455H508.947Z" fill="#6B7280"/>
<mask id="path-120-outside-25_6219_5350" maskUnits="userSpaceOnUse" x="103" y="280" width="433" height="74" fill="black">
<rect fill="white" x="103" y="280" width="433" height="74"/>
<path d="M103 281H536V354H103V281Z"/>
</mask>
<path d="M103 281.5H536V280.5H103V281.5Z" fill="#374151" mask="url(#path-120-outside-25_6219_5350)"/>
<mask id="path-122-inside-26_6219_5350" fill="white">
<path d="M103 281H164.857V356H103V281Z"/>
</mask>
<path d="M103 281H164.857V356H103V281Z" fill="#1F2A37"/>
<path d="M164.357 281V356H165.357V281H164.357Z" fill="#374151" mask="url(#path-122-inside-26_6219_5350)"/>
<path d="M128.92 300V299.143L131.192 296.916C131.409 296.696 131.59 296.501 131.735 296.331C131.88 296.161 131.989 295.995 132.061 295.836C132.134 295.676 132.17 295.505 132.17 295.324C132.17 295.118 132.123 294.941 132.029 294.794C131.936 294.645 131.807 294.529 131.643 294.449C131.479 294.368 131.292 294.327 131.083 294.327C130.868 294.327 130.68 294.372 130.518 294.461C130.356 294.549 130.23 294.673 130.14 294.835C130.053 294.997 130.009 295.19 130.009 295.414H128.881C128.881 294.998 128.976 294.637 129.166 294.33C129.355 294.023 129.616 293.786 129.949 293.618C130.283 293.449 130.667 293.365 131.099 293.365C131.538 293.365 131.924 293.447 132.256 293.611C132.589 293.775 132.846 294 133.03 294.286C133.215 294.571 133.308 294.897 133.308 295.263C133.308 295.509 133.261 295.749 133.167 295.986C133.073 296.222 132.908 296.484 132.672 296.772C132.437 297.06 132.108 297.408 131.684 297.817L130.556 298.964V299.009H133.407V300H128.92ZM134.509 300V299.143L136.782 296.916C136.999 296.696 137.18 296.501 137.325 296.331C137.47 296.161 137.579 295.995 137.651 295.836C137.724 295.676 137.76 295.505 137.76 295.324C137.76 295.118 137.713 294.941 137.619 294.794C137.525 294.645 137.396 294.529 137.232 294.449C137.068 294.368 136.882 294.327 136.673 294.327C136.458 294.327 136.269 294.372 136.107 294.461C135.945 294.549 135.82 294.673 135.73 294.835C135.643 294.997 135.599 295.19 135.599 295.414H134.471C134.471 294.998 134.566 294.637 134.756 294.33C134.945 294.023 135.206 293.786 135.539 293.618C135.873 293.449 136.257 293.365 136.689 293.365C137.128 293.365 137.514 293.447 137.846 293.611C138.178 293.775 138.436 294 138.619 294.286C138.805 294.571 138.898 294.897 138.898 295.263C138.898 295.509 138.851 295.749 138.757 295.986C138.663 296.222 138.498 296.484 138.262 296.772C138.027 297.06 137.698 297.408 137.274 297.817L136.146 298.964V299.009H138.997V300H134.509Z" fill="#6B7280"/>
<mask id="path-125-inside-27_6219_5350" fill="white">
<path d="M164.857 281H226.715V356H164.857V281Z"/>
</mask>
<path d="M164.857 281H226.715V356H164.857V281Z" fill="#1F2A37"/>
<path d="M226.215 281V356H227.215V281H226.215Z" fill="#374151" mask="url(#path-125-inside-27_6219_5350)"/>
<path d="M190.641 300V299.143L192.913 296.916C193.13 296.696 193.312 296.501 193.456 296.331C193.601 296.161 193.71 295.995 193.782 295.836C193.855 295.676 193.891 295.505 193.891 295.324C193.891 295.118 193.844 294.941 193.75 294.794C193.657 294.645 193.528 294.529 193.364 294.449C193.2 294.368 193.013 294.327 192.804 294.327C192.589 294.327 192.401 294.372 192.239 294.461C192.077 294.549 191.951 294.673 191.862 294.835C191.774 294.997 191.731 295.19 191.731 295.414H190.602C190.602 294.998 190.697 294.637 190.887 294.33C191.076 294.023 191.337 293.786 191.67 293.618C192.004 293.449 192.388 293.365 192.82 293.365C193.259 293.365 193.645 293.447 193.977 293.611C194.31 293.775 194.568 294 194.751 294.286C194.936 294.571 195.029 294.897 195.029 295.263C195.029 295.509 194.982 295.749 194.888 295.986C194.795 296.222 194.629 296.484 194.393 296.772C194.159 297.06 193.829 297.408 193.405 297.817L192.277 298.964V299.009H195.128V300H190.641ZM198.58 300.089C198.119 300.089 197.71 300.011 197.352 299.853C196.997 299.695 196.715 299.476 196.509 299.195C196.302 298.913 196.192 298.588 196.179 298.22H197.381C197.392 298.397 197.45 298.551 197.557 298.683C197.663 298.813 197.805 298.914 197.982 298.987C198.159 299.059 198.357 299.096 198.576 299.096C198.811 299.096 199.019 299.055 199.2 298.974C199.381 298.891 199.523 298.776 199.625 298.629C199.727 298.482 199.777 298.312 199.775 298.121C199.777 297.923 199.726 297.748 199.622 297.597C199.517 297.445 199.366 297.327 199.168 297.242C198.972 297.157 198.735 297.114 198.458 297.114H197.88V296.2H198.458C198.686 296.2 198.885 296.161 199.056 296.082C199.228 296.003 199.364 295.892 199.462 295.749C199.56 295.604 199.608 295.437 199.606 295.248C199.608 295.062 199.566 294.901 199.481 294.765C199.398 294.626 199.28 294.519 199.126 294.442C198.975 294.365 198.797 294.327 198.592 294.327C198.392 294.327 198.207 294.363 198.036 294.436C197.866 294.508 197.728 294.612 197.624 294.746C197.52 294.878 197.464 295.036 197.458 295.219H196.317C196.325 294.852 196.431 294.531 196.633 294.254C196.838 293.974 197.111 293.757 197.451 293.602C197.792 293.444 198.175 293.365 198.599 293.365C199.036 293.365 199.415 293.447 199.737 293.611C200.061 293.773 200.311 293.991 200.488 294.266C200.665 294.541 200.753 294.845 200.753 295.177C200.755 295.546 200.646 295.855 200.427 296.104C200.21 296.353 199.924 296.516 199.57 296.593V296.644C200.031 296.708 200.383 296.879 200.628 297.156C200.875 297.43 200.998 297.772 200.996 298.181C200.996 298.548 200.891 298.876 200.683 299.166C200.476 299.453 200.19 299.679 199.826 299.843C199.464 300.007 199.048 300.089 198.58 300.089Z" fill="#6B7280"/>
<rect x="174.785" y="319" width="42" height="5" rx="2.5" fill="#1E429F"/>
<mask id="path-129-inside-28_6219_5350" fill="white">
<path d="M226.715 281H288.572V356H226.715V281Z"/>
</mask>
<path d="M226.715 281H288.572V356H226.715V281Z" fill="#1F2A37"/>
<path d="M288.072 281V356H289.072V281H288.072Z" fill="#374151" mask="url(#path-129-inside-28_6219_5350)"/>
<path d="M252.503 300V299.143L254.775 296.916C254.992 296.696 255.173 296.501 255.318 296.331C255.463 296.161 255.572 295.995 255.644 295.836C255.717 295.676 255.753 295.505 255.753 295.324C255.753 295.118 255.706 294.941 255.612 294.794C255.519 294.645 255.39 294.529 255.226 294.449C255.062 294.368 254.875 294.327 254.666 294.327C254.451 294.327 254.263 294.372 254.101 294.461C253.939 294.549 253.813 294.673 253.723 294.835C253.636 294.997 253.592 295.19 253.592 295.414H252.464C252.464 294.998 252.559 294.637 252.749 294.33C252.938 294.023 253.199 293.786 253.532 293.618C253.866 293.449 254.25 293.365 254.682 293.365C255.121 293.365 255.507 293.447 255.839 293.611C256.172 293.775 256.429 294 256.613 294.286C256.798 294.571 256.891 294.897 256.891 295.263C256.891 295.509 256.844 295.749 256.75 295.986C256.656 296.222 256.491 296.484 256.255 296.772C256.02 297.06 255.691 297.408 255.267 297.817L254.139 298.964V299.009H256.99V300H252.503ZM257.834 298.786V297.843L260.611 293.455H261.397V294.797H260.918L259.048 297.76V297.811H262.925V298.786H257.834ZM260.956 300V298.498L260.969 298.076V293.455H262.087V300H260.956Z" fill="#6B7280"/>
<mask id="path-132-inside-29_6219_5350" fill="white">
<path d="M288.572 281H350.429V356H288.572V281Z"/>
</mask>
<path d="M288.572 281H350.429V356H288.572V281Z" fill="#1F2A37"/>
<path d="M349.929 281V356H350.929V281H349.929Z" fill="#374151" mask="url(#path-132-inside-29_6219_5350)"/>
<path d="M314.439 300V299.143L316.711 296.916C316.929 296.696 317.11 296.501 317.255 296.331C317.4 296.161 317.508 295.995 317.581 295.836C317.653 295.676 317.689 295.505 317.689 295.324C317.689 295.118 317.643 294.941 317.549 294.794C317.455 294.645 317.326 294.529 317.162 294.449C316.998 294.368 316.812 294.327 316.603 294.327C316.388 294.327 316.199 294.372 316.037 294.461C315.875 294.549 315.749 294.673 315.66 294.835C315.573 294.997 315.529 295.19 315.529 295.414H314.401C314.401 294.998 314.496 294.637 314.685 294.33C314.875 294.023 315.136 293.786 315.468 293.618C315.803 293.449 316.186 293.365 316.619 293.365C317.058 293.365 317.443 293.447 317.776 293.611C318.108 293.775 318.366 294 318.549 294.286C318.735 294.571 318.827 294.897 318.827 295.263C318.827 295.509 318.78 295.749 318.687 295.986C318.593 296.222 318.428 296.484 318.191 296.772C317.957 297.06 317.628 297.408 317.204 297.817L316.075 298.964V299.009H318.926V300H314.439ZM322.305 300.089C321.878 300.089 321.497 300.01 321.16 299.85C320.824 299.688 320.556 299.466 320.358 299.185C320.162 298.904 320.058 298.582 320.045 298.22H321.195C321.217 298.488 321.333 298.708 321.544 298.878C321.755 299.047 322.008 299.131 322.305 299.131C322.537 299.131 322.743 299.077 322.925 298.971C323.106 298.864 323.248 298.716 323.353 298.527C323.457 298.337 323.508 298.121 323.506 297.878C323.508 297.631 323.456 297.411 323.35 297.219C323.243 297.028 323.097 296.877 322.912 296.769C322.726 296.658 322.513 296.603 322.273 296.603C322.077 296.6 321.884 296.637 321.694 296.711C321.504 296.786 321.354 296.884 321.243 297.005L320.173 296.83L320.515 293.455H324.312V294.445H321.496L321.307 296.181H321.346C321.467 296.038 321.639 295.92 321.86 295.826C322.082 295.73 322.325 295.682 322.589 295.682C322.985 295.682 323.339 295.776 323.65 295.963C323.961 296.149 324.206 296.404 324.385 296.73C324.564 297.056 324.654 297.429 324.654 297.849C324.654 298.282 324.553 298.667 324.353 299.006C324.155 299.343 323.879 299.608 323.525 299.802C323.174 299.994 322.767 300.089 322.305 300.089Z" fill="#6B7280"/>
<mask id="path-135-inside-30_6219_5350" fill="white">
<path d="M350.428 281H412.285V356H350.428V281Z"/>
</mask>
<path d="M350.428 281H412.285V356H350.428V281Z" fill="#1F2A37"/>
<path d="M411.785 281V356H412.785V281H411.785Z" fill="#374151" mask="url(#path-135-inside-30_6219_5350)"/>
<path d="M376.224 300V299.143L378.497 296.916C378.714 296.696 378.895 296.501 379.04 296.331C379.185 296.161 379.294 295.995 379.366 295.836C379.438 295.676 379.475 295.505 379.475 295.324C379.475 295.118 379.428 294.941 379.334 294.794C379.24 294.645 379.111 294.529 378.947 294.449C378.783 294.368 378.597 294.327 378.388 294.327C378.173 294.327 377.984 294.372 377.822 294.461C377.66 294.549 377.535 294.673 377.445 294.835C377.358 294.997 377.314 295.19 377.314 295.414H376.186C376.186 294.998 376.281 294.637 376.47 294.33C376.66 294.023 376.921 293.786 377.253 293.618C377.588 293.449 377.971 293.365 378.404 293.365C378.843 293.365 379.229 293.447 379.561 293.611C379.893 293.775 380.151 294 380.334 294.286C380.52 294.571 380.612 294.897 380.612 295.263C380.612 295.509 380.566 295.749 380.472 295.986C380.378 296.222 380.213 296.484 379.976 296.772C379.742 297.06 379.413 297.408 378.989 297.817L377.861 298.964V299.009H380.711V300H376.224ZM384.211 300.089C383.898 300.087 383.592 300.033 383.294 299.926C382.996 299.818 382.727 299.642 382.488 299.399C382.25 299.154 382.06 298.829 381.92 298.424C381.779 298.017 381.71 297.513 381.712 296.913C381.712 296.352 381.771 295.853 381.891 295.414C382.01 294.975 382.182 294.604 382.405 294.301C382.629 293.997 382.899 293.765 383.214 293.605C383.531 293.445 383.886 293.365 384.278 293.365C384.689 293.365 385.054 293.446 385.371 293.608C385.691 293.77 385.949 293.991 386.145 294.273C386.341 294.552 386.462 294.867 386.509 295.219H385.343C385.283 294.967 385.16 294.767 384.975 294.618C384.792 294.467 384.559 294.391 384.278 294.391C383.824 294.391 383.475 294.588 383.23 294.982C382.987 295.376 382.865 295.918 382.862 296.606H382.907C383.012 296.418 383.147 296.257 383.313 296.123C383.479 295.989 383.667 295.886 383.876 295.813C384.086 295.739 384.309 295.701 384.544 295.701C384.927 295.701 385.271 295.793 385.576 295.976C385.883 296.159 386.126 296.412 386.305 296.734C386.483 297.053 386.572 297.42 386.57 297.833C386.572 298.263 386.474 298.65 386.276 298.993C386.078 299.334 385.802 299.603 385.448 299.799C385.094 299.995 384.682 300.092 384.211 300.089ZM384.205 299.131C384.437 299.131 384.645 299.074 384.828 298.961C385.011 298.848 385.156 298.696 385.263 298.504C385.369 298.312 385.421 298.097 385.419 297.859C385.421 297.624 385.37 297.412 385.266 297.223C385.164 297.033 385.022 296.883 384.841 296.772C384.66 296.661 384.453 296.606 384.221 296.606C384.048 296.606 383.887 296.639 383.738 296.705C383.589 296.771 383.459 296.863 383.348 296.98C383.237 297.095 383.15 297.229 383.086 297.382C383.024 297.534 382.992 297.696 382.99 297.868C382.992 298.096 383.046 298.306 383.15 298.498C383.254 298.69 383.398 298.843 383.581 298.958C383.765 299.073 383.972 299.131 384.205 299.131Z" fill="#6B7280"/>
<mask id="path-138-inside-31_6219_5350" fill="white">
<path d="M412.285 281H474.142V356H412.285V281Z"/>
</mask>
<path d="M412.285 281H474.142V356H412.285V281Z" fill="#1F2A37"/>
<path d="M473.642 281V356H474.642V281H473.642Z" fill="#374151" mask="url(#path-138-inside-31_6219_5350)"/>
<path d="M438.359 300V299.143L440.631 296.916C440.848 296.696 441.029 296.501 441.174 296.331C441.319 296.161 441.428 295.995 441.5 295.836C441.573 295.676 441.609 295.505 441.609 295.324C441.609 295.118 441.562 294.941 441.468 294.794C441.375 294.645 441.246 294.529 441.082 294.449C440.917 294.368 440.731 294.327 440.522 294.327C440.307 294.327 440.118 294.372 439.957 294.461C439.795 294.549 439.669 294.673 439.579 294.835C439.492 294.997 439.448 295.19 439.448 295.414H438.32C438.32 294.998 438.415 294.637 438.605 294.33C438.794 294.023 439.055 293.786 439.388 293.618C439.722 293.449 440.106 293.365 440.538 293.365C440.977 293.365 441.363 293.447 441.695 293.611C442.028 293.775 442.285 294 442.469 294.286C442.654 294.571 442.747 294.897 442.747 295.263C442.747 295.509 442.7 295.749 442.606 295.986C442.512 296.222 442.347 296.484 442.111 296.772C441.876 297.06 441.547 297.408 441.123 297.817L439.995 298.964V299.009H442.846V300H438.359ZM444.188 300L446.972 294.49V294.445H443.741V293.455H448.199V294.468L445.419 300H444.188Z" fill="#6B7280"/>
<rect x="474.643" y="281.5" width="60.8571" height="74" fill="#1F2A37"/>
<rect x="474.643" y="281.5" width="60.8571" height="74" stroke="#374151"/>
<path d="M499.952 300V299.143L502.225 296.916C502.442 296.696 502.623 296.501 502.768 296.331C502.913 296.161 503.022 295.995 503.094 295.836C503.166 295.676 503.203 295.505 503.203 295.324C503.203 295.118 503.156 294.941 503.062 294.794C502.968 294.645 502.839 294.529 502.675 294.449C502.511 294.368 502.325 294.327 502.116 294.327C501.901 294.327 501.712 294.372 501.55 294.461C501.388 294.549 501.263 294.673 501.173 294.835C501.086 294.997 501.042 295.19 501.042 295.414H499.914C499.914 294.998 500.009 294.637 500.198 294.33C500.388 294.023 500.649 293.786 500.981 293.618C501.316 293.449 501.699 293.365 502.132 293.365C502.571 293.365 502.957 293.447 503.289 293.611C503.621 293.775 503.879 294 504.062 294.286C504.248 294.571 504.34 294.897 504.34 295.263C504.34 295.509 504.294 295.749 504.2 295.986C504.106 296.222 503.941 296.484 503.704 296.772C503.47 297.06 503.141 297.408 502.717 297.817L501.589 298.964V299.009H504.439V300H499.952ZM507.869 300.089C507.394 300.089 506.972 300.01 506.603 299.85C506.237 299.69 505.949 299.472 505.74 299.195C505.534 298.915 505.431 298.599 505.433 298.245C505.431 297.971 505.491 297.718 505.612 297.488C505.734 297.258 505.898 297.066 506.105 296.913C506.313 296.757 506.546 296.658 506.801 296.615V296.571C506.465 296.496 506.192 296.325 505.983 296.056C505.777 295.786 505.674 295.473 505.676 295.12C505.674 294.783 505.768 294.483 505.958 294.218C506.147 293.954 506.407 293.746 506.737 293.595C507.068 293.442 507.445 293.365 507.869 293.365C508.289 293.365 508.663 293.442 508.991 293.595C509.321 293.746 509.581 293.954 509.77 294.218C509.962 294.483 510.058 294.783 510.058 295.12C510.058 295.473 509.953 295.786 509.742 296.056C509.533 296.325 509.263 296.496 508.933 296.571V296.615C509.189 296.658 509.419 296.757 509.623 296.913C509.83 297.066 509.994 297.258 510.116 297.488C510.239 297.718 510.301 297.971 510.301 298.245C510.301 298.599 510.197 298.915 509.988 299.195C509.779 299.472 509.491 299.69 509.125 299.85C508.761 300.01 508.342 300.089 507.869 300.089ZM507.869 299.175C508.114 299.175 508.327 299.134 508.508 299.051C508.689 298.966 508.83 298.846 508.93 298.693C509.03 298.539 509.081 298.363 509.083 298.162C509.081 297.953 509.027 297.769 508.92 297.609C508.816 297.447 508.672 297.321 508.489 297.229C508.308 297.137 508.101 297.092 507.869 297.092C507.634 297.092 507.426 297.137 507.242 297.229C507.059 297.321 506.914 297.447 506.808 297.609C506.703 297.769 506.652 297.953 506.654 298.162C506.652 298.363 506.701 298.539 506.801 298.693C506.902 298.844 507.042 298.962 507.223 299.048C507.406 299.133 507.622 299.175 507.869 299.175ZM507.869 296.194C508.069 296.194 508.246 296.153 508.399 296.072C508.555 295.991 508.677 295.878 508.767 295.733C508.856 295.588 508.902 295.421 508.904 295.232C508.902 295.044 508.857 294.88 508.77 294.739C508.683 294.597 508.561 294.487 508.406 294.41C508.25 294.331 508.071 294.292 507.869 294.292C507.662 294.292 507.48 294.331 507.322 294.41C507.167 294.487 507.045 294.597 506.958 294.739C506.873 294.88 506.831 295.044 506.833 295.232C506.831 295.421 506.874 295.588 506.961 295.733C507.051 295.876 507.173 295.989 507.329 296.072C507.486 296.153 507.666 296.194 507.869 296.194Z" fill="#6B7280"/>
</g>
<defs>
<filter id="filter0_dd_6219_5350" x="-3" y="-2" width="542" height="36" filterUnits="userSpaceOnUse" color-interpolation-filters="sRGB">
<feFlood flood-opacity="0" result="BackgroundImageFix"/>
<feColorMatrix in="SourceAlpha" type="matrix" values="0 0 0 0 0 0 0 0 0 0 0 0 0 0 0 0 0 0 127 0" result="hardAlpha"/>
<feOffset dy="1"/>
<feGaussianBlur stdDeviation="1.5"/>
<feColorMatrix type="matrix" values="0 0 0 0 0 0 0 0 0 0 0 0 0 0 0 0 0 0 0.1 0"/>
<feBlend mode="normal" in2="BackgroundImageFix" result="effect1_dropShadow_6219_5350"/>
<feColorMatrix in="SourceAlpha" type="matrix" values="0 0 0 0 0 0 0 0 0 0 0 0 0 0 0 0 0 0 127 0" result="hardAlpha"/>
<feOffset dy="1"/>
<feGaussianBlur stdDeviation="1"/>
<feColorMatrix type="matrix" values="0 0 0 0 0 0 0 0 0 0 0 0 0 0 0 0 0 0 0.06 0"/>
<feBlend mode="normal" in2="effect1_dropShadow_6219_5350" result="effect2_dropShadow_6219_5350"/>
<feBlend mode="normal" in="SourceGraphic" in2="effect2_dropShadow_6219_5350" result="shape"/>
</filter>
<linearGradient id="paint0_linear_6219_5350" x1="15.5225" y1="17.9132" x2="16.7029" y2="13.8016" gradientUnits="userSpaceOnUse">
<stop stop-color="#1724C9"/>
<stop offset="1" stop-color="#1C64F2"/>
</linearGradient>
<linearGradient id="paint1_linear_6219_5350" x1="18.2412" y1="12.899" x2="15.136" y2="9.80477" gradientUnits="userSpaceOnUse">
<stop stop-color="#1C64F2"/>
<stop offset="1" stop-color="#0092FF"/>
</linearGradient>
<linearGradient id="paint2_linear_6219_5350" x1="14.0614" y1="10.8821" x2="9.37716" y2="11.1781" gradientUnits="userSpaceOnUse">
<stop stop-color="#0092FF"/>
<stop offset="1" stop-color="#45B2FF"/>
</linearGradient>
<linearGradient id="paint3_linear_6219_5350" x1="13.746" y1="19.7486" x2="17.9527" y2="18.6135" gradientUnits="userSpaceOnUse">
<stop stop-color="#1C64F2"/>
<stop offset="1" stop-color="#0092FF"/>
</linearGradient>
<linearGradient id="paint4_linear_6219_5350" x1="10.7263" y1="14.881" x2="13.713" y2="17.9758" gradientUnits="userSpaceOnUse">
<stop stop-color="#1724C9"/>
<stop offset="1" stop-color="#1C64F2"/>
</linearGradient>
<linearGradient id="paint5_linear_6219_5350" x1="17.5458" y1="17.1134" x2="19.6297" y2="12.9125" gradientUnits="userSpaceOnUse">
<stop stop-color="#0092FF"/>
<stop offset="1" stop-color="#45B2FF"/>
</linearGradient>
<linearGradient id="paint6_linear_6219_5350" x1="10.0117" y1="12.424" x2="8.89654" y2="16.6153" gradientUnits="userSpaceOnUse">
<stop stop-color="#1C64F2"/>
<stop offset="1" stop-color="#0092FF"/>
</linearGradient>
<linearGradient id="paint7_linear_6219_5350" x1="15.7062" y1="12.2246" x2="11.6312" y2="13.2391" gradientUnits="userSpaceOnUse">
<stop stop-color="#1724C9"/>
<stop offset="1" stop-color="#1C64F2"/>
</linearGradient>
<linearGradient id="paint8_linear_6219_5350" x1="10.406" y1="17.0086" x2="13.0034" y2="20.9158" gradientUnits="userSpaceOnUse">
<stop stop-color="#0092FF"/>
<stop offset="1" stop-color="#45B2FF"/>
</linearGradient>
<clipPath id="clip0_6219_5350">
<rect width="536" height="345" fill="white"/>
</clipPath>
<clipPath id="clip1_6219_5350">
<rect width="6" height="6" fill="white" transform="translate(484 44)"/>
</clipPath>
</defs>
</svg>
