<svg width="536" height="345" viewBox="0 0 536 345" fill="none" xmlns="http://www.w3.org/2000/svg">
<g clip-path="url(#clip0_6219_5170)">
<g filter="url(#filter0_dd_6219_5170)">
<mask id="path-1-inside-1_6219_5170" fill="white">
<path d="M0 0H536V30H0V0Z"/>
</mask>
<path d="M0 0H536V30H0V0Z" fill="#374151"/>
<path d="M536 29.5H0V30.5H536V29.5Z" fill="#4B5563" mask="url(#path-1-inside-1_6219_5170)"/>
<path d="M17.1949 13.8525C17.1671 14.044 17.0409 14.3041 16.8961 14.5302C16.7134 14.8155 16.4234 15.0153 16.0916 15.0847L14.6298 15.3904C14.3948 15.4395 14.1818 15.5625 14.0218 15.7413L13.0634 16.8126C12.8832 17.014 12.7573 16.966 12.7573 16.6959C12.7552 16.7059 12.2816 17.9271 13.5365 18.6509C14.0187 18.929 14.7127 18.8291 15.1949 18.5509L17.7496 17.0774C18.705 16.5263 19.3796 15.594 19.6038 14.5149C19.6127 14.4722 19.6195 14.4293 19.6269 14.3865L17.1949 13.8525Z" fill="url(#paint0_linear_6219_5170)"/>
<path d="M16.5323 12.3806C17.0145 12.6587 17.2115 13.0727 17.2114 13.6289C17.2114 13.7045 17.2055 13.7791 17.1948 13.8525L18.2242 14.2947L19.6268 14.3865C19.8064 13.3471 19.4544 12.2772 18.8235 11.4268C18.3486 10.7868 17.7376 10.2314 17.0031 9.80768C16.4064 9.4635 15.7863 9.23674 15.1633 9.1123L14.4633 10.0188L14.2422 11.0596L16.5323 12.3806Z" fill="url(#paint1_linear_6219_5170)"/>
<path d="M8.29302 13.1439C8.29276 13.1447 8.29349 13.1449 8.29376 13.1441C8.34778 12.9821 8.41551 12.8014 8.50006 12.6083C8.94175 11.5997 9.7929 10.927 10.84 10.584C11.8872 10.241 13.0305 10.3612 13.9848 10.9117L14.2422 11.0602L15.1633 9.11281C12.2337 8.52769 9.2395 10.2489 8.29675 13.1326C8.2963 13.134 8.29466 13.1388 8.29302 13.1439Z" fill="url(#paint2_linear_6219_5170)"/>
<path d="M15.0961 18.5514C14.614 18.8295 14.0199 18.8295 13.5378 18.5514C13.4723 18.5137 13.4106 18.4712 13.3523 18.4253L12.5043 19.0082L11.7734 20.1893C12.5847 20.8644 13.6381 21.0814 14.6907 20.9607C15.4829 20.8699 16.2699 20.6189 17.0044 20.1952C17.6011 19.851 18.1077 19.4279 18.5271 18.9511L18.0913 17.8923L17.3862 17.2305L15.0961 18.5514Z" fill="url(#paint3_linear_6219_5170)"/>
<path d="M13.3521 18.4256C12.9806 18.133 12.7584 17.6842 12.7584 17.2035V17.1555V13.1519C12.7584 12.9255 12.8251 12.887 13.0214 13.0002C12.7191 12.8259 12.0207 12.2273 11.1585 12.7246C10.6763 13.0028 10.2793 13.6166 10.2793 14.1729V17.12C10.2793 18.2222 10.8502 19.3719 11.6735 20.1054C11.7061 20.1345 11.7398 20.1618 11.7732 20.1896L13.3521 18.4256Z" fill="url(#paint4_linear_6219_5170)"/>
<path d="M18.4684 10.9915C18.4679 10.9909 18.4673 10.9914 18.4679 10.992C18.5813 11.1198 18.7041 11.2687 18.8292 11.4384C19.4827 12.3249 19.7268 13.4476 19.5006 14.5251C19.2743 15.6026 18.5985 16.5317 17.6441 17.0821L17.3867 17.2306L18.5276 18.9513C20.4996 16.7091 20.5047 13.2579 18.4764 11.0004C18.4754 10.9993 18.472 10.9955 18.4684 10.9915Z" fill="url(#paint5_linear_6219_5170)"/>
<path d="M10.3791 14.1731C10.3791 13.6169 10.6761 13.1029 11.1582 12.8248C11.2237 12.787 11.2913 12.7549 11.3604 12.7274L11.279 11.7022L10.7073 10.5293C9.71644 10.8936 8.91498 11.6466 8.49328 12.6177C8.17593 13.3485 8 14.1548 8 15.0022C8 15.6906 8.11347 16.3405 8.31711 16.9417L9.45287 17.0941L10.3791 16.815V14.1731Z" fill="url(#paint6_linear_6219_5170)"/>
<path d="M11.3621 12.7273C11.8015 12.5522 12.3016 12.5843 12.7183 12.8247L12.7599 12.8487L16.096 14.7729C16.33 14.9079 16.3087 15.0407 16.0442 15.0961L16.2367 15.0558C16.4899 15.0029 16.7213 14.8735 16.8982 14.6849C17.2024 14.3606 17.3141 13.9694 17.3141 13.6299C17.3141 13.0737 17.0171 12.5597 16.5349 12.2816L13.9802 10.808C13.0248 10.2569 11.8794 10.1394 10.8318 10.485C10.7904 10.4987 10.7498 10.5142 10.709 10.5292L11.3621 12.7273Z" fill="url(#paint7_linear_6219_5170)"/>
<path d="M15.2498 20.8699C15.2506 20.8697 15.2505 20.869 15.2496 20.8692C15.0822 20.9034 14.8916 20.9352 14.682 20.9586C13.5868 21.0807 12.4915 20.7306 11.6706 19.9961C10.8497 19.2617 10.3823 18.2123 10.3823 17.1114L10.3823 16.8145L8.32031 16.9412C9.27792 19.7685 12.267 21.4985 15.2381 20.8723C15.2395 20.872 15.2445 20.871 15.2498 20.8699Z" fill="url(#paint8_linear_6219_5170)"/>
<rect x="27" y="9" width="152" height="12" rx="4" fill="#4B5563"/>
<path d="M479.994 15.3683V14.3183C479.995 13.6086 479.756 12.9196 479.316 12.3626C478.876 11.8055 478.261 11.4131 477.571 11.2488C477.576 11.2284 477.58 11.2078 477.583 11.1869V9.80794C477.583 9.65323 477.522 9.50486 477.413 9.39546C477.303 9.28607 477.155 9.22461 477 9.22461C476.845 9.22461 476.697 9.28607 476.588 9.39546C476.478 9.50486 476.417 9.65323 476.417 9.80794V11.1869C476.42 11.2078 476.424 11.2284 476.429 11.2488C475.739 11.4131 475.124 11.8055 474.684 12.3626C474.244 12.9196 474.005 13.6086 474.006 14.3183V15.3683C474.006 16.7601 472.917 17.1078 472.917 17.8037C472.917 18.1496 472.917 18.4996 473.231 18.4996H480.77C481.083 18.4996 481.083 18.1496 481.083 17.8037C481.083 17.1078 479.994 16.7601 479.994 15.3683Z" fill="#6B7280"/>
<path d="M472.255 14.9016C472.1 14.9016 471.952 14.8402 471.843 14.7308C471.733 14.6214 471.672 14.473 471.672 14.3183C471.675 12.9351 472.199 11.6039 473.14 10.5902C473.245 10.4764 473.391 10.409 473.546 10.4029C473.701 10.3968 473.852 10.4524 473.966 10.5575C474.079 10.6627 474.147 10.8087 474.153 10.9635C474.159 11.1183 474.103 11.2692 473.998 11.3829C473.256 12.1816 472.842 13.2308 472.839 14.3212C472.838 14.4754 472.776 14.623 472.667 14.7318C472.557 14.8406 472.409 14.9016 472.255 14.9016Z" fill="#6B7280"/>
<path d="M481.745 14.9016C481.59 14.9016 481.442 14.8402 481.332 14.7308C481.223 14.6214 481.162 14.473 481.162 14.3183C481.158 13.2289 480.744 12.1809 480.002 11.3829C479.902 11.2684 479.851 11.1194 479.859 10.9676C479.867 10.8158 479.935 10.6732 480.046 10.5703C480.158 10.4673 480.306 10.4121 480.458 10.4164C480.61 10.4206 480.754 10.484 480.86 10.5931C481.801 11.6068 482.325 12.938 482.328 14.3212C482.327 14.4754 482.266 14.623 482.156 14.7318C482.047 14.8406 481.899 14.9016 481.745 14.9016Z" fill="#6B7280"/>
<path d="M475.147 19.0829C475.302 19.4464 475.56 19.7563 475.889 19.9741C476.219 20.192 476.605 20.3081 477 20.3081C477.395 20.3081 477.781 20.192 478.111 19.9741C478.44 19.7563 478.699 19.4464 478.853 19.0829H475.147Z" fill="#6B7280"/>
<path fill-rule="evenodd" clip-rule="evenodd" d="M494.833 9.75C494.235 9.75 493.75 10.235 493.75 10.8332V13.3334C493.75 13.9317 494.235 14.4167 494.833 14.4167H497.333C497.932 14.4167 498.417 13.9317 498.417 13.3334V10.8332C498.417 10.235 497.932 9.75 497.333 9.75H494.833ZM500.667 9.75C500.068 9.75 499.583 10.235 499.583 10.8332V13.3334C499.583 13.9317 500.068 14.4167 500.667 14.4167H503.167C503.765 14.4167 504.25 13.9317 504.25 13.3334V10.8332C504.25 10.235 503.765 9.75 503.167 9.75H500.667ZM494.833 15.5833C494.235 15.5833 493.75 16.0683 493.75 16.6666V19.1667C493.75 19.765 494.235 20.25 494.833 20.25H497.333C497.932 20.25 498.417 19.765 498.417 19.1667V16.6666C498.417 16.0683 497.932 15.5833 497.333 15.5833H494.833ZM500.667 15.5833C500.068 15.5833 499.583 16.0683 499.583 16.6666V19.1667C499.583 19.765 500.068 20.25 500.667 20.25H503.167C503.765 20.25 504.25 19.765 504.25 19.1667V16.6666C504.25 16.0683 503.765 15.5833 503.167 15.5833H500.667Z" fill="#6B7280"/>
<path fill-rule="evenodd" clip-rule="evenodd" d="M520.999 10.3337C518.422 10.3337 516.333 12.423 516.333 15.0003C516.333 16.3391 516.896 17.5462 517.799 18.3972C517.965 18.0534 518.198 17.7428 518.488 17.4851C519.019 17.0131 519.704 16.7517 520.415 16.7503L520.416 16.7503L521.584 16.7503C522.294 16.7517 522.98 17.0131 523.511 17.4851C523.801 17.7428 524.034 18.0534 524.199 18.3972C525.102 17.5462 525.666 16.3391 525.666 15.0003C525.666 12.423 523.577 10.3337 520.999 10.3337ZM521.572 20.8059C524.525 20.5181 526.833 18.0287 526.833 15.0003C526.833 11.7787 524.221 9.16699 520.999 9.16699C517.778 9.16699 515.166 11.7787 515.166 15.0003C515.166 18.0287 517.474 20.5181 520.426 20.8059C520.616 20.8245 520.807 20.8338 520.999 20.8337M520.999 19.667C520.999 19.667 520.999 19.667 520.999 19.667C521 19.667 521 19.667 521 19.667C521.194 19.667 521.385 19.6551 521.573 19.6321C522.153 19.5606 522.714 19.38 523.228 19.0993C523.132 18.8153 522.963 18.559 522.736 18.3571C522.418 18.0745 522.008 17.9179 521.582 17.917H520.417C519.991 17.9179 519.581 18.0745 519.263 18.3571C519.036 18.559 518.867 18.8153 518.771 19.0993C519.284 19.38 519.846 19.5606 520.426 19.6321C520.614 19.6551 520.805 19.667 520.999 19.667ZM520.999 20.8337C521.191 20.8338 521.382 20.8245 521.572 20.8059L520.999 20.8337ZM520.999 12.667C520.355 12.667 519.833 13.1893 519.833 13.8337C519.833 14.478 520.355 15.0003 520.999 15.0003C521.644 15.0003 522.166 14.478 522.166 13.8337C522.166 13.1893 521.644 12.667 520.999 12.667ZM518.666 13.8337C518.666 12.545 519.711 11.5003 520.999 11.5003C522.288 11.5003 523.333 12.545 523.333 13.8337C523.333 15.1223 522.288 16.167 520.999 16.167C519.711 16.167 518.666 15.1223 518.666 13.8337Z" fill="#6B7280"/>
</g>
<rect width="536" height="315" transform="translate(0 30)" fill="#1F2A37"/>
<mask id="path-16-inside-2_6219_5170" fill="white">
<path d="M0 30H103V345H0V30Z"/>
</mask>
<path d="M0 30H103V345H0V30Z" fill="#374151"/>
<path d="M102.5 30V345H103.5V30H102.5Z" fill="#4B5563" mask="url(#path-16-inside-2_6219_5170)"/>
<mask id="path-18-inside-3_6219_5170" fill="white">
<path d="M12 42H91V122H12V42Z"/>
</mask>
<path d="M91 121.5H12V122.5H91V121.5Z" fill="#4B5563" mask="url(#path-18-inside-3_6219_5170)"/>
<rect x="12" y="42" width="5" height="5" rx="2.5" fill="#6B7280"/>
<rect x="21" y="42" width="57" height="5" rx="2.5" fill="#6B7280"/>
<rect x="12" y="57" width="5" height="5" rx="2.5" fill="#6B7280"/>
<rect x="21" y="57" width="48.4961" height="5" rx="2.5" fill="#6B7280"/>
<rect x="12" y="72" width="5" height="5" rx="2.5" fill="#6B7280"/>
<rect x="21" y="72" width="61" height="5" rx="2.5" fill="#6B7280"/>
<rect x="12" y="87" width="5" height="5" rx="2.5" fill="#6B7280"/>
<rect x="21" y="87" width="39" height="5" rx="2.5" fill="#6B7280"/>
<rect x="12" y="102" width="5" height="5" rx="2.5" fill="#6B7280"/>
<rect x="21" y="102" width="61" height="5" rx="2.5" fill="#6B7280"/>
<rect x="12" y="137" width="5" height="5" rx="2.5" fill="#6B7280"/>
<rect x="21" y="137" width="42" height="5" rx="2.5" fill="#6B7280"/>
<rect x="12" y="152" width="5" height="5" rx="2.5" fill="#6B7280"/>
<rect x="21" y="152" width="25" height="5" rx="2.5" fill="#6B7280"/>
<rect x="12" y="167" width="5" height="5" rx="2.5" fill="#6B7280"/>
<rect x="21" y="167" width="41" height="5" rx="2.5" fill="#6B7280"/>
<rect x="32" y="328" width="5" height="5" rx="2.5" fill="#6B7280"/>
<rect x="49" y="328" width="5" height="5" rx="2.5" fill="#6B7280"/>
<rect x="66" y="328" width="5" height="5" rx="2.5" fill="#6B7280"/>
<mask id="path-39-inside-4_6219_5170" fill="white">
<path d="M103 30H206V345H103V30Z"/>
</mask>
<path d="M103 30H206V345H103V30Z" fill="#374151"/>
<path d="M205.5 30V345H206.5V30H205.5Z" fill="#4B5563" mask="url(#path-39-inside-4_6219_5170)"/>
<mask id="path-41-inside-5_6219_5170" fill="white">
<path d="M109 36H200V50H109V36Z"/>
</mask>
<path d="M200 49.5H109V50.5H200V49.5Z" fill="#4B5563" mask="url(#path-41-inside-5_6219_5170)"/>
<rect x="109" y="38" width="45" height="4" rx="2" fill="#6B7280"/>
<path fill-rule="evenodd" clip-rule="evenodd" d="M180.666 40.0003C180.666 39.8162 180.815 39.667 180.999 39.667H181.003C181.187 39.667 181.336 39.8162 181.336 40.0003C181.336 40.1844 181.187 40.3337 181.003 40.3337H180.999C180.815 40.3337 180.666 40.1844 180.666 40.0003ZM182.669 40.0003C182.669 39.8162 182.819 39.667 183.003 39.667H183.006C183.19 39.667 183.339 39.8162 183.339 40.0003C183.339 40.1844 183.19 40.3337 183.006 40.3337H183.003C182.819 40.3337 182.669 40.1844 182.669 40.0003ZM184.669 40.0003C184.669 39.8162 184.819 39.667 185.003 39.667H185.006C185.19 39.667 185.339 39.8162 185.339 40.0003C185.339 40.1844 185.19 40.3337 185.006 40.3337H185.003C184.819 40.3337 184.669 40.1844 184.669 40.0003Z" fill="#6B7280" stroke="#6B7280" stroke-width="0.6" stroke-linecap="round" stroke-linejoin="round"/>
<path fill-rule="evenodd" clip-rule="evenodd" d="M195.936 38.0588H193.706C193.316 38.0588 193 38.3749 193 38.7647V42.2941C193 42.684 193.316 43 193.706 43H197.588C197.978 43 198.294 42.684 198.294 42.2941V39.7107L196.913 41.0921C196.79 41.2152 196.633 41.2992 196.462 41.3334L195.516 41.5226C194.898 41.6461 194.354 41.1018 194.477 40.4844L194.667 39.5381C194.701 39.3673 194.785 39.2104 194.908 39.0872L195.936 38.0588Z" fill="#6B7280"/>
<path fill-rule="evenodd" clip-rule="evenodd" d="M198.946 37.4395C198.91 37.3531 198.858 37.2746 198.791 37.2086C198.725 37.1424 198.647 37.09 198.561 37.0542C198.474 37.0184 198.382 37 198.288 37C198.195 37 198.102 37.0184 198.016 37.0542C197.929 37.09 197.851 37.1424 197.785 37.2086L197.592 37.4012L198.599 38.4078L198.791 38.2152C198.858 38.1491 198.91 38.0706 198.946 37.9843C198.982 37.8979 199 37.8053 199 37.7119C199 37.6184 198.982 37.5258 198.946 37.4395ZM198.1 38.907L197.093 37.9004L195.407 39.5863C195.382 39.611 195.366 39.6423 195.359 39.6765L195.17 40.6228C195.145 40.7463 195.254 40.8551 195.377 40.8304L196.323 40.6412C196.358 40.6344 196.389 40.6176 196.414 40.5929L198.1 38.907Z" fill="#6B7280"/>
<mask id="mask0_6219_5170" style="mask-type:alpha" maskUnits="userSpaceOnUse" x="109" y="62" width="14" height="14">
<circle cx="116" cy="69" r="7" fill="#E5E7EB"/>
</mask>
<g mask="url(#mask0_6219_5170)">
<circle cx="116" cy="69" r="7" fill="#9CA3AF"/>
<path fill-rule="evenodd" clip-rule="evenodd" d="M116.001 69.7112C116.594 69.7112 117.163 69.4755 117.583 69.056C118.002 68.6365 118.238 68.0675 118.238 67.4743C118.238 66.881 118.002 66.312 117.583 65.8925C117.163 65.473 116.594 65.2373 116.001 65.2373C115.408 65.2373 114.839 65.473 114.419 65.8925C114 66.312 113.764 66.881 113.764 67.4743C113.764 68.0675 114 68.6365 114.419 69.056C114.839 69.4755 115.408 69.7112 116.001 69.7112ZM110.781 76.4221C110.781 75.7366 110.916 75.0579 111.179 74.4246C111.441 73.7914 111.825 73.216 112.31 72.7313C112.795 72.2466 113.37 71.8621 114.003 71.5998C114.637 71.3375 115.315 71.2025 116.001 71.2025C116.686 71.2025 117.365 71.3375 117.998 71.5998C118.632 71.8621 119.207 72.2466 119.692 72.7313C120.176 73.216 120.561 73.7914 120.823 74.4246C121.085 75.0579 121.22 75.7366 121.22 76.4221H110.781Z" fill="#6B7280"/>
</g>
<rect x="127" y="64" width="62" height="4" rx="2" fill="#6B7280"/>
<rect x="127" y="71" width="32" height="3" rx="1.5" fill="#4B5563"/>
<mask id="mask1_6219_5170" style="mask-type:alpha" maskUnits="userSpaceOnUse" x="109" y="88" width="14" height="14">
<circle cx="116" cy="95" r="7" fill="#E5E7EB"/>
</mask>
<g mask="url(#mask1_6219_5170)">
<circle cx="116" cy="95" r="7" fill="#9CA3AF"/>
<path fill-rule="evenodd" clip-rule="evenodd" d="M116.001 95.7112C116.594 95.7112 117.163 95.4755 117.583 95.056C118.002 94.6365 118.238 94.0675 118.238 93.4743C118.238 92.881 118.002 92.312 117.583 91.8925C117.163 91.473 116.594 91.2373 116.001 91.2373C115.408 91.2373 114.839 91.473 114.419 91.8925C114 92.312 113.764 92.881 113.764 93.4743C113.764 94.0675 114 94.6365 114.419 95.056C114.839 95.4755 115.408 95.7112 116.001 95.7112ZM110.781 102.422C110.781 101.737 110.916 101.058 111.179 100.425C111.441 99.7914 111.825 99.216 112.31 98.7313C112.795 98.2466 113.37 97.8621 114.003 97.5998C114.637 97.3375 115.315 97.2025 116.001 97.2025C116.686 97.2025 117.365 97.3375 117.998 97.5998C118.632 97.8621 119.207 98.2466 119.692 98.7313C120.176 99.216 120.561 99.7914 120.823 100.425C121.085 101.058 121.22 101.737 121.22 102.422H110.781Z" fill="#6B7280"/>
</g>
<rect x="127" y="90" width="42" height="4" rx="2" fill="#6B7280"/>
<rect x="127" y="97" width="32" height="3" rx="1.5" fill="#4B5563"/>
<mask id="mask2_6219_5170" style="mask-type:alpha" maskUnits="userSpaceOnUse" x="109" y="114" width="14" height="14">
<circle cx="116" cy="121" r="7" fill="#E5E7EB"/>
</mask>
<g mask="url(#mask2_6219_5170)">
<circle cx="116" cy="121" r="7" fill="#9CA3AF"/>
<path fill-rule="evenodd" clip-rule="evenodd" d="M116.001 121.711C116.594 121.711 117.163 121.476 117.583 121.056C118.002 120.637 118.238 120.068 118.238 119.474C118.238 118.881 118.002 118.312 117.583 117.892C117.163 117.473 116.594 117.237 116.001 117.237C115.408 117.237 114.839 117.473 114.419 117.892C114 118.312 113.764 118.881 113.764 119.474C113.764 120.068 114 120.637 114.419 121.056C114.839 121.476 115.408 121.711 116.001 121.711ZM110.781 128.422C110.781 127.737 110.916 127.058 111.179 126.425C111.441 125.791 111.825 125.216 112.31 124.731C112.795 124.247 113.37 123.862 114.003 123.6C114.637 123.338 115.315 123.203 116.001 123.203C116.686 123.203 117.365 123.338 117.998 123.6C118.632 123.862 119.207 124.247 119.692 124.731C120.176 125.216 120.561 125.791 120.823 126.425C121.085 127.058 121.22 127.737 121.22 128.422H110.781Z" fill="#6B7280"/>
</g>
<rect x="127" y="116" width="49" height="4" rx="2" fill="#6B7280"/>
<rect x="127" y="123" width="32" height="3" rx="1.5" fill="#4B5563"/>
<mask id="mask3_6219_5170" style="mask-type:alpha" maskUnits="userSpaceOnUse" x="109" y="140" width="14" height="14">
<circle cx="116" cy="147" r="7" fill="#E5E7EB"/>
</mask>
<g mask="url(#mask3_6219_5170)">
<circle cx="116" cy="147" r="7" fill="#9CA3AF"/>
<path fill-rule="evenodd" clip-rule="evenodd" d="M116.001 147.711C116.594 147.711 117.163 147.476 117.583 147.056C118.002 146.637 118.238 146.068 118.238 145.474C118.238 144.881 118.002 144.312 117.583 143.892C117.163 143.473 116.594 143.237 116.001 143.237C115.408 143.237 114.839 143.473 114.419 143.892C114 144.312 113.764 144.881 113.764 145.474C113.764 146.068 114 146.637 114.419 147.056C114.839 147.476 115.408 147.711 116.001 147.711ZM110.781 154.422C110.781 153.737 110.916 153.058 111.179 152.425C111.441 151.791 111.825 151.216 112.31 150.731C112.795 150.247 113.37 149.862 114.003 149.6C114.637 149.338 115.315 149.203 116.001 149.203C116.686 149.203 117.365 149.338 117.998 149.6C118.632 149.862 119.207 150.247 119.692 150.731C120.176 151.216 120.561 151.791 120.823 152.425C121.085 153.058 121.22 153.737 121.22 154.422H110.781Z" fill="#6B7280"/>
</g>
<rect x="127" y="142" width="53" height="4" rx="2" fill="#6B7280"/>
<rect x="127" y="149" width="32" height="3" rx="1.5" fill="#4B5563"/>
<mask id="mask4_6219_5170" style="mask-type:alpha" maskUnits="userSpaceOnUse" x="109" y="166" width="14" height="14">
<circle cx="116" cy="173" r="7" fill="#E5E7EB"/>
</mask>
<g mask="url(#mask4_6219_5170)">
<circle cx="116" cy="173" r="7" fill="#9CA3AF"/>
<path fill-rule="evenodd" clip-rule="evenodd" d="M116.001 173.711C116.594 173.711 117.163 173.476 117.583 173.056C118.002 172.637 118.238 172.068 118.238 171.474C118.238 170.881 118.002 170.312 117.583 169.892C117.163 169.473 116.594 169.237 116.001 169.237C115.408 169.237 114.839 169.473 114.419 169.892C114 170.312 113.764 170.881 113.764 171.474C113.764 172.068 114 172.637 114.419 173.056C114.839 173.476 115.408 173.711 116.001 173.711ZM110.781 180.422C110.781 179.737 110.916 179.058 111.179 178.425C111.441 177.791 111.825 177.216 112.31 176.731C112.795 176.247 113.37 175.862 114.003 175.6C114.637 175.338 115.315 175.203 116.001 175.203C116.686 175.203 117.365 175.338 117.998 175.6C118.632 175.862 119.207 176.247 119.692 176.731C120.176 177.216 120.561 177.791 120.823 178.425C121.085 179.058 121.22 179.737 121.22 180.422H110.781Z" fill="#6B7280"/>
</g>
<rect x="127" y="168" width="41" height="4" rx="2" fill="#6B7280"/>
<rect x="127" y="175" width="32" height="3" rx="1.5" fill="#4B5563"/>
<mask id="mask5_6219_5170" style="mask-type:alpha" maskUnits="userSpaceOnUse" x="109" y="192" width="14" height="14">
<circle cx="116" cy="199" r="7" fill="#E5E7EB"/>
</mask>
<g mask="url(#mask5_6219_5170)">
<circle cx="116" cy="199" r="7" fill="#9CA3AF"/>
<path fill-rule="evenodd" clip-rule="evenodd" d="M116.001 199.711C116.594 199.711 117.163 199.476 117.583 199.056C118.002 198.637 118.238 198.068 118.238 197.474C118.238 196.881 118.002 196.312 117.583 195.892C117.163 195.473 116.594 195.237 116.001 195.237C115.408 195.237 114.839 195.473 114.419 195.892C114 196.312 113.764 196.881 113.764 197.474C113.764 198.068 114 198.637 114.419 199.056C114.839 199.476 115.408 199.711 116.001 199.711ZM110.781 206.422C110.781 205.737 110.916 205.058 111.179 204.425C111.441 203.791 111.825 203.216 112.31 202.731C112.795 202.247 113.37 201.862 114.003 201.6C114.637 201.338 115.315 201.203 116.001 201.203C116.686 201.203 117.365 201.338 117.998 201.6C118.632 201.862 119.207 202.247 119.692 202.731C120.176 203.216 120.561 203.791 120.823 204.425C121.085 205.058 121.22 205.737 121.22 206.422H110.781Z" fill="#6B7280"/>
</g>
<rect x="127" y="194" width="57" height="4" rx="2" fill="#6B7280"/>
<rect x="127" y="201" width="32" height="3" rx="1.5" fill="#4B5563"/>
<mask id="mask6_6219_5170" style="mask-type:alpha" maskUnits="userSpaceOnUse" x="109" y="218" width="14" height="14">
<circle cx="116" cy="225" r="7" fill="#E5E7EB"/>
</mask>
<g mask="url(#mask6_6219_5170)">
<circle cx="116" cy="225" r="7" fill="#9CA3AF"/>
<path fill-rule="evenodd" clip-rule="evenodd" d="M116.001 225.711C116.594 225.711 117.163 225.476 117.583 225.056C118.002 224.637 118.238 224.068 118.238 223.474C118.238 222.881 118.002 222.312 117.583 221.892C117.163 221.473 116.594 221.237 116.001 221.237C115.408 221.237 114.839 221.473 114.419 221.892C114 222.312 113.764 222.881 113.764 223.474C113.764 224.068 114 224.637 114.419 225.056C114.839 225.476 115.408 225.711 116.001 225.711ZM110.781 232.422C110.781 231.737 110.916 231.058 111.179 230.425C111.441 229.791 111.825 229.216 112.31 228.731C112.795 228.247 113.37 227.862 114.003 227.6C114.637 227.338 115.315 227.203 116.001 227.203C116.686 227.203 117.365 227.338 117.998 227.6C118.632 227.862 119.207 228.247 119.692 228.731C120.176 229.216 120.561 229.791 120.823 230.425C121.085 231.058 121.22 231.737 121.22 232.422H110.781Z" fill="#6B7280"/>
</g>
<rect x="127" y="220" width="56" height="4" rx="2" fill="#6B7280"/>
<rect x="127" y="227" width="32" height="3" rx="1.5" fill="#4B5563"/>
<mask id="mask7_6219_5170" style="mask-type:alpha" maskUnits="userSpaceOnUse" x="109" y="244" width="14" height="14">
<circle cx="116" cy="251" r="7" fill="#E5E7EB"/>
</mask>
<g mask="url(#mask7_6219_5170)">
<circle cx="116" cy="251" r="7" fill="#9CA3AF"/>
<path fill-rule="evenodd" clip-rule="evenodd" d="M116.001 251.711C116.594 251.711 117.163 251.476 117.583 251.056C118.002 250.637 118.238 250.068 118.238 249.474C118.238 248.881 118.002 248.312 117.583 247.892C117.163 247.473 116.594 247.237 116.001 247.237C115.408 247.237 114.839 247.473 114.419 247.892C114 248.312 113.764 248.881 113.764 249.474C113.764 250.068 114 250.637 114.419 251.056C114.839 251.476 115.408 251.711 116.001 251.711ZM110.781 258.422C110.781 257.737 110.916 257.058 111.179 256.425C111.441 255.791 111.825 255.216 112.31 254.731C112.795 254.247 113.37 253.862 114.003 253.6C114.637 253.338 115.315 253.203 116.001 253.203C116.686 253.203 117.365 253.338 117.998 253.6C118.632 253.862 119.207 254.247 119.692 254.731C120.176 255.216 120.561 255.791 120.823 256.425C121.085 257.058 121.22 257.737 121.22 258.422H110.781Z" fill="#6B7280"/>
</g>
<rect x="127" y="246" width="49" height="4" rx="2" fill="#6B7280"/>
<rect x="127" y="253" width="32" height="3" rx="1.5" fill="#4B5563"/>
<mask id="path-89-inside-6_6219_5170" fill="white">
<path d="M206 30H536V64H206V30Z"/>
</mask>
<path d="M206 30H536V64H206V30Z" fill="#374151"/>
<path d="M536 63.5H206V64.5H536V63.5Z" fill="#4B5563" mask="url(#path-89-inside-6_6219_5170)"/>
<mask id="mask8_6219_5170" style="mask-type:alpha" maskUnits="userSpaceOnUse" x="216" y="40" width="14" height="14">
<circle cx="223" cy="47" r="7" fill="#E5E7EB"/>
</mask>
<g mask="url(#mask8_6219_5170)">
<circle cx="223" cy="47" r="7" fill="#9CA3AF"/>
<path fill-rule="evenodd" clip-rule="evenodd" d="M223.001 47.7112C223.594 47.7112 224.163 47.4755 224.583 47.056C225.002 46.6365 225.238 46.0675 225.238 45.4743C225.238 44.881 225.002 44.312 224.583 43.8925C224.163 43.473 223.594 43.2373 223.001 43.2373C222.408 43.2373 221.839 43.473 221.419 43.8925C221 44.312 220.764 44.881 220.764 45.4743C220.764 46.0675 221 46.6365 221.419 47.056C221.839 47.4755 222.408 47.7112 223.001 47.7112ZM217.781 54.4221C217.781 53.7366 217.916 53.0579 218.179 52.4246C218.441 51.7914 218.825 51.216 219.31 50.7313C219.795 50.2466 220.37 49.8621 221.003 49.5998C221.637 49.3375 222.315 49.2025 223.001 49.2025C223.686 49.2025 224.365 49.3375 224.998 49.5998C225.632 49.8621 226.207 50.2466 226.692 50.7313C227.176 51.216 227.561 51.7914 227.823 52.4246C228.085 53.0579 228.22 53.7366 228.22 54.4221H217.781Z" fill="#6B7280"/>
</g>
<rect x="234" y="42" width="42" height="4" rx="2" fill="#6B7280"/>
<rect x="234" y="49" width="32" height="3" rx="1.5" fill="#4B5563"/>
<path d="M483.324 43.667C483.168 43.667 483.015 43.701 482.874 43.7667C482.739 43.8297 482.619 43.9202 482.521 44.0325C481.763 44.7916 481.541 45.6468 481.73 46.5061C481.913 47.3373 482.47 48.1282 483.17 48.8278C483.87 49.5274 484.66 50.0851 485.491 50.2691C486.35 50.4592 487.205 50.2388 487.966 49.4835C488.078 49.3857 488.169 49.2652 488.233 49.1298C488.299 48.9887 488.333 48.8348 488.333 48.679C488.333 48.5233 488.299 48.3694 488.233 48.2282C488.169 48.093 488.079 47.9726 487.966 47.8748L487.462 47.3704C487.252 47.1603 486.967 47.0424 486.67 47.0424C486.373 47.0424 486.088 47.1605 485.878 47.3705L485.62 47.6281C485.557 47.6911 485.472 47.7265 485.383 47.7265C485.294 47.7265 485.208 47.6911 485.145 47.6281L484.373 46.8554C484.31 46.7923 484.275 46.7068 484.275 46.6177C484.275 46.5285 484.31 46.443 484.373 46.38L484.631 46.1223C484.841 45.912 484.959 45.627 484.959 45.3298C484.959 45.0326 484.84 44.7475 484.631 44.5372L484.126 44.0327C484.029 43.9204 483.908 43.8297 483.773 43.7667C483.632 43.701 483.479 43.667 483.324 43.667Z" fill="#6B7280"/>
<path fill-rule="evenodd" clip-rule="evenodd" d="M503.834 44.9163C503.834 44.4561 503.461 44.083 503.001 44.083H499.667C499.207 44.083 498.834 44.4561 498.834 44.9163V49.083C498.834 49.5432 499.207 49.9163 499.667 49.9163H503.001C503.461 49.9163 503.834 49.5432 503.834 49.083V44.9163ZM504.667 48.8278L506.619 49.4783C506.746 49.5206 506.886 49.4993 506.994 49.421C507.103 49.3427 507.167 49.2169 507.167 49.083V44.9163C507.167 44.7824 507.103 44.6566 506.994 44.5783C506.886 44.5 506.746 44.4787 506.619 44.5211L504.667 45.1716V48.8278Z" fill="#6B7280"/>
<path fill-rule="evenodd" clip-rule="evenodd" d="M516.834 46.9997C516.834 44.6985 518.699 42.833 521.001 42.833C523.302 42.833 525.167 44.6985 525.167 46.9997C525.167 49.3009 523.302 51.1663 521.001 51.1663C518.699 51.1663 516.834 49.3009 516.834 46.9997ZM520.754 44.708C520.524 44.708 520.337 44.8946 520.337 45.1247C520.337 45.3548 520.524 45.5413 520.754 45.5413H520.758C520.988 45.5413 521.175 45.3548 521.175 45.1247C521.175 44.8946 520.988 44.708 520.758 44.708H520.754ZM520.167 46.1663C519.937 46.1663 519.751 46.3529 519.751 46.583C519.751 46.8131 519.937 46.9997 520.167 46.9997H520.584V48.2497H520.167C519.937 48.2497 519.751 48.4362 519.751 48.6663C519.751 48.8965 519.937 49.083 520.167 49.083H521.834C522.064 49.083 522.251 48.8965 522.251 48.6663C522.251 48.4362 522.064 48.2497 521.834 48.2497H521.417V46.583C521.417 46.3529 521.231 46.1663 521.001 46.1663H520.167Z" fill="#6B7280"/>
<path d="M218.434 94.5094L218.568 94.2181C218.957 93.3696 219.581 92.6506 220.367 92.1466C221.153 91.6427 222.067 91.3749 223 91.375L218.434 94.5094ZM218.434 94.5094L218.643 94.7524M218.434 94.5094L218.643 94.7524M218.643 94.7524C219.182 95.3799 219.851 95.8833 220.603 96.2281C221.355 96.5728 222.173 96.7508 223 96.75M218.643 94.7524L227.566 94.5094M227.566 94.5094L227.357 94.7524C226.818 95.3799 226.149 95.8833 225.397 96.2281C224.645 96.5728 223.827 96.7508 223 96.75M227.566 94.5094L227.432 94.2181M227.566 94.5094L227.432 94.2181M223 96.75C223 96.75 223 96.75 222.999 96.75L223 96.25L223.001 96.75C223 96.75 223 96.75 223 96.75ZM227.432 94.2181C227.043 93.3696 226.419 92.6506 225.633 92.1466M227.432 94.2181L225.633 92.1466M225.633 92.1466C224.847 91.6427 223.933 91.3749 223 91.375L225.633 92.1466ZM229.5 91C229.5 92.7239 228.815 94.3772 227.596 95.5962C226.377 96.8152 224.724 97.5 223 97.5C221.276 97.5 219.623 96.8152 218.404 95.5962C217.185 94.3772 216.5 92.7239 216.5 91C216.5 89.2761 217.185 87.6228 218.404 86.4038C219.623 85.1848 221.276 84.5 223 84.5C224.724 84.5 226.377 85.1848 227.596 86.4038C228.815 87.6228 229.5 89.2761 229.5 91ZM224.591 89.966C225.013 89.544 225.25 88.9717 225.25 88.375C225.25 87.7783 225.013 87.206 224.591 86.784C224.169 86.3621 223.597 86.125 223 86.125C222.403 86.125 221.831 86.3621 221.409 86.784C220.987 87.206 220.75 87.7783 220.75 88.375C220.75 88.9717 220.987 89.544 221.409 89.966C221.831 90.3879 222.403 90.625 223 90.625C223.597 90.625 224.169 90.3879 224.591 89.966Z" fill="#6B7280" stroke="#6B7280"/>
<path d="M238 84H384C388.418 84 392 87.5817 392 92V141C392 145.418 388.418 149 384 149H246C241.582 149 238 145.418 238 141V84Z" fill="#374151"/>
<rect x="246" y="98.5" width="46" height="4" rx="2" fill="#6B7280"/>
<rect x="246" y="108.5" width="60" height="2" rx="1" fill="#6B7280"/>
<rect x="246" y="108.5" width="60" height="2" rx="1" fill="#6B7280"/>
<rect x="246" y="121.5" width="138" height="4" rx="2" fill="#6B7280"/>
<rect x="246" y="130.5" width="96" height="4" rx="2" fill="#6B7280"/>
<path d="M402.5 114.7C402.261 114.7 402.032 114.606 401.863 114.437C401.694 114.268 401.6 114.039 401.6 113.8C401.6 113.562 401.694 113.333 401.863 113.164C402.032 112.995 402.261 112.9 402.5 112.9C402.738 112.9 402.967 112.995 403.136 113.164C403.305 113.333 403.4 113.562 403.4 113.8C403.4 114.039 403.305 114.268 403.136 114.437C402.967 114.606 402.738 114.7 402.5 114.7ZM402.5 117.4C402.261 117.4 402.032 117.306 401.863 117.137C401.694 116.968 401.6 116.739 401.6 116.5C401.6 116.262 401.694 116.033 401.863 115.864C402.032 115.695 402.261 115.6 402.5 115.6C402.738 115.6 402.967 115.695 403.136 115.864C403.305 116.033 403.4 116.262 403.4 116.5C403.4 116.739 403.305 116.968 403.136 117.137C402.967 117.306 402.738 117.4 402.5 117.4ZM402.5 120.1C402.261 120.1 402.032 120.006 401.863 119.837C401.694 119.668 401.6 119.439 401.6 119.2C401.6 118.962 401.694 118.733 401.863 118.564C402.032 118.395 402.261 118.3 402.5 118.3C402.738 118.3 402.967 118.395 403.136 118.564C403.305 118.733 403.4 118.962 403.4 119.2C403.4 119.439 403.305 119.668 403.136 119.837C402.967 120.006 402.738 120.1 402.5 120.1Z" fill="#6B7280"/>
<path d="M339.5 195.7C339.261 195.7 339.032 195.606 338.863 195.437C338.694 195.268 338.6 195.039 338.6 194.8C338.6 194.562 338.694 194.333 338.863 194.164C339.032 193.995 339.261 193.9 339.5 193.9C339.738 193.9 339.967 193.995 340.136 194.164C340.305 194.333 340.4 194.562 340.4 194.8C340.4 195.039 340.305 195.268 340.136 195.437C339.967 195.606 339.738 195.7 339.5 195.7ZM339.5 198.4C339.261 198.4 339.032 198.306 338.863 198.137C338.694 197.968 338.6 197.739 338.6 197.5C338.6 197.262 338.694 197.033 338.863 196.864C339.032 196.695 339.261 196.6 339.5 196.6C339.738 196.6 339.967 196.695 340.136 196.864C340.305 197.033 340.4 197.262 340.4 197.5C340.4 197.739 340.305 197.968 340.136 198.137C339.967 198.306 339.738 198.4 339.5 198.4ZM339.5 201.1C339.261 201.1 339.032 201.006 338.863 200.837C338.694 200.668 338.6 200.439 338.6 200.2C338.6 199.962 338.694 199.733 338.863 199.564C339.032 199.395 339.261 199.3 339.5 199.3C339.738 199.3 339.967 199.395 340.136 199.564C340.305 199.733 340.4 199.962 340.4 200.2C340.4 200.439 340.305 200.668 340.136 200.837C339.967 201.006 339.738 201.1 339.5 201.1Z" fill="#6B7280"/>
<path d="M350 173C350 168.582 353.582 165 358 165H504V222C504 226.418 500.418 230 496 230H358C353.582 230 350 226.418 350 222V173Z" fill="#374151"/>
<rect x="358" y="175" width="46" height="4" rx="2" fill="#6B7280"/>
<rect x="358" y="185" width="60" height="2" rx="1" fill="#6B7280"/>
<rect x="358" y="185" width="60" height="2" rx="1" fill="#6B7280"/>
<rect x="358" y="198" width="120" height="4" rx="2" fill="#6B7280"/>
<rect x="358" y="207" width="138" height="4" rx="2" fill="#6B7280"/>
<rect x="358" y="216" width="114" height="4" rx="2" fill="#6B7280"/>
<path d="M514.434 175.509L514.568 175.218C514.957 174.37 515.581 173.651 516.367 173.147C517.153 172.643 518.067 172.375 519 172.375L514.434 175.509ZM514.434 175.509L514.643 175.752M514.434 175.509L514.643 175.752M514.643 175.752C515.182 176.38 515.851 176.883 516.603 177.228C517.355 177.573 518.173 177.751 519 177.75M514.643 175.752L523.566 175.509M523.566 175.509L523.357 175.752C522.818 176.38 522.149 176.883 521.397 177.228C520.645 177.573 519.827 177.751 519 177.75M523.566 175.509L523.432 175.218M523.566 175.509L523.432 175.218M519 177.75C519 177.75 519 177.75 518.999 177.75L519 177.25L519.001 177.75C519 177.75 519 177.75 519 177.75ZM523.432 175.218C523.043 174.37 522.419 173.651 521.633 173.147M523.432 175.218L521.633 173.147M521.633 173.147C520.847 172.643 519.933 172.375 519 172.375L521.633 173.147ZM525.5 172C525.5 173.724 524.815 175.377 523.596 176.596C522.377 177.815 520.724 178.5 519 178.5C517.276 178.5 515.623 177.815 514.404 176.596C513.185 175.377 512.5 173.724 512.5 172C512.5 170.276 513.185 168.623 514.404 167.404C515.623 166.185 517.276 165.5 519 165.5C520.724 165.5 522.377 166.185 523.596 167.404C524.815 168.623 525.5 170.276 525.5 172ZM520.591 170.966C521.013 170.544 521.25 169.972 521.25 169.375C521.25 168.778 521.013 168.206 520.591 167.784C520.169 167.362 519.597 167.125 519 167.125C518.403 167.125 517.831 167.362 517.409 167.784C516.987 168.206 516.75 168.778 516.75 169.375C516.75 169.972 516.987 170.544 517.409 170.966C517.831 171.388 518.403 171.625 519 171.625C519.597 171.625 520.169 171.388 520.591 170.966Z" fill="#6B7280" stroke="#6B7280"/>
<path d="M339.5 268.7C339.261 268.7 339.032 268.606 338.863 268.437C338.694 268.268 338.6 268.039 338.6 267.8C338.6 267.562 338.694 267.333 338.863 267.164C339.032 266.995 339.261 266.9 339.5 266.9C339.738 266.9 339.967 266.995 340.136 267.164C340.305 267.333 340.4 267.562 340.4 267.8C340.4 268.039 340.305 268.268 340.136 268.437C339.967 268.606 339.738 268.7 339.5 268.7ZM339.5 271.4C339.261 271.4 339.032 271.306 338.863 271.137C338.694 270.968 338.6 270.739 338.6 270.5C338.6 270.262 338.694 270.033 338.863 269.864C339.032 269.695 339.261 269.6 339.5 269.6C339.738 269.6 339.967 269.695 340.136 269.864C340.305 270.033 340.4 270.262 340.4 270.5C340.4 270.739 340.305 270.968 340.136 271.137C339.967 271.306 339.738 271.4 339.5 271.4ZM339.5 274.1C339.261 274.1 339.032 274.006 338.863 273.837C338.694 273.668 338.6 273.439 338.6 273.2C338.6 272.962 338.694 272.733 338.863 272.564C339.032 272.395 339.261 272.3 339.5 272.3C339.738 272.3 339.967 272.395 340.136 272.564C340.305 272.733 340.4 272.962 340.4 273.2C340.4 273.439 340.305 273.668 340.136 273.837C339.967 274.006 339.738 274.1 339.5 274.1Z" fill="#6B7280"/>
<path d="M350 254C350 249.582 353.582 246 358 246H504V287C504 291.418 500.418 295 496 295H358C353.582 295 350 291.418 350 287V254Z" fill="#374151"/>
<rect x="358" y="257" width="46" height="4" rx="2" fill="#6B7280"/>
<rect x="358" y="267" width="60" height="2" rx="1" fill="#6B7280"/>
<rect x="358" y="267" width="60" height="2" rx="1" fill="#6B7280"/>
<rect x="358" y="280" width="138" height="4" rx="2" fill="#6B7280"/>
<path d="M514.434 256.509L514.568 256.218C514.957 255.37 515.581 254.651 516.367 254.147C517.153 253.643 518.067 253.375 519 253.375L514.434 256.509ZM514.434 256.509L514.643 256.752M514.434 256.509L514.643 256.752M514.643 256.752C515.182 257.38 515.851 257.883 516.603 258.228C517.355 258.573 518.173 258.751 519 258.75M514.643 256.752L523.566 256.509M523.566 256.509L523.357 256.752C522.818 257.38 522.149 257.883 521.397 258.228C520.645 258.573 519.827 258.751 519 258.75M523.566 256.509L523.432 256.218M523.566 256.509L523.432 256.218M519 258.75C519 258.75 519 258.75 518.999 258.75L519 258.25L519.001 258.75C519 258.75 519 258.75 519 258.75ZM523.432 256.218C523.043 255.37 522.419 254.651 521.633 254.147M523.432 256.218L521.633 254.147M521.633 254.147C520.847 253.643 519.933 253.375 519 253.375L521.633 254.147ZM525.5 253C525.5 254.724 524.815 256.377 523.596 257.596C522.377 258.815 520.724 259.5 519 259.5C517.276 259.5 515.623 258.815 514.404 257.596C513.185 256.377 512.5 254.724 512.5 253C512.5 251.276 513.185 249.623 514.404 248.404C515.623 247.185 517.276 246.5 519 246.5C520.724 246.5 522.377 247.185 523.596 248.404C524.815 249.623 525.5 251.276 525.5 253ZM520.591 251.966C521.013 251.544 521.25 250.972 521.25 250.375C521.25 249.778 521.013 249.206 520.591 248.784C520.169 248.362 519.597 248.125 519 248.125C518.403 248.125 517.831 248.362 517.409 248.784C516.987 249.206 516.75 249.778 516.75 250.375C516.75 250.972 516.987 251.544 517.409 251.966C517.831 252.388 518.403 252.625 519 252.625C519.597 252.625 520.169 252.388 520.591 251.966Z" fill="#6B7280" stroke="#6B7280"/>
<g filter="url(#filter1_dd_6219_5170)">
<mask id="path-124-inside-7_6219_5170" fill="white">
<path d="M206 315H536V345H206V315Z"/>
</mask>
<path d="M206 315H536V345H206V315Z" fill="#374151"/>
<path d="M206 315.5H536V314.5H206V315.5Z" fill="#4B5563" mask="url(#path-124-inside-7_6219_5170)"/>
<rect x="216" y="328" width="106" height="4" rx="2" fill="#6B7280"/>
<path fill-rule="evenodd" clip-rule="evenodd" d="M525.166 330C525.166 330.172 525.061 330.326 524.9 330.389L517.4 333.305C517.244 333.366 517.066 333.327 516.95 333.207C516.833 333.086 516.8 332.907 516.866 332.753L517.867 330.417L520.583 330.417C520.813 330.417 520.999 330.23 520.999 330C520.999 329.77 520.813 329.584 520.583 329.584L517.867 329.584L516.866 327.248C516.8 327.094 516.833 326.915 516.95 326.794C517.066 326.673 517.244 326.635 517.4 326.695L524.9 329.612C525.061 329.674 525.166 329.829 525.166 330Z" fill="#3F83F8"/>
</g>
</g>
<defs>
<filter id="filter0_dd_6219_5170" x="-3" y="-2" width="542" height="36" filterUnits="userSpaceOnUse" color-interpolation-filters="sRGB">
<feFlood flood-opacity="0" result="BackgroundImageFix"/>
<feColorMatrix in="SourceAlpha" type="matrix" values="0 0 0 0 0 0 0 0 0 0 0 0 0 0 0 0 0 0 127 0" result="hardAlpha"/>
<feOffset dy="1"/>
<feGaussianBlur stdDeviation="1.5"/>
<feColorMatrix type="matrix" values="0 0 0 0 0 0 0 0 0 0 0 0 0 0 0 0 0 0 0.1 0"/>
<feBlend mode="normal" in2="BackgroundImageFix" result="effect1_dropShadow_6219_5170"/>
<feColorMatrix in="SourceAlpha" type="matrix" values="0 0 0 0 0 0 0 0 0 0 0 0 0 0 0 0 0 0 127 0" result="hardAlpha"/>
<feOffset dy="1"/>
<feGaussianBlur stdDeviation="1"/>
<feColorMatrix type="matrix" values="0 0 0 0 0 0 0 0 0 0 0 0 0 0 0 0 0 0 0.06 0"/>
<feBlend mode="normal" in2="effect1_dropShadow_6219_5170" result="effect2_dropShadow_6219_5170"/>
<feBlend mode="normal" in="SourceGraphic" in2="effect2_dropShadow_6219_5170" result="shape"/>
</filter>
<filter id="filter1_dd_6219_5170" x="203" y="313" width="336" height="36" filterUnits="userSpaceOnUse" color-interpolation-filters="sRGB">
<feFlood flood-opacity="0" result="BackgroundImageFix"/>
<feColorMatrix in="SourceAlpha" type="matrix" values="0 0 0 0 0 0 0 0 0 0 0 0 0 0 0 0 0 0 127 0" result="hardAlpha"/>
<feOffset dy="1"/>
<feGaussianBlur stdDeviation="1.5"/>
<feColorMatrix type="matrix" values="0 0 0 0 0 0 0 0 0 0 0 0 0 0 0 0 0 0 0.1 0"/>
<feBlend mode="normal" in2="BackgroundImageFix" result="effect1_dropShadow_6219_5170"/>
<feColorMatrix in="SourceAlpha" type="matrix" values="0 0 0 0 0 0 0 0 0 0 0 0 0 0 0 0 0 0 127 0" result="hardAlpha"/>
<feOffset dy="1"/>
<feGaussianBlur stdDeviation="1"/>
<feColorMatrix type="matrix" values="0 0 0 0 0 0 0 0 0 0 0 0 0 0 0 0 0 0 0.06 0"/>
<feBlend mode="normal" in2="effect1_dropShadow_6219_5170" result="effect2_dropShadow_6219_5170"/>
<feBlend mode="normal" in="SourceGraphic" in2="effect2_dropShadow_6219_5170" result="shape"/>
</filter>
<linearGradient id="paint0_linear_6219_5170" x1="15.5225" y1="17.9132" x2="16.7029" y2="13.8016" gradientUnits="userSpaceOnUse">
<stop stop-color="#1724C9"/>
<stop offset="1" stop-color="#1C64F2"/>
</linearGradient>
<linearGradient id="paint1_linear_6219_5170" x1="18.2412" y1="12.899" x2="15.136" y2="9.80477" gradientUnits="userSpaceOnUse">
<stop stop-color="#1C64F2"/>
<stop offset="1" stop-color="#0092FF"/>
</linearGradient>
<linearGradient id="paint2_linear_6219_5170" x1="14.0614" y1="10.8821" x2="9.37716" y2="11.1781" gradientUnits="userSpaceOnUse">
<stop stop-color="#0092FF"/>
<stop offset="1" stop-color="#45B2FF"/>
</linearGradient>
<linearGradient id="paint3_linear_6219_5170" x1="13.746" y1="19.7486" x2="17.9527" y2="18.6135" gradientUnits="userSpaceOnUse">
<stop stop-color="#1C64F2"/>
<stop offset="1" stop-color="#0092FF"/>
</linearGradient>
<linearGradient id="paint4_linear_6219_5170" x1="10.7263" y1="14.881" x2="13.713" y2="17.9758" gradientUnits="userSpaceOnUse">
<stop stop-color="#1724C9"/>
<stop offset="1" stop-color="#1C64F2"/>
</linearGradient>
<linearGradient id="paint5_linear_6219_5170" x1="17.5458" y1="17.1134" x2="19.6297" y2="12.9125" gradientUnits="userSpaceOnUse">
<stop stop-color="#0092FF"/>
<stop offset="1" stop-color="#45B2FF"/>
</linearGradient>
<linearGradient id="paint6_linear_6219_5170" x1="10.0117" y1="12.424" x2="8.89654" y2="16.6153" gradientUnits="userSpaceOnUse">
<stop stop-color="#1C64F2"/>
<stop offset="1" stop-color="#0092FF"/>
</linearGradient>
<linearGradient id="paint7_linear_6219_5170" x1="15.7062" y1="12.2246" x2="11.6312" y2="13.2391" gradientUnits="userSpaceOnUse">
<stop stop-color="#1724C9"/>
<stop offset="1" stop-color="#1C64F2"/>
</linearGradient>
<linearGradient id="paint8_linear_6219_5170" x1="10.406" y1="17.0086" x2="13.0034" y2="20.9158" gradientUnits="userSpaceOnUse">
<stop stop-color="#0092FF"/>
<stop offset="1" stop-color="#45B2FF"/>
</linearGradient>
<clipPath id="clip0_6219_5170">
<rect width="536" height="345" fill="white"/>
</clipPath>
</defs>
</svg>
