<svg width="536" height="345" viewBox="0 0 536 345" fill="none" xmlns="http://www.w3.org/2000/svg">
<g clip-path="url(#clip0_6258_15921)">
<g filter="url(#filter0_dd_6258_15921)">
<mask id="path-1-inside-1_6258_15921" fill="white">
<path d="M0 0H536V30H0V0Z"/>
</mask>
<path d="M0 0H536V30H0V0Z" fill="white"/>
<path d="M536 29.5H0V30.5H536V29.5Z" fill="#D1D5DB" mask="url(#path-1-inside-1_6258_15921)"/>
<path d="M17.1949 13.8525C17.1671 14.044 17.0409 14.3041 16.8961 14.5302C16.7134 14.8155 16.4234 15.0153 16.0916 15.0847L14.6298 15.3904C14.3948 15.4395 14.1818 15.5625 14.0218 15.7413L13.0634 16.8126C12.8832 17.014 12.7573 16.966 12.7573 16.6959C12.7552 16.7059 12.2816 17.9271 13.5365 18.6509C14.0187 18.929 14.7127 18.8291 15.1949 18.5509L17.7496 17.0774C18.705 16.5263 19.3796 15.594 19.6038 14.5149C19.6127 14.4722 19.6195 14.4293 19.6269 14.3865L17.1949 13.8525Z" fill="url(#paint0_linear_6258_15921)"/>
<path d="M16.5323 12.3806C17.0145 12.6587 17.2115 13.0727 17.2114 13.6289C17.2114 13.7045 17.2055 13.7791 17.1948 13.8525L18.2242 14.2947L19.6268 14.3865C19.8064 13.3471 19.4544 12.2772 18.8235 11.4268C18.3486 10.7868 17.7376 10.2314 17.0031 9.80768C16.4064 9.4635 15.7863 9.23674 15.1633 9.1123L14.4633 10.0188L14.2422 11.0596L16.5323 12.3806Z" fill="url(#paint1_linear_6258_15921)"/>
<path d="M8.29302 13.1439C8.29276 13.1447 8.29349 13.1449 8.29376 13.1441C8.34778 12.9821 8.41551 12.8014 8.50006 12.6083C8.94175 11.5997 9.7929 10.927 10.84 10.584C11.8872 10.241 13.0305 10.3612 13.9848 10.9117L14.2422 11.0602L15.1633 9.11281C12.2337 8.52769 9.2395 10.2489 8.29675 13.1326C8.2963 13.134 8.29466 13.1388 8.29302 13.1439Z" fill="url(#paint2_linear_6258_15921)"/>
<path d="M15.0922 18.5514C14.6101 18.8295 14.016 18.8295 13.5339 18.5514C13.4684 18.5137 13.4067 18.4712 13.3484 18.4253L12.5004 19.0082L11.7695 20.1893C12.5808 20.8644 13.6342 21.0814 14.6868 20.9607C15.479 20.8699 16.266 20.6189 17.0005 20.1952C17.5972 19.851 18.1038 19.4279 18.5232 18.9511L18.0874 17.8923L17.3823 17.2305L15.0922 18.5514Z" fill="url(#paint3_linear_6258_15921)"/>
<path d="M13.3501 18.4256C12.9786 18.133 12.7564 17.6842 12.7564 17.2035V17.1555V13.1519C12.7564 12.9255 12.8231 12.887 13.0194 13.0002C12.7171 12.8259 12.0188 12.2273 11.1565 12.7246C10.6744 13.0028 10.2773 13.6166 10.2773 14.1729V17.12C10.2773 18.2222 10.8482 19.3719 11.6716 20.1054C11.7041 20.1345 11.7379 20.1618 11.7713 20.1896L13.3501 18.4256Z" fill="url(#paint4_linear_6258_15921)"/>
<path d="M18.4645 10.9915C18.4639 10.9909 18.4634 10.9914 18.464 10.992C18.5774 11.1198 18.7002 11.2687 18.8253 11.4384C19.4788 12.3249 19.7229 13.4476 19.4967 14.5251C19.2704 15.6026 18.5946 16.5317 17.6402 17.0821L17.3828 17.2306L18.5237 18.9513C20.4957 16.7091 20.5008 13.2579 18.4724 11.0004C18.4715 10.9993 18.4681 10.9955 18.4645 10.9915Z" fill="url(#paint5_linear_6258_15921)"/>
<path d="M10.3791 14.1731C10.3791 13.6169 10.6761 13.1029 11.1582 12.8248C11.2237 12.787 11.2913 12.7549 11.3604 12.7274L11.279 11.7022L10.7073 10.5293C9.71644 10.8936 8.91498 11.6466 8.49328 12.6177C8.17593 13.3485 8 14.1548 8 15.0022C8 15.6906 8.11347 16.3405 8.31711 16.9417L9.45287 17.0941L10.3791 16.815V14.1731Z" fill="url(#paint6_linear_6258_15921)"/>
<path d="M11.3601 12.7273C11.7995 12.5522 12.2997 12.5843 12.7164 12.8247L12.7579 12.8487L16.094 14.7729C16.3281 14.9079 16.3068 15.0407 16.0423 15.0961L16.2347 15.0558C16.488 15.0029 16.7193 14.8735 16.8963 14.6849C17.2005 14.3606 17.3121 13.9694 17.3121 13.6299C17.3121 13.0737 17.0151 12.5597 16.533 12.2816L13.9783 10.808C13.0228 10.2569 11.8774 10.1394 10.8298 10.485C10.7884 10.4987 10.7478 10.5142 10.707 10.5292L11.3601 12.7273Z" fill="url(#paint7_linear_6258_15921)"/>
<path d="M15.2498 20.8699C15.2506 20.8697 15.2505 20.869 15.2496 20.8692C15.0822 20.9034 14.8916 20.9352 14.682 20.9586C13.5868 21.0807 12.4915 20.7306 11.6706 19.9961C10.8497 19.2617 10.3823 18.2123 10.3823 17.1114L10.3823 16.8145L8.32031 16.9412C9.27792 19.7685 12.267 21.4985 15.2381 20.8723C15.2395 20.872 15.2445 20.871 15.2498 20.8699Z" fill="url(#paint8_linear_6258_15921)"/>
<rect x="27" y="9" width="152" height="12" rx="4" fill="#E5E7EB"/>
<path d="M479.994 15.3683V14.3183C479.995 13.6086 479.756 12.9196 479.316 12.3626C478.876 11.8055 478.261 11.4131 477.571 11.2488C477.576 11.2284 477.58 11.2078 477.583 11.1869V9.80794C477.583 9.65323 477.522 9.50486 477.413 9.39546C477.303 9.28607 477.155 9.22461 477 9.22461C476.845 9.22461 476.697 9.28607 476.588 9.39546C476.478 9.50486 476.417 9.65323 476.417 9.80794V11.1869C476.42 11.2078 476.424 11.2284 476.429 11.2488C475.739 11.4131 475.124 11.8055 474.684 12.3626C474.244 12.9196 474.005 13.6086 474.006 14.3183V15.3683C474.006 16.7601 472.917 17.1078 472.917 17.8037C472.917 18.1496 472.917 18.4996 473.231 18.4996H480.77C481.083 18.4996 481.083 18.1496 481.083 17.8037C481.083 17.1078 479.994 16.7601 479.994 15.3683Z" fill="#6B7280"/>
<path d="M472.255 14.9016C472.1 14.9016 471.952 14.8402 471.843 14.7308C471.733 14.6214 471.672 14.473 471.672 14.3183C471.675 12.9351 472.199 11.6039 473.14 10.5902C473.245 10.4764 473.391 10.409 473.546 10.4029C473.701 10.3968 473.852 10.4524 473.966 10.5575C474.079 10.6627 474.147 10.8087 474.153 10.9635C474.159 11.1183 474.103 11.2692 473.998 11.3829C473.256 12.1816 472.842 13.2308 472.839 14.3212C472.838 14.4754 472.776 14.623 472.667 14.7318C472.557 14.8406 472.409 14.9016 472.255 14.9016Z" fill="#6B7280"/>
<path d="M481.745 14.9016C481.59 14.9016 481.442 14.8402 481.332 14.7308C481.223 14.6214 481.162 14.473 481.162 14.3183C481.158 13.2289 480.744 12.1809 480.002 11.3829C479.902 11.2684 479.851 11.1194 479.859 10.9676C479.867 10.8158 479.935 10.6732 480.046 10.5703C480.158 10.4673 480.306 10.4121 480.458 10.4164C480.61 10.4206 480.754 10.484 480.86 10.5931C481.801 11.6068 482.325 12.938 482.328 14.3212C482.327 14.4754 482.266 14.623 482.156 14.7318C482.047 14.8406 481.899 14.9016 481.745 14.9016Z" fill="#6B7280"/>
<path d="M475.147 19.0829C475.302 19.4464 475.56 19.7563 475.889 19.9741C476.219 20.192 476.605 20.3081 477 20.3081C477.395 20.3081 477.781 20.192 478.111 19.9741C478.44 19.7563 478.699 19.4464 478.853 19.0829H475.147Z" fill="#6B7280"/>
<path fill-rule="evenodd" clip-rule="evenodd" d="M494.833 9.75C494.235 9.75 493.75 10.235 493.75 10.8332V13.3334C493.75 13.9317 494.235 14.4167 494.833 14.4167H497.333C497.932 14.4167 498.417 13.9317 498.417 13.3334V10.8332C498.417 10.235 497.932 9.75 497.333 9.75H494.833ZM500.667 9.75C500.068 9.75 499.583 10.235 499.583 10.8332V13.3334C499.583 13.9317 500.068 14.4167 500.667 14.4167H503.167C503.765 14.4167 504.25 13.9317 504.25 13.3334V10.8332C504.25 10.235 503.765 9.75 503.167 9.75H500.667ZM494.833 15.5833C494.235 15.5833 493.75 16.0683 493.75 16.6666V19.1667C493.75 19.765 494.235 20.25 494.833 20.25H497.333C497.932 20.25 498.417 19.765 498.417 19.1667V16.6666C498.417 16.0683 497.932 15.5833 497.333 15.5833H494.833ZM500.667 15.5833C500.068 15.5833 499.583 16.0683 499.583 16.6666V19.1667C499.583 19.765 500.068 20.25 500.667 20.25H503.167C503.765 20.25 504.25 19.765 504.25 19.1667V16.6666C504.25 16.0683 503.765 15.5833 503.167 15.5833H500.667Z" fill="#6B7280"/>
<path fill-rule="evenodd" clip-rule="evenodd" d="M521.001 10.3337C518.424 10.3337 516.335 12.423 516.335 15.0003C516.335 16.3391 516.898 17.5462 517.801 18.3972C517.967 18.0534 518.2 17.7428 518.49 17.4851C519.021 17.0131 519.706 16.7517 520.417 16.7503L520.418 16.7503L521.586 16.7503C522.296 16.7517 522.982 17.0131 523.513 17.4851C523.803 17.7428 524.036 18.0534 524.201 18.3972C525.104 17.5462 525.668 16.3391 525.668 15.0003C525.668 12.423 523.579 10.3337 521.001 10.3337ZM521.574 20.8059C524.527 20.5181 526.835 18.0287 526.835 15.0003C526.835 11.7787 524.223 9.16699 521.001 9.16699C517.78 9.16699 515.168 11.7787 515.168 15.0003C515.168 18.0287 517.476 20.5181 520.428 20.8059C520.618 20.8245 520.809 20.8338 521.001 20.8337M521.001 19.667C521.001 19.667 521.001 19.667 521.001 19.667C521.002 19.667 521.002 19.667 521.002 19.667C521.196 19.667 521.387 19.6551 521.575 19.6321C522.155 19.5606 522.716 19.38 523.23 19.0993C523.134 18.8153 522.965 18.559 522.738 18.3571C522.42 18.0745 522.009 17.9179 521.584 17.917H520.419C519.993 17.9179 519.583 18.0745 519.265 18.3571C519.038 18.559 518.869 18.8153 518.772 19.0993C519.286 19.38 519.848 19.5606 520.428 19.6321C520.616 19.6551 520.807 19.667 521.001 19.667ZM521.001 20.8337C521.193 20.8338 521.384 20.8245 521.574 20.8059L521.001 20.8337ZM521.001 12.667C520.357 12.667 519.835 13.1893 519.835 13.8337C519.835 14.478 520.357 15.0003 521.001 15.0003C521.646 15.0003 522.168 14.478 522.168 13.8337C522.168 13.1893 521.646 12.667 521.001 12.667ZM518.668 13.8337C518.668 12.545 519.713 11.5003 521.001 11.5003C522.29 11.5003 523.335 12.545 523.335 13.8337C523.335 15.1223 522.29 16.167 521.001 16.167C519.713 16.167 518.668 15.1223 518.668 13.8337Z" fill="#6B7280"/>
</g>
<rect width="536" height="315" transform="translate(0 30)" fill="#F4F4F5"/>
<mask id="path-16-inside-2_6258_15921" fill="white">
<path d="M0 30H103V345H0V30Z"/>
</mask>
<path d="M0 30H103V345H0V30Z" fill="white"/>
<path d="M102.5 30V345H103.5V30H102.5Z" fill="#D1D5DB" mask="url(#path-16-inside-2_6258_15921)"/>
<mask id="path-18-inside-3_6258_15921" fill="white">
<path d="M12 42H91V122H12V42Z"/>
</mask>
<path d="M91 121.5H12V122.5H91V121.5Z" fill="#E5E7EB" mask="url(#path-18-inside-3_6258_15921)"/>
<rect x="12" y="42" width="5" height="5" rx="2.5" fill="#9CA3AF"/>
<rect x="21" y="42" width="57" height="5" rx="2.5" fill="#9CA3AF"/>
<rect x="12" y="57" width="5" height="5" rx="2.5" fill="#9CA3AF"/>
<rect x="21" y="57" width="48.4961" height="5" rx="2.5" fill="#9CA3AF"/>
<rect x="12" y="72" width="5" height="5" rx="2.5" fill="#9CA3AF"/>
<rect x="21" y="72" width="61" height="5" rx="2.5" fill="#9CA3AF"/>
<rect x="12" y="87" width="5" height="5" rx="2.5" fill="#9CA3AF"/>
<rect x="21" y="87" width="39" height="5" rx="2.5" fill="#9CA3AF"/>
<rect x="12" y="102" width="5" height="5" rx="2.5" fill="#9CA3AF"/>
<rect x="21" y="102" width="61" height="5" rx="2.5" fill="#9CA3AF"/>
<rect x="12" y="137" width="5" height="5" rx="2.5" fill="#9CA3AF"/>
<rect x="21" y="137" width="42" height="5" rx="2.5" fill="#9CA3AF"/>
<rect x="12" y="152" width="5" height="5" rx="2.5" fill="#9CA3AF"/>
<rect x="21" y="152" width="25" height="5" rx="2.5" fill="#9CA3AF"/>
<rect x="12" y="167" width="5" height="5" rx="2.5" fill="#9CA3AF"/>
<rect x="21" y="167" width="41" height="5" rx="2.5" fill="#9CA3AF"/>
<rect x="32" y="328" width="5" height="5" rx="2.5" fill="#D1D5DB"/>
<rect x="49" y="328" width="5" height="5" rx="2.5" fill="#D1D5DB"/>
<rect x="66" y="328" width="5" height="5" rx="2.5" fill="#D1D5DB"/>
<rect x="115" y="42" width="409" height="164" rx="4" fill="white"/>
<rect x="125" y="52" width="40" height="6" rx="3" fill="#9CA3AF"/>
<rect x="125" y="66" width="140" height="6" rx="3" fill="#D1D5DB"/>
<path fill-rule="evenodd" clip-rule="evenodd" d="M125 174.552C125 171.833 126.482 169.33 128.865 168.022L158.636 151.688C164.784 148.315 172.004 147.466 178.767 149.321L193.466 153.354C204.287 156.322 215.817 152.289 222.427 143.222L232.849 128.926C243.633 114.134 265.7 114.134 276.484 128.926L283.901 139.099C291.9 150.071 306.802 153.395 318.706 146.864L328.124 141.697C336.213 137.259 346.009 137.259 354.099 141.697L368.103 149.381C377.884 154.747 389.959 153.545 398.49 146.356L416.902 130.838C423.949 124.9 433.537 122.966 442.335 125.707L468.195 133.767C469.913 134.302 471.572 135.007 473.149 135.873L506.269 154.044C511.037 156.66 514 161.666 514 167.104C514 175.331 507.331 182 499.104 182H132.448C128.335 182 125 178.665 125 174.552Z" fill="url(#paint9_linear_6258_15921)"/>
<path d="M125 171L157.89 151.976C164.491 148.158 172.363 147.198 179.688 149.316L192.094 152.904C203.654 156.247 216.057 151.83 222.902 141.932L231.637 129.301C242.77 113.203 266.563 113.203 277.696 129.301L283.198 137.257C291.496 149.256 307.618 152.873 320.247 145.568L327.092 141.609C335.765 136.592 346.457 136.592 355.13 141.609L367.048 148.502C377.391 154.485 390.391 153.244 399.416 145.414L416.054 130.979C423.226 124.756 433.062 122.592 442.183 125.23L467.495 132.551C469.676 133.181 471.771 134.074 473.736 135.211L514 158.5" stroke="#D1D5DB" stroke-width="2"/>
<path fill-rule="evenodd" clip-rule="evenodd" d="M125 185.112C125 181.672 127.23 178.628 130.51 177.591L160.987 167.955C165.695 166.466 170.749 166.466 175.458 167.955L193.812 173.758C204.203 177.044 215.504 172.915 221.33 163.704L234.384 143.067C243.804 128.173 265.529 128.173 274.95 143.067L285.061 159.052C292.146 170.253 306.969 173.591 318.171 166.507L335.235 155.716C339.074 153.288 343.522 152 348.063 152H380.629C383.084 152 385.524 151.623 387.865 150.883L420.32 140.621C425.029 139.132 430.082 139.132 434.791 140.621L467.813 151.063C469.781 151.685 471.661 152.559 473.405 153.662L509.898 176.739C512.452 178.354 514 181.165 514 184.187C514 189.054 510.054 193 505.187 193H132.888C128.532 193 125 189.468 125 185.112Z" fill="url(#paint10_linear_6258_15921)"/>
<path d="M125 181L160.731 169.261C165.597 167.662 170.847 167.662 175.713 169.261L193.355 175.057C203.95 178.538 215.547 174.262 221.346 164.736L234.167 143.675C243.517 128.315 265.816 128.315 275.167 143.675L284.971 159.78C292.032 171.379 307.302 174.815 318.65 167.358L335.111 156.542C339.025 153.97 343.607 152.6 348.29 152.6H380.492C383.037 152.6 385.565 152.195 387.983 151.401L420.065 140.861C424.931 139.262 430.18 139.262 435.046 140.861L467.752 151.606C469.76 152.266 471.673 153.188 473.44 154.349L514 181" stroke="#9CA3AF" stroke-width="2" stroke-linejoin="round"/>
<rect x="115" y="218" width="128.333" height="131" rx="4" fill="white"/>
<path d="M123 232.31C123 228.825 125.825 226 129.31 226C132.794 226 135.619 228.825 135.619 232.31L135.619 315H123L123 232.31Z" fill="#9CA3AF"/>
<path d="M139.617 254.31C139.617 250.825 142.442 248 145.927 248C149.411 248 152.236 250.825 152.236 254.31L152.236 315H139.617L139.617 254.31Z" fill="#E5E7EB"/>
<path d="M156.238 274.31C156.238 270.825 159.063 268 162.548 268C166.032 268 168.857 270.825 168.857 274.31L168.857 315H156.238L156.238 274.31Z" fill="#9CA3AF"/>
<path d="M172.855 232.31C172.855 228.825 175.68 226 179.165 226C182.65 226 185.475 228.825 185.475 232.31L185.475 315H172.855L172.855 232.31Z" fill="#E5E7EB"/>
<path d="M189.477 254.31C189.477 250.825 192.301 248 195.786 248C199.271 248 202.096 250.825 202.096 254.31L202.096 315H189.477L189.477 254.31Z" fill="#9CA3AF"/>
<path d="M206.094 274.31C206.094 270.825 208.919 268 212.403 268C215.888 268 218.713 270.825 218.713 274.31L218.713 315H206.094L206.094 274.31Z" fill="#D1D5DB"/>
<path d="M222.715 232.31C222.715 228.825 225.54 226 229.024 226C232.509 226 235.334 228.825 235.334 232.31L235.334 315H222.715L222.715 232.31Z" fill="#9CA3AF"/>
<rect x="123" y="325" width="96" height="5" rx="2" fill="#D1D5DB"/>
<rect x="123" y="336" width="49" height="5" rx="2" fill="#D1D5DB"/>
<rect x="255.332" y="218" width="128.333" height="131" rx="4" fill="white"/>
<path d="M319.502 270.5V226C344.077 226 363.999 245.923 363.999 270.5C363.999 295.077 344.077 315 319.502 315C311.691 315 304.018 312.944 297.254 309.038L319.502 270.5Z" fill="#D1D5DB" stroke="white" stroke-width="2"/>
<path d="M319.504 270.5L297.256 309.038C275.973 296.75 268.681 269.534 280.969 248.25L319.504 270.5Z" fill="#E5E7EB" stroke="white" stroke-width="2"/>
<path d="M319.504 270.5L280.969 248.25C288.917 234.482 303.607 226 319.504 226V270.5Z" fill="#9CA3AF" stroke="white" stroke-width="2"/>
<rect x="263.332" y="325" width="112.333" height="5" rx="2" fill="#D1D5DB"/>
<rect x="263.332" y="336" width="37" height="5" rx="2" fill="#D1D5DB"/>
<rect x="395.668" y="218" width="128.333" height="131" rx="4" fill="white"/>
<g opacity="0.3">
<path fill-rule="evenodd" clip-rule="evenodd" d="M515.668 233.8C515.668 233.8 513.335 243.743 501.085 256.171C493.313 256.171 492.335 230.486 484.751 228C476.98 228 476.646 295.943 468.418 295.943C460.646 295.943 460.896 252.029 452.668 252.029C444.896 252.029 443.979 274.4 435.751 274.4C427.584 268.6 428.813 261.143 420.584 261.143C412.813 261.143 403.667 293.902 403.667 293.902V315H515.668V233.8Z" fill="#9CA2AF"/>
<path fill-rule="evenodd" clip-rule="evenodd" d="M515.668 233.8C515.668 233.8 513.335 243.743 501.085 256.171C493.313 256.171 492.335 230.486 484.751 228C476.98 228 476.646 295.943 468.418 295.943C460.646 295.943 460.896 252.029 452.668 252.029C444.896 252.029 443.979 274.4 435.751 274.4C427.584 268.6 428.813 261.143 420.584 261.143C412.813 261.143 403.667 293.902 403.667 293.902V315H515.668V233.8Z" fill="url(#paint11_linear_6258_15921)"/>
</g>
<path fill-rule="evenodd" clip-rule="evenodd" d="M468.51 296.667C472.188 296.667 473.802 288.701 476.674 264.219L477.251 259.286C479.895 236.997 481.647 228.618 484.359 228.618C487.015 228.618 488.515 231.568 491.061 240.312L491.465 241.715C494.523 252.37 496.412 256.232 500.209 256.232C500.65 256.232 501.097 256.162 501.549 256.023C504.797 255.031 508.175 250.646 511.56 243.969C512.894 241.339 514.137 238.526 515.258 235.713C515.552 234.974 515.761 234.276 516.005 233.626V232.76V231.88V229.298L515.083 231.551C514.791 232.346 514.452 233.234 514.07 234.191C512.98 236.926 511.772 239.661 510.48 242.208C507.296 248.489 504.149 252.574 501.304 253.443C500.932 253.557 500.566 253.615 500.209 253.615C497.366 253.615 495.759 250.662 493.233 242.131L492.113 238.275C489.445 229.262 487.688 226 484.359 226C480.413 226 478.669 234.478 475.691 259.864L474.986 265.868C472.532 286.367 470.909 294.05 468.51 294.05C465.672 294.05 463.986 288.705 461.284 273.738L460.599 269.925C457.856 254.868 456.16 249.67 452.66 249.67C449.139 249.67 447.243 252.494 444.491 260.094L443.255 263.583C440.883 270.138 439.41 272.353 436.811 272.353C433.771 272.353 432.17 270.846 429.57 266.414L429.055 265.524C426.113 260.397 424.328 258.546 420.961 258.546C417.06 258.546 413.175 264.891 409.368 275.415C408.063 279.02 406.862 282.875 405.789 286.73L405.359 288.301C405.291 288.554 405.225 288.804 405.16 289.048V291.363L405.182 295.271L405.784 292.911L406.123 291.544L406.48 290.167C406.669 289.449 406.875 288.691 407.095 287.899C408.145 284.126 409.321 280.354 410.592 276.839C414.144 267.022 417.731 261.163 420.961 261.163C423.736 261.163 425.217 262.58 427.707 266.83L428.208 267.696C431.263 273.019 433.172 274.97 436.811 274.97C440.179 274.97 441.955 272.123 444.742 264.276L445.184 263.015C447.989 254.987 449.597 252.287 452.66 252.287C455.168 252.287 456.726 257.126 459.213 270.748L460.068 275.495C462.922 291.147 464.747 296.667 468.51 296.667Z" fill="#9CA3AF"/>
<rect x="403.668" y="325" width="78" height="5" rx="2" fill="#D1D5DB"/>
<rect x="403.668" y="336" width="104" height="5" rx="2" fill="#D1D5DB"/>
</g>
<defs>
<filter id="filter0_dd_6258_15921" x="-3" y="-2" width="542" height="36" filterUnits="userSpaceOnUse" color-interpolation-filters="sRGB">
<feFlood flood-opacity="0" result="BackgroundImageFix"/>
<feColorMatrix in="SourceAlpha" type="matrix" values="0 0 0 0 0 0 0 0 0 0 0 0 0 0 0 0 0 0 127 0" result="hardAlpha"/>
<feOffset dy="1"/>
<feGaussianBlur stdDeviation="1.5"/>
<feColorMatrix type="matrix" values="0 0 0 0 0 0 0 0 0 0 0 0 0 0 0 0 0 0 0.1 0"/>
<feBlend mode="normal" in2="BackgroundImageFix" result="effect1_dropShadow_6258_15921"/>
<feColorMatrix in="SourceAlpha" type="matrix" values="0 0 0 0 0 0 0 0 0 0 0 0 0 0 0 0 0 0 127 0" result="hardAlpha"/>
<feOffset dy="1"/>
<feGaussianBlur stdDeviation="1"/>
<feColorMatrix type="matrix" values="0 0 0 0 0 0 0 0 0 0 0 0 0 0 0 0 0 0 0.06 0"/>
<feBlend mode="normal" in2="effect1_dropShadow_6258_15921" result="effect2_dropShadow_6258_15921"/>
<feBlend mode="normal" in="SourceGraphic" in2="effect2_dropShadow_6258_15921" result="shape"/>
</filter>
<linearGradient id="paint0_linear_6258_15921" x1="15.5225" y1="17.9132" x2="16.7029" y2="13.8016" gradientUnits="userSpaceOnUse">
<stop stop-color="#1724C9"/>
<stop offset="1" stop-color="#1C64F2"/>
</linearGradient>
<linearGradient id="paint1_linear_6258_15921" x1="18.2412" y1="12.899" x2="15.136" y2="9.80477" gradientUnits="userSpaceOnUse">
<stop stop-color="#1C64F2"/>
<stop offset="1" stop-color="#0092FF"/>
</linearGradient>
<linearGradient id="paint2_linear_6258_15921" x1="14.0614" y1="10.8821" x2="9.37716" y2="11.1781" gradientUnits="userSpaceOnUse">
<stop stop-color="#0092FF"/>
<stop offset="1" stop-color="#45B2FF"/>
</linearGradient>
<linearGradient id="paint3_linear_6258_15921" x1="13.742" y1="19.7486" x2="17.9488" y2="18.6135" gradientUnits="userSpaceOnUse">
<stop stop-color="#1C64F2"/>
<stop offset="1" stop-color="#0092FF"/>
</linearGradient>
<linearGradient id="paint4_linear_6258_15921" x1="10.7244" y1="14.881" x2="13.711" y2="17.9758" gradientUnits="userSpaceOnUse">
<stop stop-color="#1724C9"/>
<stop offset="1" stop-color="#1C64F2"/>
</linearGradient>
<linearGradient id="paint5_linear_6258_15921" x1="17.5419" y1="17.1134" x2="19.6258" y2="12.9125" gradientUnits="userSpaceOnUse">
<stop stop-color="#0092FF"/>
<stop offset="1" stop-color="#45B2FF"/>
</linearGradient>
<linearGradient id="paint6_linear_6258_15921" x1="10.0117" y1="12.424" x2="8.89654" y2="16.6153" gradientUnits="userSpaceOnUse">
<stop stop-color="#1C64F2"/>
<stop offset="1" stop-color="#0092FF"/>
</linearGradient>
<linearGradient id="paint7_linear_6258_15921" x1="15.7042" y1="12.2246" x2="11.6293" y2="13.2391" gradientUnits="userSpaceOnUse">
<stop stop-color="#1724C9"/>
<stop offset="1" stop-color="#1C64F2"/>
</linearGradient>
<linearGradient id="paint8_linear_6258_15921" x1="10.406" y1="17.0086" x2="13.0034" y2="20.9158" gradientUnits="userSpaceOnUse">
<stop stop-color="#0092FF"/>
<stop offset="1" stop-color="#45B2FF"/>
</linearGradient>
<linearGradient id="paint9_linear_6258_15921" x1="319.5" y1="99" x2="319.5" y2="182" gradientUnits="userSpaceOnUse">
<stop stop-color="#CBCBCB" stop-opacity="0.4"/>
<stop offset="1" stop-color="#B6B6B6" stop-opacity="0"/>
</linearGradient>
<linearGradient id="paint10_linear_6258_15921" x1="319.5" y1="111" x2="319.5" y2="193" gradientUnits="userSpaceOnUse">
<stop stop-color="#CBCBCB" stop-opacity="0.5"/>
<stop offset="1" stop-color="#9A9A9A" stop-opacity="0"/>
</linearGradient>
<linearGradient id="paint11_linear_6258_15921" x1="459.622" y1="251.2" x2="459.622" y2="314.171" gradientUnits="userSpaceOnUse">
<stop stop-color="white" stop-opacity="0"/>
<stop offset="1" stop-color="white"/>
</linearGradient>
<clipPath id="clip0_6258_15921">
<rect width="536" height="345" fill="white"/>
</clipPath>
</defs>
</svg>
