<svg width="346" height="388" viewBox="0 0 346 388" fill="none" xmlns="http://www.w3.org/2000/svg">
<path fill-rule="evenodd" clip-rule="evenodd" d="M195.81 21.1302L310.22 87.6702C316.877 91.5416 322.401 97.0924 326.241 103.768C330.08 110.443 332.101 118.009 332.1 125.71V262.14C332.099 270.653 329.834 279.012 325.538 286.361C321.241 293.71 315.068 299.784 307.65 303.96L194.1 367.9C186.693 372.07 178.329 374.241 169.83 374.201C161.33 374.161 152.987 371.91 145.62 367.67L41.05 307.48C32.9773 302.833 26.2718 296.141 21.609 288.078C16.9461 280.015 14.4907 270.865 14.49 261.55V132.08C14.4892 122.701 16.8868 113.478 21.455 105.287C26.0232 97.0954 32.6102 90.2084 40.59 85.2802L143.39 21.8202C151.247 16.971 160.273 14.3457 169.505 14.2241C178.736 14.1026 187.828 16.4895 195.81 21.1302V21.1302Z" fill="#FF4088" stroke="#C9177E" stroke-width="27"/>
</svg>
