<svg width="1912" height="1477" viewBox="0 0 1912 1477" fill="none" xmlns="http://www.w3.org/2000/svg">
<path d="M108.348 8V32H113.997V17.1758H114.196L119.961 31.8477H123.571L129.336 17.2578H129.536V32H135.184V8H128L121.907 22.8594H121.625L115.532 8H108.348ZM161.455 20C161.455 12.0664 156.439 7.67187 149.994 7.67187C143.525 7.67187 138.544 12.0664 138.544 20C138.544 27.8984 143.525 32.3281 149.994 32.3281C156.439 32.3281 161.455 27.9336 161.455 20ZM155.525 20C155.525 24.6992 153.462 27.2422 149.994 27.2422C146.537 27.2422 144.462 24.6992 144.462 20C144.462 15.3008 146.537 12.7578 149.994 12.7578C153.462 12.7578 155.525 15.3008 155.525 20ZM173.712 32C181.025 32 185.56 27.4883 185.56 19.9883C185.56 12.5 181.025 8 173.701 8H164.841V32H173.712ZM170.642 27.0547V12.9453H173.408C177.533 12.9453 179.748 14.8203 179.748 19.9883C179.748 25.1797 177.533 27.0547 173.49 27.0547H170.642ZM203.466 8V22.9766C203.466 25.4727 201.697 27.2656 199.107 27.2656C196.505 27.2656 194.748 25.4727 194.748 22.9766V8H188.947V23.4805C188.947 28.8477 193.001 32.3047 199.107 32.3047C205.166 32.3047 209.255 28.8477 209.255 23.4805V8H203.466ZM212.891 32H228.676V27.2891H218.692V8H212.891V32ZM231.679 32H248.414V27.2891H237.48V22.3555H247.558V17.6328H237.48V12.7109H248.414V8H231.679V32ZM265.019 15.1953H270.574C270.527 10.707 266.953 7.67187 261.375 7.67187C255.89 7.67187 251.941 10.6602 251.976 15.125C251.964 18.7695 254.519 20.8203 258.667 21.7695L261.175 22.3555C263.812 22.9648 264.996 23.6797 265.019 25.0273C264.996 26.4922 263.625 27.5117 261.292 27.5117C258.726 27.5117 257.039 26.3164 256.91 24.0078H251.355C251.425 29.6211 255.328 32.3047 261.363 32.3047C267.339 32.3047 270.878 29.5977 270.902 25.0391C270.878 21.207 268.289 18.8633 263.554 17.8203L261.492 17.3516C259.312 16.8828 257.929 16.1562 257.976 14.7266C257.988 13.4141 259.113 12.4648 261.363 12.4648C263.625 12.4648 264.867 13.4844 265.019 15.1953ZM286.675 32H292.253L296.578 17.4453H296.765L301.089 32H306.679L313.652 8H307.253L303.621 23.7617H303.421L299.285 8H294.058L289.921 23.7266H289.722L286.101 8H279.691L286.675 32ZM321.849 8H316.048V32H321.849V8ZM324.706 12.7109H331.995V32H337.713V12.7109H344.991V8H324.706V12.7109ZM347.824 32H353.625V22.3555H363.082V32H368.871V8H363.082V17.6328H353.625V8H347.824V32ZM388.47 32C395.783 32 400.318 27.4883 400.318 19.9883C400.318 12.5 395.783 8 388.458 8H379.599V32H388.47ZM385.4 27.0547V12.9453H388.166C392.291 12.9453 394.505 14.8203 394.505 19.9883C394.505 25.1797 392.291 27.0547 388.248 27.0547H385.4ZM403.705 32H420.439V27.2891H409.505V22.3555H419.583V17.6328H409.505V12.7109H420.439V8H403.705V32ZM424.072 32H429.873V24.5469H433.81C439.306 24.5469 442.74 21.2891 442.74 16.3086C442.74 11.375 439.376 8 433.986 8H424.072V32ZM429.873 19.9766V12.6758H432.732C435.333 12.6758 436.728 14.082 436.728 16.3086C436.728 18.5234 435.333 19.9766 432.732 19.9766H429.873ZM445.599 32H462.333V27.2891H451.4V22.3555H461.478V17.6328H451.4V12.7109H462.333V8H445.599V32ZM486.392 8H480.603V21.8281H480.404L470.958 8H465.966V32H471.767V18.1484H471.919L481.47 32H486.392V8ZM498.911 32C506.223 32 510.758 27.4883 510.758 19.9883C510.758 12.5 506.223 8 498.899 8H490.04V32H498.911ZM495.84 27.0547V12.9453H498.606C502.731 12.9453 504.946 14.8203 504.946 19.9883C504.946 25.1797 502.731 27.0547 498.688 27.0547H495.84ZM514.145 32H530.879V27.2891H519.946V22.3555H530.024V17.6328H519.946V12.7109H530.879V8H514.145V32ZM554.938 8H549.149V21.8281H548.95L539.504 8H534.512V32H540.313V18.1484H540.465L550.016 32H554.938V8ZM580.371 16.6953C579.785 10.9531 575.507 7.67187 569.707 7.67187C563.308 7.67187 558.328 12.0664 558.328 20C558.328 27.8984 563.191 32.3281 569.707 32.3281C576.292 32.3281 579.937 27.8516 580.371 23.5977L574.511 23.5625C574.101 25.8711 572.367 27.2422 569.824 27.2422C566.402 27.2422 564.246 24.7695 564.246 20C564.246 15.418 566.355 12.7578 569.859 12.7578C572.496 12.7578 574.218 14.293 574.511 16.6953H580.371ZM589.491 8H583.69V32H589.491V8ZM593.132 32H609.867V27.2891H598.933V22.3555H609.011V17.6328H598.933V12.7109H609.867V8H593.132V32ZM626.472 15.1953H632.027C631.98 10.707 628.406 7.67187 622.828 7.67187C617.343 7.67187 613.394 10.6602 613.429 15.125C613.417 18.7695 615.972 20.8203 620.121 21.7695L622.628 22.3555C625.265 22.9648 626.449 23.6797 626.472 25.0273C626.449 26.4922 625.078 27.5117 622.746 27.5117C620.179 27.5117 618.492 26.3164 618.363 24.0078H612.808C612.878 29.6211 616.781 32.3047 622.816 32.3047C628.792 32.3047 632.332 29.5977 632.355 25.0391C632.332 21.207 629.742 18.8633 625.007 17.8203L622.945 17.3516C620.765 16.8828 619.382 16.1562 619.429 14.7266C619.441 13.4141 620.566 12.4648 622.816 12.4648C625.078 12.4648 626.32 13.4844 626.472 15.1953Z" fill="#1F2A37"/>
<path d="M166.666 174.5C166.579 173.735 166.412 172.981 166.166 172.25V171.5C165.765 170.644 165.231 169.856 164.583 169.167L114.583 119.167C113.894 118.519 113.106 117.984 112.25 117.584H111.5C110.653 117.098 109.718 116.787 108.75 116.667H58.333C51.7026 116.667 45.3437 119.301 40.6553 123.989C35.9669 128.678 33.333 135.037 33.333 141.667V258.334C33.333 264.964 35.9669 271.323 40.6553 276.011C45.3437 280.7 51.7026 283.334 58.333 283.334H141.666C148.297 283.334 154.655 280.7 159.344 276.011C164.032 271.323 166.666 264.964 166.666 258.334V175C166.666 175 166.666 175 166.666 174.5ZM116.666 145.084L138.249 166.667H125C122.789 166.667 120.67 165.789 119.107 164.226C117.544 162.663 116.666 160.544 116.666 158.334V145.084ZM149.999 258.334C149.999 260.544 149.122 262.664 147.559 264.226C145.996 265.789 143.876 266.667 141.666 266.667H58.333C56.1228 266.667 54.0032 265.789 52.4404 264.226C50.8776 262.664 49.9996 260.544 49.9996 258.334V141.667C49.9996 139.457 50.8776 137.337 52.4404 135.774C54.0032 134.212 56.1228 133.334 58.333 133.334H99.9996V158.334C99.9996 164.964 102.633 171.323 107.322 176.011C112.01 180.7 118.369 183.334 125 183.334H149.999V258.334Z" fill="#9CA3AF"/>
<path d="M73.4645 249.216C74.4862 249.216 75.3885 248.351 75.4034 247.277C75.3885 246.218 74.4862 245.361 73.4645 245.361C72.3906 245.361 71.5107 246.218 71.5256 247.277C71.5107 248.351 72.3906 249.216 73.4645 249.216ZM81.4588 242.467C81.4663 241.162 82.2418 240.387 83.3977 240.387C84.5685 240.387 85.2472 241.14 85.2397 242.415V249H88.8864V241.699C88.8938 239.104 87.3129 237.396 84.9041 237.396C83.1889 237.396 81.9808 238.239 81.4663 239.648H81.3395V233.727H77.8121V249H81.4588V242.467ZM97.6283 237.545H95.5626V234.801H91.9159V237.545H90.4021V240.23H91.9159V245.801C91.8936 248.12 93.3999 249.283 95.9727 249.164C96.8527 249.119 97.4866 248.94 97.8371 248.836L97.2852 246.203C97.1286 246.241 96.7632 246.315 96.4873 246.315C95.8982 246.315 95.5626 246.077 95.5626 245.398V240.23H97.6283V237.545ZM99.4889 249H103.136V242.221C103.136 241.088 103.799 240.364 104.754 240.364C105.701 240.364 106.327 241.028 106.327 242.087V249H109.832V242.162C109.832 241.065 110.436 240.364 111.443 240.364C112.368 240.364 113.024 240.983 113.024 242.124V249H116.671V241.289C116.671 238.865 115.179 237.396 113.017 237.396C111.324 237.396 109.989 238.284 109.564 239.648H109.445C109.139 238.276 107.908 237.396 106.32 237.396C104.754 237.396 103.561 238.254 103.083 239.648H102.957V237.545H99.4889V249ZM122.577 233.727H118.93V249H122.577V233.727Z" fill="#6B7280"/>
<path d="M436.666 174.5C436.579 173.735 436.412 172.981 436.166 172.25V171.5C435.765 170.644 435.231 169.856 434.583 169.167L384.583 119.167C383.894 118.519 383.106 117.984 382.25 117.584H381.5C380.653 117.098 379.718 116.787 378.75 116.667H328.333C321.703 116.667 315.344 119.301 310.655 123.989C305.967 128.678 303.333 135.037 303.333 141.667V258.334C303.333 264.964 305.967 271.323 310.655 276.011C315.344 280.7 321.703 283.334 328.333 283.334H411.666C418.297 283.334 424.655 280.7 429.344 276.011C434.032 271.323 436.666 264.964 436.666 258.334V175C436.666 175 436.666 175 436.666 174.5ZM386.666 145.084L408.249 166.667H395C392.789 166.667 390.67 165.789 389.107 164.226C387.544 162.663 386.666 160.544 386.666 158.334V145.084ZM419.999 258.334C419.999 260.544 419.122 262.664 417.559 264.226C415.996 265.789 413.876 266.667 411.666 266.667H328.333C326.123 266.667 324.003 265.789 322.44 264.226C320.878 262.664 320 260.544 320 258.334V141.667C320 139.457 320.878 137.337 322.44 135.774C324.003 134.212 326.123 133.334 328.333 133.334H370V158.334C370 164.964 372.633 171.323 377.322 176.011C382.01 180.7 388.369 183.334 395 183.334H419.999V258.334Z" fill="#9CA3AF"/>
<path d="M360.984 249.216C362.006 249.216 362.908 248.351 362.923 247.277C362.908 246.218 362.006 245.361 360.984 245.361C359.91 245.361 359.03 246.218 359.045 247.277C359.03 248.351 359.91 249.216 360.984 249.216ZM365.332 237.545V249.403C365.332 250.171 364.996 250.536 363.997 250.536C363.855 250.536 363.728 250.529 363.549 250.506V253.273C363.818 253.288 364.027 253.295 364.288 253.295C367.144 253.295 368.978 252.311 368.978 249.477V237.545H365.332ZM367.151 236.211C368.188 236.211 369.023 235.428 369.023 234.466C369.023 233.504 368.188 232.728 367.151 232.728C366.122 232.728 365.279 233.504 365.279 234.466C365.279 235.428 366.122 236.211 367.151 236.211ZM381.3 241.043C381.106 238.776 379.249 237.396 376.147 237.396C373.044 237.396 371.068 238.746 371.083 241.043C371.068 242.803 372.194 243.936 374.484 244.362L376.482 244.742C377.429 244.928 377.862 245.227 377.877 245.734C377.862 246.308 377.221 246.688 376.288 246.688C375.252 246.688 374.551 246.241 374.394 245.406L370.792 245.495C371.053 247.762 373 249.216 376.274 249.216C379.339 249.216 381.568 247.688 381.583 245.331C381.568 243.661 380.465 242.669 378.183 242.229L375.975 241.811C375.006 241.617 374.693 241.274 374.7 240.834C374.693 240.252 375.371 239.895 376.214 239.895C377.176 239.895 377.847 240.409 377.951 241.132L381.3 241.043Z" fill="#6B7280"/>
<path d="M706.666 174.5C706.579 173.735 706.412 172.981 706.166 172.25V171.5C705.765 170.644 705.231 169.856 704.583 169.167L654.583 119.167C653.894 118.519 653.106 117.984 652.25 117.584H651.5C650.653 117.098 649.718 116.787 648.75 116.667H598.333C591.703 116.667 585.344 119.301 580.655 123.989C575.967 128.678 573.333 135.037 573.333 141.667V258.334C573.333 264.964 575.967 271.323 580.655 276.011C585.344 280.7 591.703 283.334 598.333 283.334H681.666C688.297 283.334 694.655 280.7 699.344 276.011C704.032 271.323 706.666 264.964 706.666 258.334V175C706.666 175 706.666 175 706.666 174.5ZM656.666 145.084L678.249 166.667H665C662.789 166.667 660.67 165.789 659.107 164.226C657.544 162.663 656.666 160.544 656.666 158.334V145.084ZM689.999 258.334C689.999 260.544 689.122 262.664 687.559 264.226C685.996 265.789 683.876 266.667 681.666 266.667H598.333C596.123 266.667 594.003 265.789 592.44 264.226C590.878 262.664 590 260.544 590 258.334V141.667C590 139.457 590.878 137.337 592.44 135.774C594.003 134.212 596.123 133.334 598.333 133.334H640V158.334C640 164.964 642.633 171.323 647.322 176.011C652.01 180.7 658.369 183.334 665 183.334H689.999V258.334Z" fill="#9CA3AF"/>
<path d="M621.161 249.216C622.182 249.216 623.085 248.351 623.1 247.277C623.085 246.218 622.182 245.361 621.161 245.361C620.087 245.361 619.207 246.218 619.222 247.277C619.207 248.351 620.087 249.216 621.161 249.216ZM635.509 241.043C635.315 238.776 633.458 237.396 630.356 237.396C627.253 237.396 625.277 238.746 625.292 241.043C625.277 242.803 626.403 243.936 628.693 244.362L630.691 244.742C631.638 244.928 632.071 245.227 632.086 245.734C632.071 246.308 631.43 246.688 630.497 246.688C629.461 246.688 628.76 246.241 628.603 245.406L625.001 245.495C625.262 247.762 627.209 249.216 630.483 249.216C633.547 249.216 635.777 247.688 635.792 245.331C635.777 243.661 634.674 242.669 632.392 242.229L630.184 241.811C629.215 241.617 628.902 241.274 628.909 240.834C628.902 240.252 629.58 239.895 630.423 239.895C631.385 239.895 632.056 240.409 632.16 241.132L635.509 241.043ZM648.699 237.545H644.858L642.741 245.435H642.621L640.511 237.545H636.67L640.593 249H644.769L648.699 237.545ZM655.068 253.534C658.52 253.534 660.877 251.961 660.877 249.045V237.545H657.245V239.507H657.141C656.701 238.455 655.702 237.396 653.897 237.396C651.503 237.396 649.333 239.238 649.333 243.258C649.333 247.151 651.399 248.843 653.912 248.843C655.597 248.843 656.723 248.06 657.156 247.001H657.282V249.015C657.282 250.477 656.388 251.006 655.165 251.006C653.994 251.006 653.293 250.559 653.099 249.85L649.646 250.044C649.915 252.05 651.801 253.534 655.068 253.534ZM655.18 246.189C653.83 246.189 653.077 245.092 653.077 243.258C653.077 241.431 653.822 240.245 655.18 240.245C656.514 240.245 657.29 241.401 657.29 243.258C657.29 245.1 656.507 246.189 655.18 246.189Z" fill="#6B7280"/>
<path d="M166.666 444.5C166.579 443.735 166.412 442.981 166.166 442.25V441.5C165.765 440.644 165.231 439.856 164.583 439.167L114.583 389.167C113.894 388.519 113.106 387.984 112.25 387.584H111.5C110.653 387.098 109.718 386.787 108.75 386.667H58.333C51.7026 386.667 45.3437 389.301 40.6553 393.989C35.9669 398.678 33.333 405.037 33.333 411.667V528.334C33.333 534.964 35.9669 541.323 40.6553 546.011C45.3437 550.7 51.7026 553.334 58.333 553.334H141.666C148.297 553.334 154.655 550.7 159.344 546.011C164.032 541.323 166.666 534.964 166.666 528.334V445C166.666 445 166.666 445 166.666 444.5ZM116.666 415.084L138.249 436.667H125C122.789 436.667 120.67 435.789 119.107 434.226C117.544 432.663 116.666 430.544 116.666 428.334V415.084ZM149.999 528.334C149.999 530.544 149.122 532.664 147.559 534.226C145.996 535.789 143.876 536.667 141.666 536.667H58.333C56.1228 536.667 54.0032 535.789 52.4404 534.226C50.8776 532.664 49.9996 530.544 49.9996 528.334V411.667C49.9996 409.457 50.8776 407.337 52.4404 405.774C54.0032 404.212 56.1228 403.334 58.333 403.334H99.9996V428.334C99.9996 434.964 102.633 441.323 107.322 446.011C112.01 450.7 118.369 453.334 125 453.334H149.999V528.334Z" fill="#9CA3AF"/>
<path d="M79.8995 519.216C80.9212 519.216 81.8236 518.351 81.8385 517.277C81.8236 516.218 80.9212 515.361 79.8995 515.361C78.8257 515.361 77.9457 516.218 77.9606 517.277C77.9457 518.351 78.8257 519.216 79.8995 519.216ZM84.2472 523.295H87.8939V517.143H87.9684C88.4308 518.202 89.4599 519.164 91.19 519.164C93.7255 519.164 95.7689 517.18 95.7689 513.28C95.7689 509.238 93.6062 507.396 91.2124 507.396C89.4003 507.396 88.4084 508.455 87.9684 509.507H87.8566V507.545H84.2472V523.295ZM87.8193 513.273C87.8193 511.401 88.5949 510.245 89.9297 510.245C91.2795 510.245 92.0253 511.431 92.0253 513.273C92.0253 515.122 91.2795 516.323 89.9297 516.323C88.5949 516.323 87.8193 515.13 87.8193 513.273ZM101.326 512.467C101.334 511.162 102.095 510.387 103.25 510.387C104.406 510.387 105.092 511.147 105.085 512.415V519H108.732V511.699C108.739 509.119 107.166 507.396 104.757 507.396C103.064 507.396 101.781 508.254 101.274 509.648H101.148V507.545H97.6798V519H101.326V512.467ZM116.329 523.534C119.782 523.534 122.138 521.961 122.138 519.045V507.545H118.506V509.507H118.402C117.962 508.455 116.963 507.396 115.158 507.396C112.764 507.396 110.594 509.238 110.594 513.258C110.594 517.151 112.66 518.843 115.173 518.843C116.858 518.843 117.984 518.06 118.417 517.001H118.544V519.015C118.544 520.477 117.649 521.006 116.426 521.006C115.255 521.006 114.554 520.559 114.36 519.85L110.907 520.044C111.176 522.05 113.063 523.534 116.329 523.534ZM116.441 516.189C115.091 516.189 114.338 515.092 114.338 513.258C114.338 511.431 115.083 510.245 116.441 510.245C117.776 510.245 118.551 511.401 118.551 513.258C118.551 515.1 117.768 516.189 116.441 516.189Z" fill="#6B7280"/>
<path d="M436.666 444.5C436.579 443.735 436.412 442.981 436.166 442.25V441.5C435.765 440.644 435.231 439.856 434.583 439.167L384.583 389.167C383.894 388.519 383.106 387.984 382.25 387.584H381.5C380.653 387.098 379.718 386.787 378.75 386.667H328.333C321.703 386.667 315.344 389.301 310.655 393.989C305.967 398.678 303.333 405.037 303.333 411.667V528.334C303.333 534.964 305.967 541.323 310.655 546.011C315.344 550.7 321.703 553.334 328.333 553.334H411.666C418.297 553.334 424.655 550.7 429.344 546.011C434.032 541.323 436.666 534.964 436.666 528.334V445C436.666 445 436.666 445 436.666 444.5ZM386.666 415.084L408.249 436.667H395C392.789 436.667 390.67 435.789 389.107 434.226C387.544 432.663 386.666 430.544 386.666 428.334V415.084ZM419.999 528.334C419.999 530.544 419.122 532.664 417.559 534.226C415.996 535.789 413.876 536.667 411.666 536.667H328.333C326.123 536.667 324.003 535.789 322.44 534.226C320.878 532.664 320 530.544 320 528.334V411.667C320 409.457 320.878 407.337 322.44 405.774C324.003 404.212 326.123 403.334 328.333 403.334H370V428.334C370 434.964 372.633 441.323 377.322 446.011C382.01 450.7 388.369 453.334 395 453.334H419.999V528.334Z" fill="#9CA3AF"/>
<path d="M353.57 519.216C354.592 519.216 355.494 518.351 355.509 517.277C355.494 516.218 354.592 515.361 353.57 515.361C352.497 515.361 351.617 516.218 351.632 517.277C351.617 518.351 352.497 519.216 353.57 519.216ZM357.918 507.545V519.403C357.918 520.171 357.583 520.536 356.583 520.536C356.442 520.536 356.315 520.529 356.136 520.506V523.273C356.404 523.288 356.613 523.295 356.874 523.295C359.73 523.295 361.565 522.311 361.565 519.477V507.545H357.918ZM359.738 506.211C360.774 506.211 361.61 505.428 361.61 504.466C361.61 503.504 360.774 502.728 359.738 502.728C358.709 502.728 357.866 503.504 357.866 504.466C357.866 505.428 358.709 506.211 359.738 506.211ZM363.886 523.295H367.533V517.143H367.607C368.069 518.202 369.099 519.164 370.829 519.164C373.364 519.164 375.408 517.18 375.408 513.28C375.408 509.238 373.245 507.396 370.851 507.396C369.039 507.396 368.047 508.455 367.607 509.507H367.495V507.545H363.886V523.295ZM367.458 513.273C367.458 511.401 368.234 510.245 369.568 510.245C370.918 510.245 371.664 511.431 371.664 513.273C371.664 515.122 370.918 516.323 369.568 516.323C368.234 516.323 367.458 515.13 367.458 513.273ZM382.658 523.534C386.111 523.534 388.467 521.961 388.467 519.045V507.545H384.836V509.507H384.731C384.291 508.455 383.292 507.396 381.487 507.396C379.093 507.396 376.923 509.238 376.923 513.258C376.923 517.151 378.989 518.843 381.502 518.843C383.187 518.843 384.314 518.06 384.746 517.001H384.873V519.015C384.873 520.477 383.978 521.006 382.755 521.006C381.584 521.006 380.883 520.559 380.689 519.85L377.236 520.044C377.505 522.05 379.392 523.534 382.658 523.534ZM382.77 516.189C381.42 516.189 380.667 515.092 380.667 513.258C380.667 511.431 381.413 510.245 382.77 510.245C384.105 510.245 384.88 511.401 384.88 513.258C384.88 515.1 384.097 516.189 382.77 516.189Z" fill="#6B7280"/>
<path d="M706.666 444.5C706.579 443.735 706.412 442.981 706.166 442.25V441.5C705.765 440.644 705.231 439.856 704.583 439.167L654.583 389.167C653.894 388.519 653.106 387.984 652.25 387.584H651.5C650.653 387.098 649.718 386.787 648.75 386.667H598.333C591.703 386.667 585.344 389.301 580.655 393.989C575.967 398.678 573.333 405.037 573.333 411.667V528.334C573.333 534.964 575.967 541.323 580.655 546.011C585.344 550.7 591.703 553.334 598.333 553.334H681.666C688.297 553.334 694.655 550.7 699.344 546.011C704.032 541.323 706.666 534.964 706.666 528.334V445C706.666 445 706.666 445 706.666 444.5ZM656.666 415.084L678.249 436.667H665C662.789 436.667 660.67 435.789 659.107 434.226C657.544 432.663 656.666 430.544 656.666 428.334V415.084ZM689.999 528.334C689.999 530.544 689.122 532.664 687.559 534.226C685.996 535.789 683.876 536.667 681.666 536.667H598.333C596.123 536.667 594.003 535.789 592.44 534.226C590.878 532.664 590 530.544 590 528.334V411.667C590 409.457 590.878 407.337 592.44 405.774C594.003 404.212 596.123 403.334 598.333 403.334H640V428.334C640 434.964 642.633 441.323 647.322 446.011C652.01 450.7 658.369 453.334 665 453.334H689.999V528.334Z" fill="#9CA3AF"/>
<path d="M621.663 519.216C622.685 519.216 623.587 518.351 623.602 517.277C623.587 516.218 622.685 515.361 621.663 515.361C620.589 515.361 619.709 516.218 619.724 517.277C619.709 518.351 620.589 519.216 621.663 519.216ZM631.358 519.216C634.579 519.216 636.578 517.344 636.675 514.511H633.267C633.133 515.726 632.402 516.39 631.403 516.39C630.12 516.39 629.285 515.309 629.285 513.273C629.285 511.252 630.127 510.17 631.403 510.17C632.447 510.17 633.125 510.879 633.267 512.05H636.675C636.593 509.231 634.535 507.396 631.35 507.396C627.748 507.396 625.571 509.798 625.571 513.31C625.571 516.808 627.734 519.216 631.358 519.216ZM648.542 511.043C648.348 508.776 646.491 507.396 643.388 507.396C640.286 507.396 638.31 508.746 638.325 511.043C638.31 512.803 639.436 513.936 641.725 514.362L643.724 514.742C644.671 514.928 645.104 515.227 645.119 515.734C645.104 516.308 644.462 516.688 643.53 516.688C642.494 516.688 641.793 516.241 641.636 515.406L638.034 515.495C638.295 517.762 640.241 519.216 643.515 519.216C646.58 519.216 648.81 517.688 648.825 515.331C648.81 513.661 647.706 512.669 645.424 512.229L643.217 511.811C642.247 511.617 641.934 511.274 641.942 510.834C641.934 510.252 642.613 509.895 643.456 509.895C644.418 509.895 645.089 510.409 645.193 511.132L648.542 511.043ZM660.621 511.043C660.427 508.776 658.57 507.396 655.468 507.396C652.365 507.396 650.389 508.746 650.404 511.043C650.389 512.803 651.515 513.936 653.805 514.362L655.803 514.742C656.75 514.928 657.183 515.227 657.198 515.734C657.183 516.308 656.541 516.688 655.609 516.688C654.573 516.688 653.872 516.241 653.715 515.406L650.113 515.495C650.374 517.762 652.321 519.216 655.594 519.216C658.659 519.216 660.889 517.688 660.904 515.331C660.889 513.661 659.785 512.669 657.503 512.229L655.296 511.811C654.327 511.617 654.013 511.274 654.021 510.834C654.013 510.252 654.692 509.895 655.535 509.895C656.497 509.895 657.168 510.409 657.272 511.132L660.621 511.043Z" fill="#6B7280"/>
<path d="M745.572 880.864L761.218 880.979L386.959 878.235C373.705 878.138 362.977 867.314 362.997 854.059L363.322 641.091" stroke="#D1D5DB" stroke-width="8" stroke-linecap="round" stroke-linejoin="round"/>
<path d="M376.078 627.848C376.067 635.028 370.238 640.805 363.059 640.752C355.879 640.699 350.068 634.836 350.079 627.656C350.09 620.477 355.919 614.699 363.098 614.752C370.278 614.805 376.089 620.668 376.078 627.848Z" fill="#F9FAFB" stroke="#D1D5DB" stroke-width="4"/>
<path d="M738.191 865.851C738.195 865.108 738.98 864.624 739.642 864.956L767.574 878.942C768.31 879.31 768.304 880.363 767.564 880.731L739.47 894.716C738.803 895.048 738.024 894.565 738.028 893.822L738.191 865.851Z" fill="#F9FAFB" stroke="#D1D5DB" stroke-width="4"/>
<path d="M1388.48 881.214L1399.87 881.329L1118.85 878.498C1117.38 878.484 1117.08 876.401 1118.49 876.001V876.001" stroke="#D1D5DB" stroke-width="8" stroke-linecap="round" stroke-linejoin="round"/>
<path d="M1138.14 877.283C1138.13 884.463 1132.3 890.225 1125.12 890.152C1117.94 890.079 1112.13 884.2 1112.14 877.02C1112.15 869.841 1117.97 864.079 1125.15 864.152C1132.33 864.225 1138.15 870.104 1138.14 877.283Z" fill="#F9FAFB" stroke="#D1D5DB" stroke-width="4"/>
<path d="M1386.14 867.696C1386.14 866.891 1387.04 866.416 1387.7 866.871L1406.81 880.012C1407.38 880.409 1407.38 881.264 1406.8 881.661L1387.59 894.801L1388.71 896.451L1387.59 894.801C1386.92 895.256 1386.02 894.781 1386.02 893.977L1386.14 867.696Z" fill="#F9FAFB" stroke="#D1D5DB" stroke-width="4"/>
<path d="M1561.63 567.195H1567.18C1567.13 562.707 1563.56 559.672 1557.98 559.672C1552.5 559.672 1548.55 562.66 1548.58 567.125C1548.57 570.77 1551.13 572.82 1555.27 573.77L1557.78 574.355C1560.42 574.965 1561.6 575.68 1561.63 577.027C1561.6 578.492 1560.23 579.512 1557.9 579.512C1555.33 579.512 1553.65 578.316 1553.52 576.008H1547.96C1548.03 581.621 1551.93 584.305 1557.97 584.305C1563.95 584.305 1567.49 581.598 1567.51 577.039C1567.49 573.207 1564.9 570.863 1560.16 569.82L1558.1 569.352C1555.92 568.883 1554.54 568.156 1554.58 566.727C1554.59 565.414 1555.72 564.465 1557.97 564.465C1560.23 564.465 1561.47 565.484 1561.63 567.195ZM1569.65 564.711H1576.94V584H1582.66V564.711H1589.94V560H1569.65V564.711ZM1594.97 584L1596.55 578.961H1604.83L1606.42 584H1612.65L1604.55 560H1596.83L1588.73 584H1594.97ZM1597.93 574.555L1600.59 566.047H1600.78L1603.45 574.555H1597.93ZM1611.45 564.711H1618.74V584H1624.46V564.711H1631.74V560H1611.45V564.711ZM1640.37 560H1634.57V584H1640.37V560ZM1665.8 568.695C1665.21 562.953 1660.93 559.672 1655.13 559.672C1648.73 559.672 1643.75 564.066 1643.75 572C1643.75 579.898 1648.62 584.328 1655.13 584.328C1661.72 584.328 1665.36 579.852 1665.8 575.598L1659.94 575.563C1659.53 577.871 1657.79 579.242 1655.25 579.242C1651.83 579.242 1649.67 576.77 1649.67 572C1649.67 567.418 1651.78 564.758 1655.29 564.758C1657.92 564.758 1659.64 566.293 1659.94 568.695H1665.8ZM1681.4 584L1682.98 578.961H1691.26L1692.85 584H1699.08L1690.98 560H1683.26L1675.16 584H1681.4ZM1684.36 574.555L1687.02 566.047H1687.21L1689.88 574.555H1684.36ZM1713.9 567.195H1719.45C1719.4 562.707 1715.83 559.672 1710.25 559.672C1704.77 559.672 1700.82 562.66 1700.85 567.125C1700.84 570.77 1703.4 572.82 1707.54 573.77L1710.05 574.355C1712.69 574.965 1713.87 575.68 1713.9 577.027C1713.87 578.492 1712.5 579.512 1710.17 579.512C1707.6 579.512 1705.92 578.316 1705.79 576.008H1700.23C1700.3 581.621 1704.21 584.305 1710.24 584.305C1716.22 584.305 1719.76 581.598 1719.78 577.039C1719.76 573.207 1717.17 570.863 1712.43 569.82L1710.37 569.352C1708.19 568.883 1706.81 568.156 1706.85 566.727C1706.87 565.414 1707.99 564.465 1710.24 564.465C1712.5 564.465 1713.74 565.484 1713.9 567.195ZM1735.68 567.195H1741.24C1741.19 562.707 1737.62 559.672 1732.04 559.672C1726.55 559.672 1722.6 562.66 1722.64 567.125C1722.63 570.77 1725.18 572.82 1729.33 573.77L1731.84 574.355C1734.47 574.965 1735.66 575.68 1735.68 577.027C1735.66 578.492 1734.29 579.512 1731.96 579.512C1729.39 579.512 1727.7 578.316 1727.57 576.008H1722.02C1722.09 581.621 1725.99 584.305 1732.03 584.305C1738 584.305 1741.54 581.598 1741.56 577.039C1741.54 573.207 1738.95 570.863 1734.22 569.82L1732.15 569.352C1729.97 568.883 1728.59 568.156 1728.64 566.727C1728.65 565.414 1729.78 564.465 1732.03 564.465C1734.29 564.465 1735.53 565.484 1735.68 567.195ZM1744.49 584H1761.23V579.289H1750.29V574.355H1760.37V569.633H1750.29V564.711H1761.23V560H1744.49V584ZM1764.08 564.711H1771.37V584H1777.08V564.711H1784.36V560H1764.08V564.711ZM1800.17 567.195H1805.72C1805.67 562.707 1802.1 559.672 1796.52 559.672C1791.04 559.672 1787.09 562.66 1787.12 567.125C1787.11 570.77 1789.67 572.82 1793.82 573.77L1796.32 574.355C1798.96 574.965 1800.14 575.68 1800.17 577.027C1800.14 578.492 1798.77 579.512 1796.44 579.512C1793.87 579.512 1792.19 578.316 1792.06 576.008H1786.5C1786.57 581.621 1790.48 584.305 1796.51 584.305C1802.49 584.305 1806.03 581.598 1806.05 577.039C1806.03 573.207 1803.44 570.863 1798.7 569.82L1796.64 569.352C1794.46 568.883 1793.08 568.156 1793.12 566.727C1793.14 565.414 1794.26 564.465 1796.51 564.465C1798.77 564.465 1800.01 565.484 1800.17 567.195Z" fill="#1F2A37"/>
<path d="M1608.67 726.5C1608.58 725.735 1608.41 724.981 1608.17 724.25V723.5C1607.77 722.644 1607.23 721.856 1606.58 721.167L1556.58 671.167C1555.89 670.519 1555.11 669.984 1554.25 669.584H1553.5C1552.65 669.098 1551.72 668.787 1550.75 668.667H1500.33C1493.7 668.667 1487.34 671.301 1482.66 675.989C1477.97 680.678 1475.33 687.037 1475.33 693.667V810.334C1475.33 816.964 1477.97 823.323 1482.66 828.011C1487.34 832.7 1493.7 835.334 1500.33 835.334H1583.67C1590.3 835.334 1596.66 832.7 1601.34 828.011C1606.03 823.323 1608.67 816.964 1608.67 810.334V727C1608.67 727 1608.67 727 1608.67 726.5ZM1558.67 697.084L1580.25 718.667H1567C1564.79 718.667 1562.67 717.789 1561.11 716.226C1559.54 714.663 1558.67 712.544 1558.67 710.334V697.084ZM1592 810.334C1592 812.544 1591.12 814.664 1589.56 816.226C1588 817.789 1585.88 818.667 1583.67 818.667H1500.33C1498.12 818.667 1496 817.789 1494.44 816.226C1492.88 814.664 1492 812.544 1492 810.334V693.667C1492 691.457 1492.88 689.337 1494.44 687.774C1496 686.212 1498.12 685.334 1500.33 685.334H1542V710.334C1542 716.964 1544.63 723.323 1549.32 728.011C1554.01 732.7 1560.37 735.334 1567 735.334H1592V810.334Z" fill="#9CA3AF"/>
<path d="M1532.13 803.237C1533.24 803.237 1534.23 802.289 1534.25 801.113C1534.23 799.953 1533.24 799.014 1532.13 799.014C1530.95 799.014 1529.99 799.953 1530 801.113C1529.99 802.289 1530.95 803.237 1532.13 803.237ZM1536.89 790.455V803.441C1536.89 804.282 1536.52 804.683 1535.43 804.683C1535.27 804.683 1535.13 804.674 1534.94 804.65V807.68C1535.23 807.696 1535.46 807.705 1535.74 807.705C1538.87 807.705 1540.88 806.626 1540.88 803.523V790.455H1536.89ZM1538.88 788.993C1540.02 788.993 1540.93 788.135 1540.93 787.081C1540.93 786.028 1540.02 785.178 1538.88 785.178C1537.75 785.178 1536.83 786.028 1536.83 787.081C1536.83 788.135 1537.75 788.993 1538.88 788.993ZM1554.38 794.285C1554.16 791.802 1552.13 790.291 1548.73 790.291C1545.33 790.291 1543.17 791.77 1543.19 794.285C1543.17 796.213 1544.4 797.454 1546.91 797.92L1549.1 798.336C1550.14 798.54 1550.61 798.867 1550.63 799.423C1550.61 800.051 1549.91 800.468 1548.89 800.468C1547.75 800.468 1546.98 799.978 1546.81 799.063L1542.87 799.161C1543.15 801.644 1545.29 803.237 1548.87 803.237C1552.23 803.237 1554.67 801.562 1554.69 798.982C1554.67 797.152 1553.46 796.066 1550.96 795.584L1548.54 795.126C1547.48 794.914 1547.14 794.538 1547.15 794.056C1547.14 793.419 1547.88 793.027 1548.81 793.027C1549.86 793.027 1550.59 793.591 1550.71 794.383L1554.38 794.285Z" fill="#6B7280"/>
<path d="M1878.67 726.5C1878.58 725.735 1878.41 724.981 1878.17 724.25V723.5C1877.77 722.644 1877.23 721.856 1876.58 721.167L1826.58 671.167C1825.89 670.519 1825.11 669.984 1824.25 669.584H1823.5C1822.65 669.098 1821.72 668.787 1820.75 668.667H1770.33C1763.7 668.667 1757.34 671.301 1752.66 675.989C1747.97 680.678 1745.33 687.037 1745.33 693.667V810.334C1745.33 816.964 1747.97 823.323 1752.66 828.011C1757.34 832.7 1763.7 835.334 1770.33 835.334H1853.67C1860.3 835.334 1866.66 832.7 1871.34 828.011C1876.03 823.323 1878.67 816.964 1878.67 810.334V727C1878.67 727 1878.67 727 1878.67 726.5ZM1828.67 697.084L1850.25 718.667H1837C1834.79 718.667 1832.67 717.789 1831.11 716.226C1829.54 714.663 1828.67 712.544 1828.67 710.334V697.084ZM1862 810.334C1862 812.544 1861.12 814.664 1859.56 816.226C1858 817.789 1855.88 818.667 1853.67 818.667H1770.33C1768.12 818.667 1766 817.789 1764.44 816.226C1762.88 814.664 1762 812.544 1762 810.334V693.667C1762 691.457 1762.88 689.337 1764.44 687.774C1766 686.212 1768.12 685.334 1770.33 685.334H1812V710.334C1812 716.964 1814.63 723.323 1819.32 728.011C1824.01 732.7 1830.37 735.334 1837 735.334H1862V810.334Z" fill="#9CA3AF"/>
<path d="M1791.92 803.237C1793.04 803.237 1794.02 802.289 1794.04 801.113C1794.02 799.953 1793.04 799.014 1791.92 799.014C1790.74 799.014 1789.78 799.953 1789.79 801.113C1789.78 802.289 1790.74 803.237 1791.92 803.237ZM1802.53 803.237C1806.06 803.237 1808.25 801.187 1808.36 798.083H1804.63C1804.48 799.414 1803.68 800.141 1802.58 800.141C1801.18 800.141 1800.26 798.957 1800.26 796.727C1800.26 794.514 1801.19 793.33 1802.58 793.33C1803.73 793.33 1804.47 794.105 1804.63 795.388H1808.36C1808.27 792.3 1806.01 790.291 1802.53 790.291C1798.58 790.291 1796.2 792.921 1796.2 796.768C1796.2 800.599 1798.57 803.237 1802.53 803.237ZM1821.35 794.285C1821.14 791.802 1819.11 790.291 1815.71 790.291C1812.31 790.291 1810.15 791.77 1810.17 794.285C1810.15 796.213 1811.38 797.454 1813.89 797.92L1816.08 798.336C1817.12 798.54 1817.59 798.867 1817.61 799.423C1817.59 800.051 1816.89 800.468 1815.87 800.468C1814.73 800.468 1813.96 799.978 1813.79 799.063L1809.85 799.161C1810.13 801.644 1812.26 803.237 1815.85 803.237C1819.21 803.237 1821.65 801.562 1821.67 798.982C1821.65 797.152 1820.44 796.066 1817.94 795.584L1815.52 795.126C1814.46 794.914 1814.12 794.538 1814.13 794.056C1814.12 793.419 1814.86 793.027 1815.78 793.027C1816.84 793.027 1817.57 793.591 1817.69 794.383L1821.35 794.285ZM1834.58 794.285C1834.37 791.802 1832.34 790.291 1828.94 790.291C1825.54 790.291 1823.38 791.77 1823.39 794.285C1823.38 796.213 1824.61 797.454 1827.12 797.92L1829.31 798.336C1830.35 798.54 1830.82 798.867 1830.84 799.423C1830.82 800.051 1830.12 800.468 1829.1 800.468C1827.96 800.468 1827.19 799.978 1827.02 799.063L1823.08 799.161C1823.36 801.644 1825.49 803.237 1829.08 803.237C1832.44 803.237 1834.88 801.562 1834.89 798.982C1834.88 797.152 1833.67 796.066 1831.17 795.584L1828.75 795.126C1827.69 794.914 1827.35 794.538 1827.36 794.056C1827.35 793.419 1828.09 793.027 1829.01 793.027C1830.07 793.027 1830.8 793.591 1830.92 794.383L1834.58 794.285Z" fill="#6B7280"/>
<path d="M1608.67 996.5C1608.58 995.735 1608.41 994.981 1608.17 994.25V993.5C1607.77 992.644 1607.23 991.856 1606.58 991.167L1556.58 941.167C1555.89 940.519 1555.11 939.984 1554.25 939.584H1553.5C1552.65 939.098 1551.72 938.787 1550.75 938.667H1500.33C1493.7 938.667 1487.34 941.301 1482.66 945.989C1477.97 950.678 1475.33 957.037 1475.33 963.667V1080.33C1475.33 1086.96 1477.97 1093.32 1482.66 1098.01C1487.34 1102.7 1493.7 1105.33 1500.33 1105.33H1583.67C1590.3 1105.33 1596.66 1102.7 1601.34 1098.01C1606.03 1093.32 1608.67 1086.96 1608.67 1080.33V997C1608.67 997 1608.67 997 1608.67 996.5ZM1558.67 967.084L1580.25 988.667H1567C1564.79 988.667 1562.67 987.789 1561.11 986.226C1559.54 984.663 1558.67 982.544 1558.67 980.334V967.084ZM1592 1080.33C1592 1082.54 1591.12 1084.66 1589.56 1086.23C1588 1087.79 1585.88 1088.67 1583.67 1088.67H1500.33C1498.12 1088.67 1496 1087.79 1494.44 1086.23C1492.88 1084.66 1492 1082.54 1492 1080.33V963.667C1492 961.457 1492.88 959.337 1494.44 957.774C1496 956.212 1498.12 955.334 1500.33 955.334H1542V980.334C1542 986.964 1544.63 993.323 1549.32 998.011C1554.01 1002.7 1560.37 1005.33 1567 1005.33H1592V1080.33Z" fill="#9CA3AF"/>
<path d="M1524.01 1073.24C1525.12 1073.24 1526.11 1072.29 1526.13 1071.11C1526.11 1069.95 1525.12 1069.01 1524.01 1069.01C1522.83 1069.01 1521.87 1069.95 1521.88 1071.11C1521.87 1072.29 1522.83 1073.24 1524.01 1073.24ZM1528.77 1060.45V1073.44C1528.77 1074.28 1528.4 1074.68 1527.31 1074.68C1527.15 1074.68 1527.01 1074.67 1526.82 1074.65V1077.68C1527.11 1077.7 1527.34 1077.7 1527.62 1077.7C1530.75 1077.7 1532.76 1076.63 1532.76 1073.52V1060.45H1528.77ZM1530.76 1058.99C1531.9 1058.99 1532.81 1058.13 1532.81 1057.08C1532.81 1056.03 1531.9 1055.18 1530.76 1055.18C1529.63 1055.18 1528.71 1056.03 1528.71 1057.08C1528.71 1058.13 1529.63 1058.99 1530.76 1058.99ZM1535.3 1077.7H1539.3V1070.97H1539.38C1539.89 1072.13 1541.01 1073.18 1542.91 1073.18C1545.68 1073.18 1547.92 1071.01 1547.92 1066.74C1547.92 1062.31 1545.55 1060.29 1542.93 1060.29C1540.95 1060.29 1539.86 1061.45 1539.38 1062.6H1539.26V1060.45H1535.3V1077.7ZM1539.22 1066.73C1539.22 1064.68 1540.07 1063.41 1541.53 1063.41C1543.01 1063.41 1543.82 1064.71 1543.82 1066.73C1543.82 1068.75 1543.01 1070.07 1541.53 1070.07C1540.07 1070.07 1539.22 1068.76 1539.22 1066.73ZM1555.86 1077.97C1559.65 1077.97 1562.23 1076.24 1562.23 1073.05V1060.45H1558.25V1062.6H1558.13C1557.65 1061.45 1556.56 1060.29 1554.58 1060.29C1551.96 1060.29 1549.58 1062.31 1549.58 1066.71C1549.58 1070.97 1551.85 1072.83 1554.6 1072.83C1556.44 1072.83 1557.68 1071.97 1558.15 1070.81H1558.29V1073.02C1558.29 1074.62 1557.31 1075.2 1555.97 1075.2C1554.69 1075.2 1553.92 1074.71 1553.71 1073.93L1549.93 1074.14C1550.22 1076.34 1552.29 1077.97 1555.86 1077.97ZM1555.99 1069.92C1554.51 1069.92 1553.68 1068.72 1553.68 1066.71C1553.68 1064.71 1554.5 1063.41 1555.99 1063.41C1557.45 1063.41 1558.3 1064.68 1558.3 1066.71C1558.3 1068.73 1557.44 1069.92 1555.99 1069.92Z" fill="#6B7280"/>
<path d="M1878.67 996.5C1878.58 995.735 1878.41 994.981 1878.17 994.25V993.5C1877.77 992.644 1877.23 991.856 1876.58 991.167L1826.58 941.167C1825.89 940.519 1825.11 939.984 1824.25 939.584H1823.5C1822.65 939.098 1821.72 938.787 1820.75 938.667H1770.33C1763.7 938.667 1757.34 941.301 1752.66 945.989C1747.97 950.678 1745.33 957.037 1745.33 963.667V1080.33C1745.33 1086.96 1747.97 1093.32 1752.66 1098.01C1757.34 1102.7 1763.7 1105.33 1770.33 1105.33H1853.67C1860.3 1105.33 1866.66 1102.7 1871.34 1098.01C1876.03 1093.32 1878.67 1086.96 1878.67 1080.33V997C1878.67 997 1878.67 997 1878.67 996.5ZM1828.67 967.084L1850.25 988.667H1837C1834.79 988.667 1832.67 987.789 1831.11 986.226C1829.54 984.663 1828.67 982.544 1828.67 980.334V967.084ZM1862 1080.33C1862 1082.54 1861.12 1084.66 1859.56 1086.23C1858 1087.79 1855.88 1088.67 1853.67 1088.67H1770.33C1768.12 1088.67 1766 1087.79 1764.44 1086.23C1762.88 1084.66 1762 1082.54 1762 1080.33V963.667C1762 961.457 1762.88 959.337 1764.44 957.774C1766 956.212 1768.12 955.334 1770.33 955.334H1812V980.334C1812 986.964 1814.63 993.323 1819.32 998.011C1824.01 1002.7 1830.37 1005.33 1837 1005.33H1862V1080.33Z" fill="#9CA3AF"/>
<path d="M1789.99 1073.24C1791.1 1073.24 1792.09 1072.29 1792.11 1071.11C1792.09 1069.95 1791.1 1069.01 1789.99 1069.01C1788.81 1069.01 1787.85 1069.95 1787.86 1071.11C1787.85 1072.29 1788.81 1073.24 1789.99 1073.24ZM1794.75 1077.7H1798.74V1070.97H1798.82C1799.33 1072.13 1800.46 1073.18 1802.35 1073.18C1805.13 1073.18 1807.37 1071.01 1807.37 1066.74C1807.37 1062.31 1805 1060.29 1802.38 1060.29C1800.39 1060.29 1799.3 1061.45 1798.82 1062.6H1798.7V1060.45H1794.75V1077.7ZM1798.66 1066.73C1798.66 1064.68 1799.51 1063.41 1800.97 1063.41C1802.45 1063.41 1803.27 1064.71 1803.27 1066.73C1803.27 1068.75 1802.45 1070.07 1800.97 1070.07C1799.51 1070.07 1798.66 1068.76 1798.66 1066.73ZM1813.45 1065.85C1813.46 1064.42 1814.29 1063.57 1815.56 1063.57C1816.83 1063.57 1817.58 1064.4 1817.57 1065.79V1073H1821.56V1065C1821.57 1062.18 1819.85 1060.29 1817.21 1060.29C1815.36 1060.29 1813.95 1061.23 1813.4 1062.76H1813.26V1060.45H1809.46V1073H1813.45V1065.85ZM1829.88 1077.97C1833.67 1077.97 1836.25 1076.24 1836.25 1073.05V1060.45H1832.27V1062.6H1832.15C1831.67 1061.45 1830.58 1060.29 1828.6 1060.29C1825.98 1060.29 1823.6 1062.31 1823.6 1066.71C1823.6 1070.97 1825.87 1072.83 1828.62 1072.83C1830.46 1072.83 1831.7 1071.97 1832.17 1070.81H1832.31V1073.02C1832.31 1074.62 1831.33 1075.2 1829.99 1075.2C1828.71 1075.2 1827.94 1074.71 1827.73 1073.93L1823.95 1074.14C1824.24 1076.34 1826.31 1077.97 1829.88 1077.97ZM1830.01 1069.92C1828.53 1069.92 1827.7 1068.72 1827.7 1066.71C1827.7 1064.71 1828.52 1063.41 1830.01 1063.41C1831.47 1063.41 1832.32 1064.68 1832.32 1066.71C1832.32 1068.73 1831.46 1069.92 1830.01 1069.92Z" fill="#6B7280"/>
<path d="M944 776L1035.92 828.25V932.75L944 985L852.081 932.75V828.25L944 776Z" fill="white"/>
<path d="M1019.5 929.145L947.033 970.335V938.254L992.187 913.296L1019.5 929.145ZM1024.46 924.634V838.491L997.941 853.87V909.238L1024.46 924.634ZM868.201 929.145L940.672 970.335V938.254L895.519 913.296L868.201 929.145ZM863.244 924.634V838.491L889.764 853.87V909.238L863.244 924.634ZM866.347 832.918L940.672 790.665V821.684L893.057 848.001L892.693 848.21L866.347 832.918ZM1021.36 832.918L947.033 790.665V821.684L994.648 848.001L995.012 848.21L1021.36 832.918Z" fill="#8ED6FB"/>
<path d="M940.672 930.956L896.125 906.347V857.58L940.672 883.426V930.956ZM947.033 930.956L991.58 906.347V857.58L947.033 883.426V930.956ZM899.141 851.937L943.861 827.223L988.581 851.937L943.861 877.888L899.141 851.937Z" fill="#1C78C0"/>
</svg>
